<svg width="222" height="146" viewBox="0 0 222 146" fill="none" xmlns="http://www.w3.org/2000/svg">
<mask id="mask0_54_11400" style="mask-type:luminance" maskUnits="userSpaceOnUse" x="0" y="0" width="222" height="146">
<path d="M0 0H222V145.566H0V0Z" fill="white"/>
</mask>
<g mask="url(#mask0_54_11400)">
<path d="M213.866 1.7005C207.48 -1.02495 200.137 1.25452 194.103 3.81554C188.271 6.29096 182.782 9.52996 177.773 13.4042C171.991 17.8797 166.77 23.2495 162.503 29.2726C161.026 28.0698 159.494 26.9548 157.931 25.9457C145.93 18.2063 131.181 16.5823 117.333 19.2019C93.8177 23.655 74.2215 39.4693 62.5516 59.9057C60.8961 59.6602 59.2315 59.4777 57.5625 59.3628C43.0793 58.3628 28.5601 62.014 15.6086 68.3726C9.99106 71.1318 3.24727 74.4496 0.934022 80.7137C-0.726022 85.2073 0.598409 90.6289 5.21815 92.3205C5.97948 92.6313 6.81964 92.8115 7.7161 92.8273C11.4754 93.0503 15.5275 91.0749 16.4263 87.1849C17.4894 82.5832 13.6445 77.585 9.04729 77.0062C5.60782 76.5714 2.89815 78.7541 1.62101 81.6619C1.78544 81.1214 1.98366 80.5988 2.21566 80.101C4.88029 74.3978 11.5903 71.3458 16.9669 68.7713C28.8169 63.0929 41.9554 59.7503 55.1501 60.1917C57.4476 60.2683 59.7541 60.4778 62.0426 60.8112C60.556 63.4848 59.2023 66.235 57.9972 69.0461C52.9653 80.7632 49.8839 93.6719 50.4471 106.475C50.9561 118.131 54.7132 130.125 63.6306 138.108C68.3764 142.358 74.5188 145.329 80.9698 145.453C87.137 145.57 92.9775 142.903 97.5793 138.919C107.141 130.643 111.022 117.426 109.801 105.11C108.553 92.4984 102.199 81.0763 92.4775 72.9991C84.2493 66.1629 74.1314 61.8022 63.5968 60.0656C71.3767 46.5104 82.5465 35.0163 96.5769 27.563C107.641 21.6819 120.284 18.3865 132.857 19.0488C143.549 19.6096 153.735 23.3644 161.956 30.0699C158.755 34.7212 156.129 39.7464 154.253 45.0441C152.05 51.2563 150.768 58.1961 151.712 64.7799C152.471 70.0844 155.183 75.6434 160.717 77.2314C165.542 78.6167 170.86 76.5714 174.356 73.186C178.881 68.7983 179.892 62.1536 178.985 56.1509C177.444 45.9766 171.187 36.6245 163.276 29.9168C168.959 21.8508 176.306 14.9561 184.701 9.76422C189.789 6.61757 195.369 3.85158 201.18 2.34019C206.293 1.009 212.154 0.999992 216.287 4.2863C212.158 2.61949 206.831 4.31332 204.917 8.50511C202.892 12.9447 205.234 18.8483 209.933 20.4047C214.562 21.9386 220.139 19.0443 221.242 14.2421C222.441 9.0074 218.544 3.6939 213.875 1.7005H213.866ZM3.18646 80.7001C6.38717 75.9498 12.8021 78.0062 14.9599 82.6282C15.3158 83.3963 15.5208 84.1486 15.5929 84.8762C15.5929 84.8829 15.5929 84.8874 15.5929 84.8942C15.5861 88.7999 11.757 91.8542 7.97063 91.8925C6.81963 91.8429 5.66639 91.5614 4.65054 91.0298C1.25837 88.9824 1.0534 83.8693 3.18646 80.7001ZM107.598 98.152C110.461 109.277 109.218 121.672 102.854 131.407C99.7191 136.202 95.3065 140.322 90.0223 142.638C84.2493 145.172 77.8299 145 72.0772 142.48C61.698 137.93 55.2988 127.717 52.8008 117.012C50.2759 106.202 51.1881 94.8297 53.8798 84.1486C55.9227 76.0489 59.0153 68.2262 63.0674 60.9733C83.3371 64.2799 102.287 77.54 107.594 98.152H107.598ZM165.519 33.2932C169.481 37.2484 172.763 41.8772 175.124 46.9519C177.827 52.7587 179.399 59.6264 177.552 65.9219C176.054 71.0237 172.013 75.0691 166.799 76.3439C161.393 77.6684 156.453 75.0308 154.154 70.0304C151.671 64.629 152.075 58.0632 153.199 52.3848C154.458 46.0307 157.007 39.9829 160.316 34.4306C161.071 33.1648 161.868 31.9192 162.702 30.7006C163.668 31.525 164.609 32.3854 165.515 33.2932H165.519ZM220.312 13.9875C219.72 16.6409 217.605 18.6298 215.064 19.4519C209.629 21.2066 204.559 16.6477 205.176 11.0841C205.786 5.59271 212.471 2.94835 216.997 5.70983C217.256 5.8675 217.506 5.74813 217.627 5.54766C217.909 5.85399 218.179 6.1851 218.438 6.53648C219.995 8.65827 220.898 11.3657 220.314 13.9898L220.312 13.9875Z" fill="white"/>
</g>
</svg>
