<svg width="157" height="62" viewBox="0 0 157 62" fill="none" xmlns="http://www.w3.org/2000/svg">
<mask id="mask0_54_12516" style="mask-type:luminance" maskUnits="userSpaceOnUse" x="0" y="0" width="157" height="62">
<path d="M0 0H157V61.7896H0V0Z" fill="white"/>
</mask>
<g mask="url(#mask0_54_12516)">
<path d="M0 0.798499C0 0.697298 0.0202402 0.598121 0.0586969 0.502991C0.0971536 0.409885 0.153826 0.324876 0.224667 0.254035C0.297532 0.18117 0.380518 0.124497 0.475647 0.0860406C0.568752 0.0475844 0.66793 0.0273438 0.769132 0.0273438C6.02554 0.0273438 8.6163 3.72322 11.116 7.29969C13.4942 10.7041 15.7429 13.9183 20.2018 13.9183C24.6628 13.9183 26.9054 10.7041 29.2877 7.29969C31.7894 3.72322 34.3741 0.0273438 39.6346 0.0273438C44.895 0.0273438 47.4777 3.72322 49.9774 7.29969C52.3596 10.7041 54.5962 13.9183 59.0632 13.9183C63.5303 13.9183 65.7709 10.7041 68.1532 7.29969C70.6528 3.72322 73.2395 0.0273438 78.5 0.0273438C83.7605 0.0273438 86.3451 3.72322 88.8468 7.29969C91.2251 10.7041 93.4657 13.9183 97.9327 13.9183C102.4 13.9183 104.64 10.7041 107.019 7.29969C109.514 3.72322 112.101 0.0273438 117.365 0.0273438C122.63 0.0273438 125.211 3.72322 127.712 7.29969C130.095 10.7041 132.331 13.9183 136.802 13.9183C141.273 13.9183 143.506 10.7041 145.886 7.29969C148.384 3.72322 150.97 0.0273438 156.231 0.0273438C156.332 0.0273438 156.431 0.0475844 156.524 0.0860406C156.619 0.124497 156.702 0.18117 156.775 0.254035C156.846 0.324876 156.903 0.409885 156.941 0.502991C156.98 0.598121 157 0.697298 157 0.798499C157 0.901725 156.98 0.998878 156.941 1.09401C156.903 1.18914 156.846 1.27212 156.775 1.34499C156.702 1.41583 156.619 1.4725 156.524 1.51096C156.431 1.55144 156.332 1.56966 156.231 1.56966C151.77 1.56966 149.523 4.78382 147.141 8.18824C144.639 11.7647 142.055 15.4606 136.798 15.4606C131.542 15.4606 128.951 11.7647 126.447 8.18824C124.069 4.78382 121.82 1.56966 117.365 1.56966C112.909 1.56966 110.658 4.78382 108.28 8.18824C105.776 11.7647 103.189 15.4606 97.9287 15.4606C92.6682 15.4606 90.0835 11.7647 87.5818 8.18824C85.2036 4.78382 82.9569 1.56966 78.5 1.56966C74.0431 1.56966 71.7924 4.78382 69.4141 8.18824C66.9104 11.7647 64.3237 15.4606 59.0632 15.4606C53.8028 15.4606 51.2221 11.7647 48.7204 8.18824C46.3382 4.78382 44.0915 1.56966 39.6346 1.56966C35.1797 1.56966 32.9269 4.78382 30.5467 8.18824C28.045 11.7647 25.4583 15.4606 20.2018 15.4606C14.9454 15.4606 12.3567 11.7647 9.855 8.18824C7.47677 4.78382 5.22605 1.56966 0.769132 1.56966C0.66793 1.56966 0.568752 1.55144 0.475647 1.51096C0.380518 1.4725 0.297532 1.41583 0.224667 1.34499C0.153826 1.27212 0.0971536 1.18914 0.0586969 1.09401C0.0202402 0.998878 0 0.901725 0 0.798499ZM156.231 23.1782C150.97 23.1782 148.384 26.8761 145.882 30.4526C143.502 33.8712 141.253 37.0691 136.798 37.0691C132.341 37.0691 130.091 33.855 127.708 30.4526C125.207 26.8903 122.622 23.1782 117.365 23.1782C112.109 23.1782 109.514 26.8903 107.015 30.4667C104.636 33.8712 102.396 37.0853 97.9287 37.0853C93.4616 37.0853 91.221 33.8712 88.8428 30.4667C86.3431 26.8903 83.7564 23.1782 78.5 23.1782C73.2436 23.1782 70.6569 26.8761 68.1572 30.4526C65.7749 33.855 63.5384 37.0691 59.0673 37.0691C54.5962 37.0691 52.3637 33.855 49.9814 30.4526C47.4777 26.8903 44.891 23.1782 39.6346 23.1782C34.3782 23.1782 31.7894 26.8903 29.2877 30.4667C26.9054 33.8712 24.6588 37.0691 20.2018 37.0691C15.747 37.0691 13.4942 33.8712 11.116 30.4667C8.6163 26.8903 6.02554 23.1782 0.769132 23.1782C0.66793 23.1782 0.568752 23.1984 0.475647 23.2369C0.380518 23.2774 0.297532 23.332 0.224667 23.4049C0.153826 23.4778 0.0971536 23.5607 0.0586969 23.6559C0.0202402 23.749 0 23.8482 0 23.9494C0 24.0526 0.0202402 24.1518 0.0586969 24.2449C0.0971536 24.34 0.153826 24.423 0.224667 24.4959C0.297532 24.5687 0.380518 24.6234 0.475647 24.6638C0.568752 24.7023 0.66793 24.7225 0.769132 24.7225C5.22605 24.7225 7.47677 27.9367 9.855 31.3351C12.3567 34.9277 14.9414 38.6135 20.2018 38.6135C25.4623 38.6135 28.045 34.9135 30.5467 31.3351C32.9269 27.9509 35.1756 24.7225 39.6346 24.7225C44.0955 24.7225 46.3382 27.9367 48.7204 31.3351C51.2221 34.9135 53.8068 38.6135 59.0632 38.6135C64.3196 38.6135 66.9104 34.9135 69.4101 31.3351C71.7883 27.9509 74.0411 24.7225 78.5 24.7225C82.9589 24.7225 85.2076 27.9367 87.5859 31.3351C90.0855 34.9135 92.6763 38.6135 97.9327 38.6135C103.189 38.6135 105.778 34.9135 108.28 31.3351C110.654 27.9509 112.904 24.7225 117.365 24.7225C121.824 24.7225 124.073 27.9367 126.451 31.3351C128.955 34.9135 131.542 38.6135 136.802 38.6135C142.063 38.6135 144.643 34.9135 147.145 31.3351C149.523 27.9509 151.77 24.7225 156.231 24.7225C156.332 24.7225 156.431 24.7023 156.524 24.6638C156.619 24.6234 156.702 24.5687 156.775 24.4959C156.846 24.423 156.903 24.34 156.941 24.2449C156.98 24.1518 157 24.0526 157 23.9494C157 23.8482 156.98 23.749 156.941 23.6559C156.903 23.5607 156.846 23.4778 156.775 23.4049C156.702 23.332 156.619 23.2774 156.524 23.2369C156.431 23.1984 156.332 23.1782 156.231 23.1782ZM156.231 46.3311C150.97 46.3311 148.384 50.031 145.882 53.6034C143.502 57.0079 141.265 60.222 136.798 60.222C132.331 60.222 130.091 57.0079 127.708 53.6034C125.207 50.031 122.622 46.3311 117.361 46.3311C112.101 46.3311 109.514 50.031 107.015 53.6034C104.636 57.0079 102.396 60.222 97.9287 60.222C93.4616 60.222 91.221 57.0079 88.8428 53.6034C86.3431 50.031 83.7564 46.3311 78.496 46.3311C73.2355 46.3311 70.6528 50.031 68.1532 53.6034C65.7709 57.0079 63.5343 60.222 59.0632 60.222C54.5922 60.222 52.3596 57.0079 49.9774 53.6034C47.4777 50.031 44.891 46.3311 39.6346 46.3311C34.3782 46.3311 31.7894 50.031 29.2877 53.6034C26.9054 57.0079 24.6689 60.222 20.2018 60.222C15.7348 60.222 13.4942 57.0079 11.116 53.6034C8.6163 50.031 6.02554 46.3311 0.769132 46.3311C0.66793 46.3311 0.568752 46.3493 0.475647 46.3898C0.380518 46.4282 0.297532 46.4829 0.224667 46.5558C0.153826 46.6286 0.0971536 46.7116 0.0586969 46.8067C0.0202402 46.9019 0 46.999 0 47.1023C0 47.2035 0.0202402 47.3026 0.0586969 47.3978C0.0971536 47.4909 0.153826 47.5759 0.224667 47.6467C0.297532 47.7196 0.380518 47.7763 0.475647 47.8147C0.568752 47.8532 0.66793 47.8734 0.769132 47.8734C5.22605 47.8734 7.47677 51.0876 9.855 54.492C12.3567 58.0685 14.9414 61.7643 20.2018 61.7643C25.4623 61.7643 28.045 58.0685 30.5467 54.492C32.9269 51.0876 35.1635 47.8734 39.6346 47.8734C44.1056 47.8734 46.3382 51.0876 48.7204 54.492C51.2221 58.0685 53.8068 61.7643 59.0632 61.7643C64.3196 61.7643 66.9104 58.0685 69.4101 54.492C71.7883 51.0876 74.0289 47.8734 78.496 47.8734C82.963 47.8734 85.2036 51.0876 87.5818 54.492C90.0835 58.0685 92.6723 61.7643 97.9287 61.7643C103.185 61.7643 105.776 58.0685 108.276 54.492C110.654 51.0876 112.894 47.8734 117.361 47.8734C121.828 47.8734 124.069 51.0876 126.447 54.492C128.951 58.0685 131.538 61.7643 136.798 61.7643C142.059 61.7643 144.639 58.0685 147.141 54.492C149.523 51.0876 151.76 47.8734 156.231 47.8734C156.332 47.8734 156.431 47.8532 156.524 47.8147C156.619 47.7763 156.702 47.7196 156.775 47.6467C156.846 47.5759 156.903 47.4909 156.941 47.3978C156.98 47.3026 157 47.2035 157 47.1023C157 46.999 156.98 46.9019 156.941 46.8067C156.903 46.7116 156.846 46.6286 156.775 46.5558C156.702 46.4829 156.619 46.4282 156.524 46.3898C156.431 46.3493 156.332 46.3311 156.231 46.3311Z" fill="#121212"/>
</g>
</svg>
