<svg width="125" height="126" viewBox="0 0 125 126" fill="none" xmlns="http://www.w3.org/2000/svg">
<mask id="mask0_54_11309" style="mask-type:luminance" maskUnits="userSpaceOnUse" x="0" y="0" width="125" height="126">
<path d="M0 0H124.832V125.088H0V0Z" fill="white"/>
</mask>
<g mask="url(#mask0_54_11309)">
<path d="M124.832 125.074C124.832 125.074 124.032 125.058 122.606 125.032C121.18 124.977 119.075 125 116.408 124.774C111.085 124.465 103.432 123.556 94.4851 121.346C85.5373 119.16 75.357 115.413 65.2317 109.96C60.2006 107.182 55.1737 104.011 50.3328 100.423C45.5179 96.8067 40.8789 92.8089 36.5399 88.5028C32.2365 84.1597 28.2408 79.5179 24.6288 74.6989C21.0436 69.8553 17.8765 64.8249 15.1022 59.7883C9.6516 49.6554 5.90712 39.4718 3.72319 30.5184C1.51591 21.5616 0.607602 13.9106 0.298652 8.585C0.0720882 5.91567 0.0947446 3.73105 0.0411933 2.30301C0.0137311 0.875666 0 0.0195312 0 0.0195312H2.82861C2.82861 0.0195312 2.84234 0.859189 2.86912 2.25427C2.92335 3.65141 2.89864 5.73991 3.12177 8.34882C3.42179 13.5543 4.3102 21.0549 6.46735 29.8064C8.60254 38.558 12.2626 48.5212 17.5854 58.4248C20.2973 63.3467 23.3951 68.268 26.8986 73.0018C30.4281 77.7115 34.3353 82.2531 38.5391 86.4974C42.7813 90.706 47.314 94.6152 52.0189 98.1489C56.7493 101.656 61.6616 104.756 66.5794 107.47C76.474 112.799 86.4167 116.464 95.1593 118.599C103.904 120.757 111.375 121.648 116.575 121.948C119.181 122.171 121.26 122.147 122.655 122.201C124.05 122.228 124.832 122.242 124.832 122.242V125.074Z" fill="#FFE144"/>
</g>
<mask id="mask1_54_11309" style="mask-type:luminance" maskUnits="userSpaceOnUse" x="5" y="0" width="120" height="120">
<path d="M5.61914 0H124.829V119.464H5.61914V0Z" fill="white"/>
</mask>
<g mask="url(#mask1_54_11309)">
<path d="M124.831 119.411C124.831 119.411 124.065 119.396 122.703 119.37C121.341 119.316 119.329 119.342 116.782 119.125C111.7 118.831 104.393 117.96 95.8552 115.852C87.3138 113.767 77.5997 110.187 67.9337 104.984C63.1319 102.331 58.3295 99.3051 53.709 95.8805C49.1125 92.4258 44.6842 88.6085 40.5394 84.4974C36.4332 80.3513 32.6187 75.9182 29.1667 71.3183C25.7449 66.6944 22.7213 61.8905 20.0712 57.084C14.8726 47.4104 11.2949 37.6922 9.21123 29.1446C7.10626 20.597 6.23433 13.2941 5.94254 8.20877C5.72353 5.66027 5.75099 3.56971 5.69676 2.20484C5.66998 0.843398 5.65625 0.0195312 5.65625 0.0195312H8.48486C8.48486 0.0195312 8.49859 0.823488 8.52605 2.15541C8.57686 3.48801 8.55214 5.4852 8.76497 7.9719C9.04989 12.9378 9.9026 20.0917 11.9554 28.4354C13.989 36.7784 17.4815 46.2755 22.5551 55.7198C25.1448 60.4124 28.0956 65.1057 31.4371 69.6212C34.8053 74.1126 38.5292 78.4434 42.538 82.4934C46.5859 86.5063 50.9085 90.2343 55.3958 93.6067C59.9065 96.9495 64.5922 99.9044 69.28 102.495C78.7174 107.573 88.1933 111.07 96.5294 113.105C104.865 115.162 111.99 116.013 116.951 116.299C119.436 116.512 121.422 116.486 122.753 116.539C124.082 116.565 124.831 116.578 124.831 116.578V119.411Z" fill="#FFE144"/>
</g>
<mask id="mask2_54_11309" style="mask-type:luminance" maskUnits="userSpaceOnUse" x="11" y="0" width="114" height="114">
<path d="M11.2461 0H124.832V113.84H11.2461V0Z" fill="white"/>
</mask>
<g mask="url(#mask2_54_11309)">
<path d="M124.832 113.747C124.832 113.747 124.1 113.734 122.802 113.708C121.503 113.655 119.584 113.684 117.159 113.474C112.317 113.196 105.357 112.363 97.2245 110.358C89.093 108.374 79.8437 104.962 70.6349 100.007C66.0638 97.4802 61.4893 94.5987 57.0885 91.3376C52.709 88.0456 48.4894 84.4089 44.5424 80.4941C40.629 76.5416 36.9951 72.3193 33.7071 67.9384C30.4474 63.5328 27.5687 58.9576 25.0421 54.3803C20.0934 45.1661 16.6833 35.9127 14.7026 27.7742C12.6992 19.6337 11.8651 12.6782 11.5884 7.83253C11.379 5.40487 11.4058 3.40768 11.3529 2.10803C11.3282 0.807697 11.3145 0.0195312 11.3145 0.0195312H14.1431C14.1431 0.0195312 14.1561 0.79122 14.1822 2.05791C14.2351 3.32667 14.2049 5.22912 14.4115 7.59636C14.6799 12.3226 15.4935 19.1271 17.4468 27.0636C19.378 35.0002 22.703 44.0298 27.5282 53.0168C29.9915 57.4781 32.7982 61.9448 35.9776 66.2412C39.1831 70.513 42.7257 74.6351 46.5402 78.4887C50.3904 82.3073 54.5043 85.8534 58.7733 89.063C63.067 92.2439 67.5248 95.0539 71.9819 97.52C80.96 102.348 89.9711 105.678 97.9008 107.611C105.829 109.564 112.605 110.379 117.327 110.648C119.693 110.855 121.585 110.825 122.852 110.877C124.118 110.903 124.832 110.916 124.832 110.916V113.747Z" fill="#FFE144"/>
</g>
<mask id="mask3_54_11309" style="mask-type:luminance" maskUnits="userSpaceOnUse" x="16" y="0" width="109" height="109">
<path d="M16.8691 0H124.831V108.216H16.8691V0Z" fill="white"/>
</mask>
<g mask="url(#mask3_54_11309)">
<path d="M124.829 108.085C124.829 108.085 124.131 108.072 122.899 108.046C121.664 107.995 119.837 108.025 117.533 107.823C112.931 107.562 106.318 106.767 98.5932 104.864C90.8667 102.98 82.0836 99.7355 73.3355 95.032C68.9924 92.629 64.6458 89.8917 60.4626 86.7933C56.3021 83.666 52.2926 80.2099 48.5406 76.4888C44.8229 72.734 41.3688 68.7211 38.2436 64.5578C35.1473 60.3719 32.4127 56.0232 30.0105 51.676C25.3117 42.9203 22.0698 34.1345 20.1886 26.4018C18.2855 18.6691 17.4932 12.0617 17.233 7.45493C17.0291 5.14947 17.06 3.24497 17.0098 2.00848C16.9831 0.774742 16.9707 0.0195312 16.9707 0.0195312H19.7993C19.7993 0.0195312 19.813 0.755519 19.8364 1.95974C19.8893 3.1619 19.8563 4.97372 20.054 7.22013C20.3067 11.7054 21.0818 18.1638 22.9334 25.6912C24.7645 33.22 27.9233 41.7854 32.4972 50.3118C34.8342 54.5437 37.498 58.7832 40.5134 62.862C43.5569 66.9154 46.9203 70.8254 50.5392 74.4854C54.1944 78.107 58.0995 81.4732 62.1502 84.5208C66.2235 87.5375 70.4527 90.2027 74.6826 92.5439C83.2007 97.1218 91.7469 100.283 99.2695 102.117C106.79 103.969 113.219 104.745 117.701 104.999C119.946 105.196 121.745 105.164 122.948 105.216C124.149 105.24 124.829 105.253 124.829 105.253V108.085Z" fill="#FFE144"/>
</g>
<mask id="mask4_54_11309" style="mask-type:luminance" maskUnits="userSpaceOnUse" x="22" y="0" width="103" height="103">
<path d="M22.4961 0H124.833V102.591H22.4961V0Z" fill="white"/>
</mask>
<g mask="url(#mask4_54_11309)">
<path d="M124.832 102.421C124.832 102.421 124.169 102.409 122.999 102.384C121.829 102.333 120.094 102.367 117.912 102.173C113.55 101.928 107.284 101.172 99.9652 99.3689C92.6479 97.588 84.3295 94.5095 76.0401 90.0579C71.9242 87.7792 67.8062 85.1861 63.8434 82.2503C59.9019 79.2844 56.1011 76.0109 52.5413 72.4855C49.0207 68.925 45.7486 65.1208 42.7854 61.1772C39.8504 57.2089 37.2607 53.0903 34.9847 48.9723C30.5365 40.6739 27.4615 32.3549 25.6799 25.0294C23.8804 17.7045 23.1245 11.4459 22.8787 7.07801C22.6858 4.89408 22.7181 3.0802 22.6679 1.91099C22.6418 0.739728 22.6309 0.0195312 22.6309 0.0195312H25.4602C25.4602 0.0195312 25.4725 0.722564 25.4972 1.86019C25.5473 3.00056 25.5116 4.71694 25.7018 6.84321C25.938 11.0882 26.6767 17.1992 28.424 24.3209C30.1548 31.4404 33.1455 39.5404 37.4701 47.6068C39.6842 51.6107 42.2018 55.6223 45.0544 59.48C47.9366 63.3172 51.1181 67.0171 54.5426 70.4821C58.0008 73.9073 61.6979 77.0923 65.5289 79.9765C69.3839 82.8319 73.3858 85.3536 77.3871 87.5684C85.4466 91.8958 93.526 94.8912 100.641 96.6234C107.756 98.3734 113.838 99.1108 118.08 99.3483C120.203 99.5371 121.91 99.5028 123.048 99.5536C124.185 99.5783 124.832 99.5907 124.832 99.5907V102.421Z" fill="#FFE144"/>
</g>
<mask id="mask5_54_11309" style="mask-type:luminance" maskUnits="userSpaceOnUse" x="28" y="0" width="97" height="97">
<path d="M28.1191 0H124.832V96.7913H28.1191V0Z" fill="white"/>
</mask>
<g mask="url(#mask5_54_11309)">
<path d="M124.832 96.7593C124.832 96.7593 124.202 96.7456 123.098 96.7229C121.992 96.6721 120.35 96.7092 118.288 96.5231C114.163 96.2932 108.247 95.5764 101.336 93.8751C94.4249 92.1944 86.5735 89.2841 78.7413 85.0831C74.8574 82.928 70.9647 80.4804 67.2202 77.7074C63.4977 74.9035 59.907 71.8113 56.5436 68.4808C53.2186 65.1153 50.1256 61.5219 47.3252 57.7966C44.5542 54.0473 42.1087 50.1559 39.9564 46.2673C35.7574 38.4289 32.8505 30.5754 31.1698 23.6576C29.4713 16.7413 28.7532 10.8293 28.5259 6.70246C28.3385 4.63868 28.3749 2.91886 28.3261 1.81281C28.3014 0.704714 28.2891 0.0195312 28.2891 0.0195312H31.1177C31.1177 0.0195312 31.1314 0.688236 31.1534 1.7627C31.2021 2.83716 31.1657 4.46155 31.3484 6.4656C31.5681 10.4737 32.2656 16.2353 33.9133 22.9477C35.5425 29.6623 38.3677 37.2947 42.441 44.9038C44.5309 48.6764 46.9036 52.4607 49.5936 56.1008C52.3144 59.7169 55.3139 63.208 58.5435 66.4767C61.8081 69.707 65.2937 72.7127 68.9064 75.4335C72.5444 78.1262 76.3177 80.5024 80.0876 82.5943C87.6898 86.6704 95.3044 89.4976 102.012 91.1282C108.72 92.7773 114.452 93.4755 118.456 93.6966C120.458 93.8792 122.074 93.8421 123.146 93.8916C124.22 93.9149 124.832 93.928 124.832 93.928V96.7593Z" fill="#FFE144"/>
</g>
<mask id="mask6_54_11309" style="mask-type:luminance" maskUnits="userSpaceOnUse" x="33" y="0" width="92" height="92">
<path d="M33.9199 0H124.833V91.167H33.9199V0Z" fill="white"/>
</mask>
<g mask="url(#mask6_54_11309)">
<path d="M124.833 91.0966C124.833 91.0966 124.239 91.0836 123.196 91.0602C122.157 91.0129 120.606 91.0506 118.665 90.8728C114.78 90.6593 109.213 89.9789 102.708 88.3813C96.2041 86.8008 88.8168 84.0601 81.4452 80.1069C77.79 78.0768 74.1252 75.7741 70.599 73.1631C67.0942 70.524 63.7149 67.6109 60.5465 64.4768C57.413 61.3063 54.5034 57.9229 51.865 54.4167C49.2575 50.8864 46.9554 47.2223 44.928 43.5629C40.9783 36.1845 38.2396 28.7958 36.6598 22.2859C35.0636 15.7767 34.3846 10.2128 34.1718 6.32554C33.994 4.38191 34.0324 2.75546 33.9823 1.71258C33.9596 0.671759 33.9473 0.0195312 33.9473 0.0195312H36.7766C36.7766 0.0195312 36.7903 0.655282 36.8116 1.66452C36.8603 2.67581 36.8198 4.20683 36.9935 6.08937C37.2002 9.8565 37.8599 15.272 39.404 21.576C40.933 27.8827 43.5899 35.049 47.412 42.1988C49.3783 45.7434 51.6068 49.2998 54.1334 52.7202C56.6922 56.118 59.5105 59.4004 62.5437 62.4721C65.6146 65.508 68.8902 68.3311 72.2845 70.8906C75.7022 73.4185 79.2496 75.6519 82.7909 77.6175C89.9338 81.445 97.0829 84.1047 103.384 85.6344C109.685 87.1805 115.069 87.8417 118.834 88.0469C120.715 88.2213 122.236 88.1815 123.244 88.2309C124.255 88.2522 124.833 88.2646 124.833 88.2646V91.0966Z" fill="#FFE144"/>
</g>
<mask id="mask7_54_11309" style="mask-type:luminance" maskUnits="userSpaceOnUse" x="39" y="0" width="86" height="86">
<path d="M39.543 0H124.832V85.5428H39.543V0Z" fill="white"/>
</mask>
<g mask="url(#mask7_54_11309)">
<path d="M124.833 85.4332C124.833 85.4332 124.272 85.4209 123.295 85.3975C122.318 85.3515 120.863 85.3927 119.041 85.2225C115.396 85.0247 110.177 84.3835 104.079 82.8861C97.9826 81.408 91.0621 78.8334 84.1478 75.1315C80.7226 73.227 77.2857 71.0684 73.9765 68.6202C70.6913 66.1424 67.5188 63.4106 64.546 60.4721C61.6103 57.4986 58.8791 54.3247 56.4055 51.0354C53.9593 47.7248 51.8021 44.2886 49.899 40.8579C46.2012 33.9388 43.6266 27.0176 42.1492 20.9135C40.6566 14.8127 40.0153 9.59698 39.8169 5.94931C39.6473 4.12651 39.6879 2.59411 39.6412 1.61577C39.6178 0.636745 39.6055 0.0195312 39.6055 0.0195312H42.4341C42.4341 0.0195312 42.4471 0.620267 42.4691 1.56565C42.5151 2.51104 42.4746 3.95144 42.64 5.71245C42.8295 9.24135 43.4509 14.3068 44.8954 20.2043C46.322 26.1025 48.8108 32.8046 52.385 39.4937C54.225 42.8084 56.31 46.1382 58.6745 49.3403C61.0679 52.5177 63.7063 55.5893 66.5459 58.4681C69.4205 61.309 72.486 63.9509 75.662 66.3463C78.8627 68.7129 82.1829 70.8007 85.4948 72.6427C92.1778 76.2197 98.8621 78.7112 104.755 80.1406C110.647 81.5865 115.685 82.2071 119.21 82.3966C120.97 82.5627 122.399 82.5209 123.344 82.5669C124.29 82.5902 124.833 82.6026 124.833 82.6026V85.4332Z" fill="#FFE144"/>
</g>
<mask id="mask8_54_11309" style="mask-type:luminance" maskUnits="userSpaceOnUse" x="45" y="0" width="80" height="80">
<path d="M45.1699 0H124.834V79.9185H45.1699V0Z" fill="white"/>
</mask>
<g mask="url(#mask8_54_11309)">
<path d="M124.833 79.7712C124.833 79.7712 124.307 79.7588 123.392 79.7375C122.481 79.6909 121.118 79.7341 119.416 79.5714C116.013 79.3902 111.139 78.788 105.45 77.3923C99.7597 76.015 93.3047 73.6073 86.8483 70.1567C83.6517 68.3778 80.4435 66.3628 77.3533 64.0779C74.2857 61.7622 71.3253 59.2109 68.5461 56.4681C65.8068 53.6889 63.2562 50.7265 60.9446 47.6555C58.6618 44.5626 56.6481 41.3557 54.8693 38.1536C51.4221 31.6938 49.0157 25.2374 47.6392 19.541C46.2461 13.8495 45.642 8.97977 45.4628 5.57377C45.3001 3.87111 45.344 2.42934 45.298 1.51828C45.276 0.60379 45.2637 0.0195312 45.2637 0.0195312H48.0923C48.0923 0.0195312 48.1046 0.58594 48.1259 1.46748C48.1733 2.3497 48.1259 3.69535 48.2859 5.3369C48.4575 8.62413 49.0411 13.3428 50.384 18.8318C51.7097 24.3229 54.0324 30.5596 57.3546 36.7887C59.0717 39.8761 61.0119 42.9773 63.213 45.959C65.445 48.9208 67.9028 51.7817 70.5475 54.4634C73.2264 57.1101 76.0818 59.57 79.0401 61.8033C82.0198 64.0065 85.1127 65.9495 88.1947 67.6679C94.4204 70.9936 100.638 73.3189 106.126 74.6454C111.609 75.989 116.3 76.5732 119.585 76.7469C121.226 76.9048 122.562 76.8595 123.443 76.9048C124.323 76.9275 124.833 76.9385 124.833 76.9385V79.7712Z" fill="#FFE144"/>
</g>
<mask id="mask9_54_11309" style="mask-type:luminance" maskUnits="userSpaceOnUse" x="50" y="0" width="75" height="75">
<path d="M50.793 0H124.833V74.1185H50.793V0Z" fill="white"/>
</mask>
<g mask="url(#mask9_54_11309)">
<path d="M124.833 74.1071C124.833 74.1071 124.34 74.0948 123.492 74.0749C122.642 74.0295 121.373 74.0749 119.795 73.9211C116.629 73.757 112.102 73.1919 106.821 71.8998C101.538 70.6215 95.548 68.3826 89.553 65.1805C86.5836 63.5259 83.6026 61.6551 80.7301 59.5343C77.8822 57.3812 75.1298 55.0126 72.5484 52.4641C70.0026 49.8799 67.6347 47.1262 65.4844 44.2763C63.3643 41.401 61.4955 38.4206 59.8416 35.4492C56.6429 29.4474 54.4041 23.4579 53.1285 18.1707C51.8377 12.8849 51.2734 8.36461 51.1072 5.19547C50.9541 3.61571 51.0001 2.268 50.9555 1.41736C50.9335 0.568776 50.9219 0.0195312 50.9219 0.0195312H53.7512C53.7512 0.0195312 53.7622 0.552298 53.7841 1.36999C53.8281 2.1863 53.7814 3.43926 53.931 4.96067C54.0883 8.00761 54.6341 12.3789 55.8747 17.4601C57.0981 22.5454 59.2525 28.3132 62.3269 34.0857C63.9184 36.9411 65.7144 39.8157 67.7535 42.5791C69.8228 45.3192 72.1001 47.972 74.5469 50.4587C77.033 52.909 79.6783 55.1905 82.4176 57.2604C85.1796 59.3009 88.0432 61.0996 90.8979 62.6918C96.6657 65.7689 102.416 67.9254 107.497 69.1516C112.573 70.3935 116.917 70.9393 119.963 71.0966C121.482 71.2462 122.723 71.1989 123.541 71.2435C124.358 71.2655 124.833 71.2765 124.833 71.2765V74.1071Z" fill="#FFE144"/>
</g>
<mask id="mask10_54_11309" style="mask-type:luminance" maskUnits="userSpaceOnUse" x="56" y="0" width="69" height="69">
<path d="M56.416 0H124.832V68.4942H56.416V0Z" fill="white"/>
</mask>
<g mask="url(#mask10_54_11309)">
<path d="M124.831 68.4451C124.831 68.4451 124.372 68.4341 123.587 68.4128C122.803 68.3689 121.627 68.4176 120.168 68.2714C117.242 68.1217 113.062 67.5945 108.19 66.4046C103.313 65.2293 97.79 63.1559 92.2516 60.2044C89.5129 58.6747 86.7598 56.9494 84.1049 54.9907C81.4774 53.0017 78.9331 50.8116 76.5466 48.4601C74.1965 46.0702 72.0085 43.5272 70.0209 40.8943C68.0635 38.2401 66.3396 35.4863 64.8106 32.7449C61.8625 27.2037 59.7912 21.6797 58.6165 16.7983C57.426 11.9203 56.9008 7.74809 56.7511 4.81924C56.6049 3.35894 56.6536 2.10666 56.6104 1.32124C56.5884 0.534448 56.5781 0.0195312 56.5781 0.0195312H59.4074C59.4074 0.0195312 59.417 0.516598 59.439 1.27044C59.4809 2.02496 59.4314 3.18387 59.5749 4.58238C59.7143 7.39245 60.221 11.415 61.3607 16.0884C62.4846 20.7666 64.4721 26.0688 67.2959 31.3807C68.7617 34.0082 70.4143 36.6548 72.2906 39.1985C74.1965 41.7223 76.2926 44.1644 78.5452 46.4554C80.8355 48.7101 83.2714 50.8089 85.7918 52.7175C88.3361 54.5952 90.9732 56.2484 93.5979 57.717C98.905 60.5428 104.192 62.5332 108.866 63.6577C113.535 64.7961 117.53 65.3041 120.336 65.4455C121.734 65.5883 122.884 65.5375 123.636 65.5815C124.39 65.6028 124.831 65.6137 124.831 65.6137V68.4451Z" fill="#FFE144"/>
</g>
<mask id="mask11_54_11309" style="mask-type:luminance" maskUnits="userSpaceOnUse" x="62" y="0" width="63" height="63">
<path d="M62.2148 0H124.831V62.8699H62.2148V0Z" fill="white"/>
</mask>
<g mask="url(#mask11_54_11309)">
<path d="M124.83 62.7817C124.83 62.7817 124.406 62.7707 123.685 62.7501C122.965 62.7082 121.881 62.7583 120.544 62.621C117.856 62.4865 114.025 61.999 109.56 60.9108C105.088 59.835 100.031 57.9305 94.9515 55.2296C92.4428 53.8249 89.9163 52.2438 87.4818 50.4477C85.0706 48.6201 82.739 46.6126 80.5462 44.4555C78.3925 42.2612 76.3829 39.9269 74.5587 37.5151C72.7648 35.0778 71.185 32.5533 69.781 30.0412C67.0828 24.958 65.1783 19.9001 64.1046 15.4265C63.0164 10.957 62.5289 7.13293 62.3957 4.44301C62.2577 3.10354 62.3071 1.94189 62.2666 1.22306C62.2454 0.50012 62.2344 0.0195312 62.2344 0.0195312H65.0623C65.0623 0.0195312 65.074 0.48227 65.0953 1.17294C65.1364 1.86019 65.085 2.92847 65.2181 4.20683C65.3424 6.77592 65.8127 10.4497 66.8494 14.7173C67.8731 18.9863 69.6917 23.8231 72.265 28.6777C73.6085 31.0738 75.1155 33.4905 76.8285 35.8193C78.5717 38.1227 80.4885 40.3554 82.5461 42.45C84.6394 44.5097 86.868 46.4293 89.1693 48.1738C91.4933 49.8889 93.9045 51.3986 96.2978 52.7408C101.148 55.3181 105.968 57.1396 110.235 58.1639C114.498 59.202 118.144 59.6702 120.712 59.7952C121.989 59.9297 123.046 59.8782 123.733 59.9188C124.423 59.9394 124.83 59.9503 124.83 59.9503V62.7817Z" fill="#FFE144"/>
</g>
<mask id="mask12_54_11309" style="mask-type:luminance" maskUnits="userSpaceOnUse" x="67" y="0" width="58" height="58">
<path d="M67.8379 0H124.83V57.2457H67.8379V0Z" fill="white"/>
</mask>
<g mask="url(#mask12_54_11309)">
<path d="M124.833 57.119C124.833 57.119 124.443 57.1087 123.785 57.0895C123.131 57.0476 122.14 57.1004 120.922 56.9707C118.475 56.8533 114.992 56.4029 110.934 55.417C106.87 54.4435 102.278 52.7051 97.6567 50.2548C95.3773 48.9737 93.0788 47.5374 90.8626 45.9048C88.6704 44.2406 86.5476 42.413 84.5497 40.4515C82.5909 38.4536 80.764 36.3287 79.1005 34.1345C77.4699 31.9162 76.035 29.619 74.7546 27.3369C72.3057 22.7123 70.57 18.1206 69.5965 14.0541C68.612 9.99244 68.1609 6.51572 68.0435 4.06678C67.9144 2.84814 67.9687 1.77849 67.9268 1.12557C67.9048 0.466479 67.8945 0.0195312 67.8945 0.0195312H70.7238C70.7238 0.0195312 70.7341 0.449315 70.7547 1.07545C70.7952 1.69885 70.7417 2.67238 70.8673 3.8306C70.9758 6.1594 71.4063 9.48713 72.3414 13.3456C73.2648 17.2075 74.9159 21.5781 77.2399 25.9727C78.4579 28.1408 79.8207 30.3289 81.3709 32.4373C82.9514 34.5231 84.6877 36.5457 86.5482 38.4467C88.4479 40.31 90.465 42.0477 92.5494 43.6309C94.6558 45.1825 96.837 46.5474 99.0037 47.766C103.394 50.0914 107.749 51.746 111.609 52.6687C115.464 53.6045 118.763 54.037 121.092 54.1455C122.248 54.2718 123.212 54.2176 123.835 54.2567C124.461 54.2773 124.833 54.2883 124.833 54.2883V57.119Z" fill="#FFE144"/>
</g>
<mask id="mask13_54_11309" style="mask-type:luminance" maskUnits="userSpaceOnUse" x="73" y="0" width="52" height="52">
<path d="M73.4648 0H124.832V51.6214H73.4648V0Z" fill="white"/>
</mask>
<g mask="url(#mask13_54_11309)">
<path d="M124.832 51.457C124.832 51.457 124.476 51.446 123.883 51.4274C123.292 51.3862 122.394 51.4419 121.297 51.3196C119.09 51.2194 115.954 50.8075 112.302 49.9232C108.646 49.0499 104.521 47.4791 100.359 45.28C98.3079 44.1225 96.2365 42.8318 94.24 41.3605C92.2648 39.8597 90.3514 38.2147 88.5499 36.4482C86.7854 34.6439 85.1404 32.7298 83.6389 30.7546C82.1704 28.7553 80.8803 26.684 79.7249 24.6332C77.5272 20.4679 75.9557 16.3417 75.0851 12.6824C74.2008 9.02783 73.7896 5.89919 73.69 3.69054C73.5672 2.59274 73.6214 1.61715 73.5823 1.02465C73.5637 0.431465 73.5527 0.0195312 73.5527 0.0195312H76.3807C76.3807 0.0195312 76.391 0.414987 76.4109 0.977276C76.45 1.53545 76.393 2.41698 76.5118 3.453C76.6052 5.54356 76.9965 8.52252 77.83 11.9731C78.6525 15.4279 80.1368 19.3323 82.2102 23.2697C83.3025 25.2065 84.5211 27.168 85.91 29.0574C87.3278 30.9248 88.8828 32.7366 90.5491 34.4414C92.2524 36.1097 94.0602 37.6668 95.9255 39.088C97.8142 40.4762 99.7682 41.6962 101.705 42.7906C105.636 44.8653 109.526 46.3531 112.978 47.1749C116.425 48.0091 119.378 48.4018 121.466 48.4952C122.502 48.6132 123.374 48.5563 123.931 48.5961C124.492 48.6146 124.832 48.6249 124.832 48.6249V51.457Z" fill="#FFE144"/>
</g>
<mask id="mask14_54_11309" style="mask-type:luminance" maskUnits="userSpaceOnUse" x="79" y="0" width="46" height="46">
<path d="M79.0879 0H124.831V45.8214H79.0879V0Z" fill="white"/>
</mask>
<g mask="url(#mask14_54_11309)">
<path d="M124.829 45.7936C124.829 45.7936 124.508 45.784 123.979 45.7634C123.452 45.7249 122.647 45.784 121.672 45.67C119.703 45.5842 116.915 45.2107 113.671 44.428C110.423 43.6563 106.76 42.253 103.057 40.3032C101.236 39.2713 99.393 38.1247 97.6142 36.8175C95.858 35.4794 94.1546 34.0136 92.5488 32.4435C90.98 30.8363 89.5142 29.1309 88.1768 27.3733C86.8696 25.593 85.7244 23.7517 84.6925 21.9282C82.7447 18.2222 81.3428 14.5622 80.5718 11.3106C79.7898 8.06459 79.4163 5.28404 79.3305 3.31294C79.2172 2.33734 79.277 1.45581 79.2358 0.927158C79.2179 0.39851 79.209 0.0195312 79.209 0.0195312H82.0383C82.0383 0.0195312 82.0465 0.379286 82.0651 0.877726C82.1042 1.37411 82.0445 2.1609 82.1543 3.07745C82.2305 4.92772 82.5862 7.55791 83.316 10.6007C84.0382 13.6483 85.355 17.088 87.1792 20.5647C88.1466 22.2735 89.2203 24.0064 90.4472 25.6795C91.7015 27.3245 93.0753 28.929 94.5473 30.4381C96.0564 31.9107 97.6554 33.2866 99.3003 34.5437C100.97 35.7699 102.697 36.8464 104.404 37.8165C107.877 39.6407 111.302 40.9595 114.347 41.6811C117.387 42.413 119.992 42.7679 121.84 42.8455C122.755 42.9553 123.534 42.8942 124.029 42.9334C124.525 42.9519 124.829 42.9622 124.829 42.9622V45.7936Z" fill="#FFE144"/>
</g>
<mask id="mask15_54_11309" style="mask-type:luminance" maskUnits="userSpaceOnUse" x="84" y="0" width="41" height="41">
<path d="M84.7109 0H124.83V40.1971H84.7109V0Z" fill="white"/>
</mask>
<g mask="url(#mask15_54_11309)">
<path d="M124.831 40.1309C124.831 40.1309 124.543 40.1206 124.079 40.1027C123.617 40.0643 122.904 40.1254 122.05 40.0196C120.321 39.9503 117.881 39.6146 115.043 38.9342C112.203 38.2634 109.006 37.0283 105.762 35.3291C104.17 34.4208 102.553 33.4184 100.994 32.2746C99.4571 31.0985 97.9611 29.8147 96.5509 28.4395C95.1778 27.0273 93.8925 25.5326 92.7192 23.9934C91.574 22.4328 90.5737 20.8187 89.6675 19.2232C87.9689 15.9771 86.7338 12.7826 86.0644 9.93957C85.3847 7.09998 85.0476 4.66751 84.9804 2.93739C84.8739 2.08057 84.933 1.29103 84.8959 0.83104C84.8781 0.363496 84.8691 0.0195312 84.8691 0.0195312H87.6971C87.6971 0.0195312 87.7074 0.347018 87.7238 0.780235C87.7623 1.20933 87.6998 1.90481 87.8035 2.69984C87.8625 4.31119 88.179 6.59467 88.8086 9.22899C89.4279 11.8702 90.5785 14.8423 92.1521 17.8597C92.9959 19.3392 93.9248 20.8455 94.9876 22.2976C96.0799 23.727 97.2745 25.1193 98.5501 26.4334C99.8642 27.7118 101.253 28.907 102.679 30.0007C104.131 31.0642 105.631 31.9952 107.109 32.8396C110.123 34.4146 113.08 35.5659 115.718 36.1873C118.352 36.8175 120.608 37.1327 122.219 37.1938C123.013 37.2968 123.699 37.2329 124.128 37.2714C124.562 37.2906 124.831 37.3002 124.831 37.3002V40.1309Z" fill="#FFE144"/>
</g>
<mask id="mask16_54_11309" style="mask-type:luminance" maskUnits="userSpaceOnUse" x="90" y="0" width="35" height="35">
<path d="M90.5117 0H124.831V34.5729H90.5117V0Z" fill="white"/>
</mask>
<g mask="url(#mask16_54_11309)">
<path d="M124.831 34.4675C124.831 34.4675 124.579 34.4592 124.177 34.44C123.779 34.4036 123.159 34.4675 122.426 34.37C120.936 34.315 118.842 34.0191 116.414 33.4397C113.979 32.8712 111.25 31.8022 108.464 30.3536C107.102 29.5716 105.711 28.7127 104.37 27.7303C103.053 26.7183 101.768 25.6136 100.552 24.4348C99.3723 23.2176 98.2691 21.9323 97.2584 20.6135C96.2767 19.2712 95.4192 17.8844 94.6385 16.5188C93.1885 13.7328 92.1223 11.003 91.5532 8.56783C90.9737 6.13537 90.6771 4.05167 90.6249 2.55979C90.5254 1.82517 90.5913 1.12832 90.5529 0.730116C90.5364 0.328481 90.5254 0.0195312 90.5254 0.0195312H93.354C93.354 0.0195312 93.3636 0.312004 93.3815 0.682744C93.4178 1.04799 93.3533 1.64941 93.4467 2.32361C93.4927 3.69466 93.7701 5.63006 94.2973 7.85725C94.8157 10.0899 95.8002 12.5965 97.1218 15.1553C97.842 16.4049 98.6267 17.6839 99.5275 18.917C100.457 20.1274 101.47 21.3103 102.552 22.4294C103.67 23.5128 104.849 24.5261 106.057 25.4578C107.288 26.3585 108.562 27.1433 109.811 27.8648C112.366 29.1885 114.858 30.173 117.09 30.6921C119.315 31.2207 121.225 31.4988 122.594 31.5434C123.268 31.6375 123.861 31.5743 124.226 31.6107C124.595 31.6265 124.831 31.6361 124.831 31.6361V34.4675Z" fill="#FFE144"/>
</g>
<mask id="mask17_54_11309" style="mask-type:luminance" maskUnits="userSpaceOnUse" x="96" y="0" width="29" height="29">
<path d="M96.1387 0H124.833V28.9486H96.1387V0Z" fill="white"/>
</mask>
<g mask="url(#mask17_54_11309)">
<path d="M124.831 28.8047C124.831 28.8047 124.612 28.7958 124.275 28.778C123.941 28.7436 123.417 28.8089 122.802 28.7196C121.552 28.6819 119.807 28.423 117.785 27.9466C115.758 27.4763 113.492 26.5762 111.166 25.3781C110.032 24.7197 108.873 24.0064 107.748 23.188C106.649 22.3374 105.573 21.4147 104.553 20.4295C103.57 19.4085 102.648 18.3341 101.798 17.2329C100.978 16.1103 100.266 14.9494 99.6095 13.8152C98.4108 11.4864 97.5107 9.22487 97.0425 7.19541C96.566 5.17213 96.3085 3.43515 96.2701 2.18218C96.1808 1.56977 96.2454 0.966291 96.2111 0.631939C96.1946 0.295527 96.1836 0.0195312 96.1836 0.0195312H99.0136C99.0136 0.0195312 99.0232 0.279736 99.0397 0.583193C99.0747 0.885278 99.0067 1.39402 99.0939 1.94738C99.1221 3.07882 99.3623 4.66545 99.7887 6.4862C100.205 8.31244 101.02 10.3522 102.093 12.4503C102.689 13.4719 103.328 14.523 104.067 15.5364C104.835 16.5284 105.666 17.5006 106.552 18.4247C107.475 19.3131 108.444 20.1445 109.435 20.9135C110.45 21.6522 111.493 22.2935 112.512 22.8901C114.61 23.9638 116.636 24.7815 118.46 25.1983C120.279 25.6253 121.84 25.8656 122.972 25.8938C123.524 25.9809 124.023 25.913 124.323 25.948C124.631 25.9638 124.831 25.9741 124.831 25.9741V28.8047Z" fill="#FFE144"/>
</g>
</svg>
