<svg width="367" height="254" viewBox="0 0 367 254" fill="none" xmlns="http://www.w3.org/2000/svg">
<path d="M301.271 169.947C264.97 216.248 198.007 224.354 151.707 188.053C105.406 151.752 168.236 132.691 204.537 86.3908C240.838 40.0901 236.865 -15.918 283.165 20.3833C329.466 56.6846 337.572 123.647 301.271 169.947Z" fill="#FFE144"/>
<path d="M50.057 117.847C76.9217 144.711 120.478 144.711 147.343 117.847C154.079 111.11 156.281 105.823 155.768 101.32C155.25 96.7761 151.936 92.6562 146.675 88.3471C142.732 85.1166 137.842 81.8914 132.502 78.3696C130.737 77.2059 128.923 76.0098 127.078 74.7704C119.687 69.8044 111.863 64.185 104.979 57.3006C98.0913 50.4133 92.8222 42.9386 88.3779 36.0648C87.0501 34.0112 85.8015 32.0209 84.608 30.1185C81.7805 25.6114 79.2622 21.5973 76.7337 18.4028C73.138 13.86 69.759 11.2966 65.8094 11.2632C61.8071 11.2294 56.8356 13.7822 50.057 20.5608C23.1923 47.4255 23.1923 90.9819 50.057 117.847Z" stroke="#FF4638" stroke-width="2"/>
</svg>
