<svg width="62" height="62" viewBox="0 0 62 62" fill="none" xmlns="http://www.w3.org/2000/svg">
<path d="M51.6835 32.3191C51.5478 32.1252 51.3247 32.0088 51.0823 32.0088H44.9538C44.5563 32.0088 44.2266 32.3385 44.2266 32.7361V41.0367C44.2266 41.4342 44.5563 41.7639 44.9538 41.7639H56.8423C57.1138 41.7639 57.366 41.6088 57.4823 41.3761C57.6084 41.1336 57.589 40.8427 57.4338 40.6197L51.6835 32.3191ZM45.6811 40.3094V33.4633H50.7041L55.4557 40.3094H45.6811Z" fill="#FF4638"/>
<path d="M13.9427 49.5605C10.733 49.5605 8.12451 52.169 8.12451 55.3787C8.12451 58.5884 10.733 61.1969 13.9427 61.1969C17.1524 61.1969 19.7609 58.5884 19.7609 55.3787C19.7609 52.169 17.1524 49.5605 13.9427 49.5605ZM13.9427 59.7424C11.5378 59.7424 9.57906 57.7836 9.57906 55.3787C9.57906 52.9739 11.5378 51.0151 13.9427 51.0151C16.3475 51.0151 18.3063 52.9739 18.3063 55.3787C18.3063 57.7836 16.3475 59.7424 13.9427 59.7424Z" fill="#FF4638"/>
<path d="M13.9428 52.4688C12.3428 52.4688 11.0337 53.7778 11.0337 55.3778C11.0337 56.9778 12.3428 58.2869 13.9428 58.2869C15.5428 58.2869 16.8519 56.9778 16.8519 55.3778C16.8519 53.7778 15.5428 52.4688 13.9428 52.4688ZM13.9428 56.8324C13.1379 56.8324 12.4882 56.1827 12.4882 55.3778C12.4882 54.573 13.1379 53.9233 13.9428 53.9233C14.7476 53.9233 15.3973 54.573 15.3973 55.3778C15.3973 56.1827 14.7476 56.8324 13.9428 56.8324Z" fill="#FF4638"/>
<path d="M51.0628 49.5596C47.8531 49.5596 45.2446 52.1681 45.2446 55.3778C45.2446 58.5874 47.8531 61.1959 51.0628 61.1959C54.2725 61.1959 56.881 58.5874 56.881 55.3778C56.881 52.1681 54.2725 49.5596 51.0628 49.5596ZM51.0628 59.7414C48.658 59.7414 46.6992 57.7826 46.6992 55.3778C46.6992 52.9729 48.658 51.0141 51.0628 51.0141C53.4677 51.0141 55.4264 52.9729 55.4264 55.3778C55.4264 57.7826 53.4774 59.7414 51.0628 59.7414Z" fill="#FF4638"/>
<path d="M51.0629 52.4688C49.4629 52.4688 48.1538 53.7778 48.1538 55.3778C48.1538 56.9778 49.4629 58.2869 51.0629 58.2869C52.6629 58.2869 53.972 56.9778 53.972 55.3778C53.972 53.7778 52.6726 52.4688 51.0629 52.4688ZM51.0629 56.8324C50.2581 56.8324 49.6084 56.1827 49.6084 55.3778C49.6084 54.573 50.2581 53.9233 51.0629 53.9233C51.8677 53.9233 52.5174 54.573 52.5174 55.3778C52.5174 56.1827 51.8677 56.8324 51.0629 56.8324Z" fill="#FF4638"/>
<path d="M47.7564 44.7312C47.7564 44.3336 47.4267 44.0039 47.0291 44.0039H44.76C44.3624 44.0039 44.0327 44.3336 44.0327 44.7312C44.0327 45.1288 44.3624 45.4585 44.76 45.4585H47.0291C47.4364 45.4585 47.7564 45.1385 47.7564 44.7312Z" fill="#FF4638"/>
<path d="M14.2144 45.0804H21.0119H27.8095C28.2071 45.0804 28.5368 44.7507 28.5368 44.3531V39.8246H31.6883C31.9792 39.8246 32.241 39.6598 32.3574 39.3882C32.4738 39.1167 32.4253 38.8161 32.2313 38.6028L28.3526 34.3167C28.3041 34.2585 28.2362 34.2198 28.178 34.1907L30.195 32.6488C30.961 32.0573 31.2907 31.107 31.0386 30.1664C30.7962 29.2355 30.0495 28.5761 29.0992 28.4404C27.0629 28.1494 24.6483 28.8864 22.6604 30.4185C22.4762 30.5543 22.321 30.7094 22.1465 30.8646C22.1271 30.884 22.1077 30.8937 22.0883 30.9131C21.041 31.8343 20.2168 32.9301 19.6835 34.0937H14.2144C14.0107 34.0937 13.8168 34.181 13.6713 34.3361L9.79255 38.6222C9.59861 38.8355 9.55012 39.1458 9.66649 39.4076C9.78285 39.6694 10.0447 39.844 10.3356 39.844H13.4871V44.3725C13.4871 44.7507 13.8071 45.0804 14.2144 45.0804ZM14.9416 39.8246H17.1332C17.3368 39.8246 17.5307 39.7373 17.6762 39.5822L20.2847 36.6925V43.6161H14.9416V39.8246ZM27.0726 43.6258H21.7295V36.7022L24.338 39.5919C24.4738 39.747 24.6677 39.8343 24.881 39.8343H27.0726V43.6258ZM30.0398 38.3701H27.7998H25.201L22.641 35.5385H27.4798L30.0398 38.3701ZM22.8932 32.1058C23.1938 32.0282 23.5041 32.0476 23.7853 32.1931C24.0859 32.3482 24.3089 32.6101 24.4156 32.9301C24.5125 33.2404 24.8035 33.4343 25.1041 33.4343C25.1816 33.4343 25.2495 33.4246 25.3271 33.3955C25.7053 33.2694 25.9186 32.8622 25.7925 32.484C25.5695 31.8149 25.1138 31.2622 24.4932 30.9325C24.6095 30.8646 24.7356 30.787 24.8616 30.7191C25.5307 30.5058 26.2483 30.8743 26.4616 31.5337C26.5586 31.844 26.8495 32.0379 27.1501 32.0379C27.2277 32.0379 27.2956 32.0282 27.3732 31.9991C27.7513 31.8731 27.9647 31.4658 27.8386 31.0876C27.6932 30.6319 27.4216 30.244 27.0822 29.9337C27.7029 29.8173 28.3041 29.7882 28.8762 29.8755C29.4192 29.9531 29.5744 30.3991 29.6132 30.5349C29.6519 30.6707 29.7295 31.1555 29.2835 31.4949L25.8992 34.084H21.2738C21.7004 33.3664 22.2435 32.6973 22.8932 32.1058ZM14.5344 35.5385H19.3635L16.8035 38.3701H14.2047H11.9647L14.5344 35.5385Z" fill="#FF4638"/>
<path d="M46.0111 26.8788C46.1177 26.937 46.2438 26.9758 46.3698 26.9758C46.4959 26.9758 46.6123 26.9467 46.7286 26.8788C46.9323 26.7624 51.8195 24.0085 55.9989 20.0424C56.2898 19.7612 56.2995 19.3055 56.028 19.0145C55.7468 18.7236 55.2911 18.7139 55.0001 18.9855C51.5868 22.2242 47.5723 24.6873 46.3795 25.3952C44.1686 24.0861 32.4256 16.8133 32.4256 9.73455C32.4256 5.61334 35.7807 2.24849 39.9117 2.24849C42.2389 2.24849 44.3917 3.30546 45.8074 5.14788C45.9432 5.32243 46.1565 5.4291 46.3795 5.4291C46.5929 5.40001 46.8159 5.32243 46.9517 5.14788C48.3771 3.30546 50.5298 2.24849 52.8571 2.24849C56.9783 2.24849 60.3432 5.60364 60.3432 9.73455C60.3432 12.0424 59.0826 14.6024 56.5808 17.3661C56.3092 17.6667 56.3383 18.1224 56.6292 18.3939C56.9298 18.6655 57.3856 18.6364 57.6571 18.3455C60.4014 15.3103 61.7977 12.4206 61.7977 9.73455C61.7977 4.80849 57.7929 0.793945 52.8571 0.793945C50.3747 0.793945 48.0571 1.80243 46.3698 3.58667C44.6923 1.80243 42.3844 0.793945 39.8923 0.793945C34.9662 0.793945 30.9517 4.79879 30.9517 9.73455C30.9517 18.3649 45.4001 26.5394 46.0111 26.8788Z" fill="#FF4638"/>
<path d="M44.6044 20.6436H48.1341C48.5316 20.6436 48.8613 20.3139 48.8613 19.9163V16.3867H52.391C52.7886 16.3867 53.1183 16.057 53.1183 15.6594V12.1297C53.1183 11.7321 52.7886 11.4024 52.391 11.4024H48.8613V7.86301C48.8613 7.46544 48.5316 7.13574 48.1341 7.13574H44.6044C44.2068 7.13574 43.8771 7.46544 43.8771 7.86301V11.3927H40.3474C39.9498 11.3927 39.6201 11.7224 39.6201 12.12V15.6497C39.6201 16.0473 39.9498 16.377 40.3474 16.377H43.8771V19.9067C43.8771 20.3139 44.2068 20.6436 44.6044 20.6436ZM41.0747 14.9321V12.857H44.6044C45.0019 12.857 45.3316 12.5273 45.3316 12.1297V8.59029H47.4068V12.12C47.4068 12.5176 47.7365 12.8473 48.1341 12.8473H51.6638V14.9224H48.1341C47.7365 14.9224 47.4068 15.2521 47.4068 15.6497V19.1794H45.3316V15.6497C45.3316 15.2521 45.0019 14.9224 44.6044 14.9224H41.0747V14.9321Z" fill="#FF4638"/>
<path d="M53.7101 28.44C53.5743 28.246 53.3513 28.1297 53.1089 28.1297H41.8022V26.3454C41.8022 25.9479 41.4725 25.6182 41.0749 25.6182C40.6774 25.6182 40.3477 25.9479 40.3477 26.3454V46.5345H1.66646V26.7721C1.66646 26.3745 1.33676 26.0448 0.939187 26.0448C0.541611 26.0448 0.211914 26.3745 0.211914 26.7721V47.2521V52.9733C0.211914 54.4473 1.40464 55.64 2.87858 55.64H5.97191C6.36949 55.64 6.69919 55.3103 6.69919 54.9127C6.69919 54.5151 6.36949 54.1854 5.97191 54.1854H2.87858C2.20949 54.1854 1.66646 53.6424 1.66646 52.9733V47.9794H40.3477V54.1854H21.9234C21.5259 54.1854 21.1962 54.5151 21.1962 54.9127C21.1962 55.3103 21.5259 55.64 21.9234 55.64H41.0749H41.0846H43.0919C43.4895 55.64 43.8192 55.3103 43.8192 54.9127C43.8192 54.5151 43.4895 54.1854 43.0919 54.1854H41.8022V29.5842H52.7307L60.3331 40.5321V54.1951H59.0434C58.6459 54.1951 58.3162 54.5248 58.3162 54.9224C58.3162 55.32 58.6459 55.6497 59.0434 55.6497H61.0604C61.458 55.6497 61.7877 55.32 61.7877 54.9224V40.2994C61.7877 40.1539 61.7392 40.0085 61.6616 39.8824L53.7101 28.44Z" fill="#FF4638"/>
<path d="M17.9667 32.629C18.3642 32.629 18.6939 32.2993 18.6939 31.9018V31.2133H20.7012C21.0988 31.2133 21.4285 30.8836 21.4285 30.486V29.0799C21.4285 26.7139 19.4988 24.7842 17.1327 24.7842C16.7351 24.7842 16.4055 25.1139 16.4055 25.5115C16.4055 26.5975 15.523 27.4702 14.4467 27.4702C13.3703 27.4702 12.4879 26.5878 12.4879 25.5115C12.4879 25.1139 12.1582 24.7842 11.7606 24.7842C9.39454 24.7842 7.46484 26.7139 7.46484 29.0799V30.486C7.46484 30.8836 7.79454 31.2133 8.19212 31.2133H10.1897V34.0157C10.1897 34.4133 10.5194 34.743 10.917 34.743C11.3145 34.743 11.6442 34.4133 11.6442 34.0157V30.486V29.4581C11.6442 29.0605 11.3145 28.7308 10.917 28.7308C10.5194 28.7308 10.1897 29.0605 10.1897 29.4581V29.7587H8.91939V29.0799C8.91939 27.7321 9.86969 26.5975 11.1303 26.3066C11.4891 27.8096 12.8467 28.9248 14.4564 28.9248C16.0661 28.9248 17.4139 27.8096 17.7824 26.3066C19.043 26.5975 19.9933 27.7321 19.9933 29.0799V29.7587H18.6842V29.4581C18.6842 29.0605 18.3545 28.7308 17.957 28.7308C17.5594 28.7308 17.2297 29.0605 17.2297 29.4581V30.486V30.5054V31.8921C17.2394 32.2993 17.5594 32.629 17.9667 32.629Z" fill="#FF4638"/>
<path d="M0.939187 24.4647C1.33676 24.4647 1.66646 24.135 1.66646 23.7374V21.4489C1.66646 20.7798 2.20949 20.2368 2.87858 20.2368H33.2107C33.6083 20.2368 33.938 19.9071 33.938 19.5095C33.938 19.1119 33.6083 18.7822 33.2107 18.7822H2.87858C1.40464 18.7822 0.211914 19.975 0.211914 21.4489V23.7374C0.211914 24.1447 0.541611 24.4647 0.939187 24.4647Z" fill="#FF4638"/>
</svg>
