<svg width="64" height="64" viewBox="0 0 64 64" fill="none" xmlns="http://www.w3.org/2000/svg">
<path d="M50.1433 44.3921L40.5239 50.1036C39.913 49.3085 38.9627 48.7945 37.8863 48.7945H32.5918C32.2233 48.7945 31.8451 48.746 31.4863 48.6394L28.6354 47.8248C28.1505 47.6891 27.6366 47.6115 27.1324 47.6115H26.5311C25.3384 47.6115 24.1651 48.0091 23.2148 48.7267L21.8863 49.7351C21.3821 50.1133 20.8002 50.3654 20.1796 50.4818V49.5606C20.1796 49.163 19.8499 48.8333 19.4524 48.8333H1.7263C1.32872 48.8333 0.999023 49.163 0.999023 49.5606C0.999023 49.9582 1.32872 50.2879 1.7263 50.2879H18.7445V51.2867V58.4818V61.323H1.7263C1.32872 61.323 0.999023 61.6527 0.999023 62.0503C0.999023 62.4479 1.32872 62.7776 1.7263 62.7776H19.4718C19.8693 62.7776 20.199 62.4479 20.199 62.0503V59.9267L21.7214 61.0612C22.6621 61.7594 23.816 62.1473 24.9893 62.1473H34.3954C35.7724 62.1473 37.0815 61.6333 38.0511 60.7412L46.0124 54.5157C46.3324 54.2733 46.3808 53.8079 46.1384 53.4976C45.896 53.1776 45.4305 53.1194 45.1202 53.3715L37.1105 59.6357C36.3736 60.3145 35.4039 60.6927 34.3954 60.6927H24.9893C24.1263 60.6927 23.273 60.4115 22.5942 59.8976L20.199 58.1133V51.9751C21.1299 51.8491 22.0318 51.4806 22.7881 50.9085L24.1166 49.9C24.8051 49.3667 25.6681 49.0757 26.5408 49.0757H27.1421C27.5105 49.0757 27.8887 49.1242 28.2475 49.2309L31.0984 50.0454C31.5833 50.1812 32.0875 50.2588 32.6014 50.2588H37.896C38.9433 50.2588 39.7966 51.1121 39.7966 52.1594C39.7966 53.2067 38.9433 54.06 37.896 54.06H32.7566C32.359 54.06 32.0293 54.3897 32.0293 54.7873C32.0293 55.1848 32.359 55.5145 32.7566 55.5145H37.896C39.7481 55.5145 41.2511 54.0115 41.2511 52.1594C41.2511 51.9073 41.2221 51.6648 41.1639 51.4321L50.8899 45.6527C51.4039 45.3521 52.0439 45.4297 52.4608 45.8563C52.7033 46.1085 52.839 46.4382 52.8293 46.7873C52.8196 47.1363 52.6742 47.4563 52.4608 47.66L47.1857 51.7909C46.8657 52.0333 46.8172 52.4988 47.0596 52.8091C47.2051 52.9933 47.4184 53.0903 47.6318 53.0903C47.7869 53.0903 47.9421 53.0418 48.0778 52.9351L53.4015 48.7751C53.9542 48.2709 54.2645 47.5824 54.2839 46.8357C54.3033 46.0891 54.0221 45.3812 53.4984 44.8479C52.6063 43.9267 51.2293 43.7521 50.1433 44.3921Z" fill="#FF4638"/>
<path d="M62.2741 13.7012H57.0959C56.6983 13.7012 56.3687 14.0309 56.3687 14.4284C56.3687 14.826 56.6983 15.1557 57.0959 15.1557H62.2741C62.6717 15.1557 63.0014 14.826 63.0014 14.4284C63.0014 14.0309 62.6814 13.7012 62.2741 13.7012Z" fill="#FF4638"/>
<path d="M53.9734 13.7016H45.2655V12.7028V5.50767V2.66646H62.2837C62.6813 2.66646 63.011 2.33676 63.011 1.93919C63.011 1.54161 62.6813 1.21191 62.2837 1.21191H44.5382C44.1406 1.21191 43.811 1.54161 43.811 1.93919V4.06282L42.2788 2.91858C41.3382 2.2204 40.1843 1.83252 39.011 1.83252H29.6049C28.2279 1.83252 26.9188 2.34646 25.9491 3.23858L20.3637 7.61191C20.0437 7.85434 19.9952 8.31979 20.2376 8.6301C20.48 8.9501 20.9455 9.00828 21.2558 8.75616L26.8897 4.34404C27.6267 3.66525 28.5964 3.28707 29.6049 3.28707H39.011C39.874 3.28707 40.7273 3.56828 41.4061 4.08222L43.8013 5.86646V12.0143C42.8703 12.1404 41.9685 12.5089 41.2219 13.081L39.8934 14.0895C39.2049 14.6228 38.3419 14.9137 37.4691 14.9137H36.8679C36.4994 14.9137 36.131 14.8652 35.7722 14.7586L32.9213 13.944C32.4364 13.8083 31.9322 13.7307 31.4182 13.7307H26.1237C25.0764 13.7307 24.2231 12.8774 24.2231 11.8301C24.2231 10.7828 25.0764 9.92949 26.1237 9.92949H31.2631C31.6607 9.92949 31.9904 9.59979 31.9904 9.20222C31.9904 8.80464 31.6607 8.47494 31.2631 8.47494H26.1237C24.2716 8.47494 22.7685 9.97797 22.7685 11.8301C22.7685 12.0822 22.7976 12.3246 22.8558 12.5574L13.1297 18.3368C12.6255 18.6374 11.9758 18.5598 11.5588 18.1331C11.3164 17.881 11.1807 17.5513 11.1903 17.2022C11.2 16.8531 11.3455 16.5331 11.5588 16.3295L18.8703 10.6083C19.1903 10.3659 19.2388 9.9004 18.9964 9.5901C18.754 9.2701 18.2885 9.21191 17.9782 9.46404L10.6182 15.224C10.0655 15.7283 9.7552 16.4168 9.7358 17.1634C9.71641 17.9101 9.99762 18.618 10.5213 19.1513C11.0546 19.6943 11.7528 19.9756 12.4703 19.9756C12.9455 19.9756 13.4303 19.8495 13.8667 19.5877L23.4861 13.8762C24.097 14.6713 25.0473 15.1852 26.1237 15.1852H31.4182C31.7867 15.1852 32.1649 15.2337 32.5237 15.3404L35.3746 16.1549C35.8594 16.2907 36.3734 16.3683 36.8776 16.3683H37.4788C38.6716 16.3683 39.8449 15.9707 40.7855 15.2531L42.114 14.2446C42.6085 13.8665 43.2 13.6143 43.8206 13.498V14.4192C43.8206 14.8168 44.1503 15.1465 44.5479 15.1465H53.9831C54.3806 15.1465 54.7103 14.8168 54.7103 14.4192C54.7103 14.0216 54.371 13.7016 53.9734 13.7016Z" fill="#FF4638"/>
<path d="M31.5734 41.8521C31.6995 41.9394 31.8449 41.9879 32.0001 41.9879C32.1552 41.9879 32.3007 41.9394 32.4267 41.8521C33.2607 41.2509 37.4401 38.1382 37.4401 35.8691C37.4401 34.0364 35.9564 32.5527 34.1237 32.5527C33.2219 32.5527 32.4946 33.0473 32.0001 33.5224C31.5055 33.0376 30.7782 32.5527 29.8764 32.5527C28.0437 32.5527 26.5601 34.0364 26.5601 35.8691C26.5601 38.1382 30.7395 41.2509 31.5734 41.8521ZM29.8764 34.0073C30.4582 34.0073 31.0498 34.5503 31.3988 35.0642C31.5346 35.2582 31.7576 35.3746 31.9904 35.3746C32.2231 35.3746 32.4461 35.2582 32.5819 35.0642C32.9407 34.5503 33.5322 34.0073 34.1043 34.0073C35.1322 34.0073 35.9661 34.8412 35.9661 35.8691C35.9661 36.9067 33.7649 39.0109 31.9807 40.3588C30.2061 39.0109 27.9952 36.9164 27.9952 35.8691C28.0146 34.8412 28.8485 34.0073 29.8764 34.0073Z" fill="#FF4638"/>
<path d="M23.05 45.5561H40.9603C41.3579 45.5561 41.6876 45.2264 41.6876 44.8288V30.4385H43.5106C43.8112 30.4385 44.0828 30.2543 44.1894 29.9731C44.2961 29.6919 44.2282 29.3719 44.0052 29.1779L32.4949 18.6373C32.2137 18.3852 31.787 18.3852 31.5155 18.6373L20.0052 29.1779C19.7822 29.3816 19.7143 29.7016 19.8209 29.9731C19.9276 30.2543 20.1991 30.4385 20.4997 30.4385H22.3228V44.8192C22.3228 45.2264 22.6428 45.5561 23.05 45.5561ZM40.2234 44.1016H23.7773V30.4385H40.2331V44.1016H40.2234ZM32.0003 20.1598L41.6391 28.984H40.9506H23.05H22.3615L32.0003 20.1598Z" fill="#FF4638"/>
</svg>
