<svg width="62" height="56" viewBox="0 0 62 56" fill="none" xmlns="http://www.w3.org/2000/svg">
<path d="M28.0619 51.4479L19.9747 50.4588C19.9262 49.7121 19.5868 48.9945 18.9468 48.5097L15.8341 46.1048C15.6304 45.9497 15.4462 45.7558 15.291 45.5521L13.9819 43.7776C13.7492 43.4576 13.468 43.1764 13.1577 42.9339L12.7989 42.6624C12.0716 42.1 11.1601 41.78 10.2292 41.78L8.98801 41.7703C8.62922 41.7703 8.27043 41.683 7.94073 41.5473L8.21225 41.1982C8.45467 40.8782 8.39649 40.4224 8.07649 40.18L1.36619 35.0018C1.04619 34.7594 0.59043 34.8176 0.348006 35.1376C0.105581 35.4576 0.163763 35.9133 0.483763 36.1558L6.61225 40.8879L1.84134 47.0842L1.37588 46.7255C1.05588 46.483 0.600127 46.5412 0.357703 46.8515C0.115278 47.1715 0.17346 47.6273 0.483763 47.8697L1.53104 48.6745C1.6571 48.7715 1.81225 48.8297 1.9771 48.8297C2.00619 48.8297 2.03528 48.8297 2.06437 48.82C2.25831 48.7909 2.43285 48.6939 2.54922 48.5388L3.28619 47.5885L3.5674 48.5873C3.80982 49.46 4.34316 50.2551 5.06073 50.8079L10.5977 55.0745C11.3444 55.6564 12.2559 55.957 13.1577 55.957C13.2741 55.957 13.3904 55.957 13.5068 55.9376L27.9844 55.8406C28.5856 55.7921 29.1286 55.5012 29.5165 55.0261C29.8947 54.5509 30.0692 53.9691 30.0013 53.3679C29.8753 52.3691 29.0801 51.5739 28.0619 51.4479ZM28.3819 54.1339C28.2462 54.2988 28.0619 54.3958 27.9165 54.4151L13.4292 54.5121C12.7407 54.5703 12.0426 54.3667 11.4898 53.94L5.95286 49.6733C5.46801 49.3048 5.12861 48.8006 4.97346 48.2091L4.40134 46.163L7.03892 42.7497C7.64013 43.06 8.30922 43.2345 8.98801 43.2442L10.2292 43.2539C10.8401 43.2539 11.4316 43.4673 11.9165 43.8358L12.2753 44.1073C12.4789 44.2624 12.6632 44.4467 12.8183 44.66L14.1274 46.4248C14.3601 46.7448 14.6413 47.0261 14.9516 47.2685L18.0644 49.6733C18.5977 50.0903 18.6947 50.8564 18.2874 51.3897C18.0838 51.6515 17.8026 51.8164 17.4729 51.8551C17.1432 51.8939 16.8232 51.8067 16.571 51.6127L13.5456 49.2854C13.2256 49.043 12.7698 49.1012 12.5274 49.4212C12.285 49.7412 12.3432 50.197 12.6632 50.4394L15.6789 52.7667C16.1541 53.1351 16.7262 53.3291 17.308 53.3291C17.4244 53.3291 17.5407 53.3194 17.6571 53.3097C18.365 53.2224 18.9953 52.8539 19.4316 52.2915C19.5286 52.1654 19.5965 52.0394 19.6644 51.9133L27.8777 52.9121C28.2268 52.9509 28.4983 53.2321 28.5468 53.5812C28.5759 53.7654 28.5177 53.9691 28.3819 54.1339Z" fill="#FF4638"/>
<path d="M61.6327 46.8701C61.3903 46.5501 60.9345 46.492 60.6145 46.7441L60.1588 47.1029L55.3782 40.9065L61.4969 36.1841C61.8169 35.9416 61.8751 35.4859 61.6327 35.1659C61.3903 34.8459 60.9345 34.7877 60.6145 35.0301L53.9139 40.1986C53.5939 40.441 53.5357 40.8968 53.7782 41.2168L54.0497 41.5659C53.72 41.7017 53.3612 41.7889 53.0024 41.7889L51.7612 41.7986C50.84 41.8083 49.9285 42.1186 49.1915 42.681L48.8424 42.9526C48.5321 43.195 48.2509 43.4762 48.0182 43.7962L46.7091 45.5707C46.5539 45.7841 46.3697 45.9683 46.166 46.1235L43.0533 48.5283C42.423 49.0132 42.0739 49.7404 42.0254 50.4774L33.9382 51.4665C32.92 51.5926 32.1248 52.3877 31.9988 53.4059C31.9309 54.0071 32.0957 54.5986 32.4836 55.0641C32.8618 55.5392 33.4048 55.8204 34.0739 55.8786L48.4351 55.9756C48.5612 55.9853 48.6873 55.995 48.8036 55.995C49.7345 55.995 50.646 55.6847 51.3927 55.1126L56.9297 50.8459C57.6569 50.2835 58.1806 49.5174 58.423 48.6253L58.7042 47.6265L59.4412 48.5865C59.5576 48.7417 59.7321 48.8386 59.926 48.8677C59.9551 48.8677 59.9842 48.8774 60.023 48.8774C60.1879 48.8774 60.343 48.8289 60.4691 48.7223L61.5066 47.9271C61.8266 47.6459 61.8848 47.1901 61.6327 46.8701ZM57.0363 48.2083C56.8715 48.7901 56.5321 49.2944 56.0569 49.6726L50.52 53.9392C49.9673 54.3659 49.2788 54.5695 48.5224 54.5017L34.1612 54.4047C33.9576 54.3853 33.7636 54.2883 33.6376 54.1235C33.5115 53.9586 33.4436 53.755 33.4727 53.5513C33.5115 53.2023 33.7927 52.9307 34.1418 52.8823L42.3551 51.8835C42.423 52.0192 42.5006 52.1453 42.5879 52.2617C43.0242 52.8241 43.6545 53.1926 44.3624 53.2798C44.4788 53.2992 44.5951 53.2992 44.7115 53.2992C45.303 53.2992 45.8654 53.1053 46.3406 52.7368L49.366 50.4095C49.686 50.1671 49.7442 49.7113 49.5018 49.3913C49.2594 49.0713 48.8036 49.0132 48.4836 49.2556L45.4582 51.5829C45.1963 51.7865 44.8763 51.8641 44.5563 51.8253C44.2363 51.7865 43.9454 51.6217 43.7418 51.3598C43.3248 50.8265 43.4315 50.0507 43.9648 49.6435L47.0776 47.2386C47.3879 46.9962 47.6691 46.715 47.9018 46.395L49.2109 44.6204C49.366 44.4071 49.5503 44.2229 49.7539 44.0677L50.103 43.7962C50.5879 43.4277 51.1891 43.2144 51.7903 43.2144L53.0315 43.2047C53.7103 43.2047 54.3891 43.0301 54.9806 42.7101L57.6182 46.1235L57.0363 48.2083Z" fill="#FF4638"/>
<path d="M17.9575 9.65362C17.9575 10.0512 18.2872 10.3809 18.6848 10.3809C19.0824 10.3809 19.4121 10.0512 19.4121 9.65362C19.4121 7.28756 21.3418 5.35787 23.7078 5.35787C24.1054 5.35787 24.4351 5.02817 24.4351 4.63059C24.4351 4.23302 24.1054 3.90332 23.7078 3.90332C20.5369 3.90332 17.9575 6.48271 17.9575 9.65362Z" fill="#FF4638"/>
<path d="M8.75533 35.3988H13.0608V40.7224C13.0608 41.12 13.3905 41.4497 13.7881 41.4497C14.1856 41.4497 14.5153 41.12 14.5153 40.7224V35.3988H30.2729C30.5541 35.3988 30.8062 35.2436 30.9226 34.9915L34.5784 27.4764V48.577H28.4111C28.0135 48.577 27.6838 48.9067 27.6838 49.3043C27.6838 49.7018 28.0135 50.0315 28.4111 50.0315H35.3056C35.3444 50.0315 35.3832 50.0315 35.422 50.0218L40.4547 49.1976C40.8523 49.1297 41.1238 48.7612 41.0559 48.3636C40.9881 47.9661 40.6196 47.6946 40.222 47.7624L36.0329 48.4509V27.4764L39.6887 34.9915C39.8147 35.2436 40.0668 35.3988 40.3384 35.3988H47.485V40.7224C47.485 41.12 47.8147 41.4497 48.2123 41.4497C48.6099 41.4497 48.9396 41.12 48.9396 40.7224V35.3988H53.245C53.4971 35.3988 53.7299 35.2727 53.8656 35.0594C54.0014 34.8461 54.0111 34.5843 53.9044 34.3515L48.8717 23.9952C48.7456 23.743 48.4935 23.5879 48.222 23.5879H35.325H13.7881C13.5068 23.5879 13.2547 23.743 13.1384 23.9952L8.10563 34.3515C7.99896 34.5746 8.00866 34.8461 8.14442 35.0594C8.28017 35.2727 8.5129 35.3988 8.75533 35.3988ZM47.7565 25.0424L52.0814 33.9443H40.7941L36.4693 25.0424H47.7565ZM14.2438 25.0424H34.142L29.8171 33.9443H9.91896L14.2438 25.0424Z" fill="#FF4638"/>
<path d="M22.3021 21.9396C22.593 22.2111 23.0585 22.2014 23.33 21.9008C23.6015 21.6099 23.5918 21.1444 23.3009 20.8729C18.2197 16.1214 15.5336 12.2426 15.5336 9.64381C15.5336 5.13472 19.1991 1.46926 23.7082 1.46926C27.073 1.46926 29.6815 4.82441 30.4088 5.85229C30.6803 6.24017 31.33 6.24017 31.6015 5.85229C32.3191 4.82441 34.9373 1.46926 38.3021 1.46926C42.8112 1.46926 46.4864 5.13472 46.4864 9.64381C46.4864 12.2426 43.8003 16.1214 38.7191 20.8729C38.4282 21.1444 38.4088 21.6099 38.6803 21.9008C38.8258 22.0559 39.0197 22.1335 39.2137 22.1335C39.3882 22.1335 39.5724 22.0656 39.7082 21.9396C45.1676 16.839 47.9312 12.7081 47.9312 9.65351C47.9312 4.33957 43.6064 0.0244141 38.2924 0.0244141C34.9082 0.0244141 32.2706 2.67169 31.0003 4.2426C29.73 2.67169 27.0924 0.0244141 23.7082 0.0244141C18.3943 0.0244141 14.0791 4.33957 14.0791 9.65351C14.0791 12.6984 16.8427 16.8293 22.3021 21.9396Z" fill="#FF4638"/>
</svg>
