<svg width="64" height="64" viewBox="0 0 64 64" fill="none" xmlns="http://www.w3.org/2000/svg">
<path d="M29.0615 50.2985L20.9742 49.3094C20.9257 48.5627 20.5863 47.8451 19.9463 47.3603L16.8336 44.9554C16.6299 44.8003 16.4457 44.6063 16.2905 44.4027L14.9815 42.6282C14.7487 42.3082 14.4675 42.0269 14.1572 41.7845L13.7984 41.513C13.0712 40.9506 12.1596 40.6306 11.2287 40.6306L9.98752 40.6209C9.62873 40.6209 9.26994 40.5336 8.94025 40.3979L9.21176 40.0488C9.45418 39.7288 9.396 39.273 9.076 39.0306L2.3657 33.8524C2.0457 33.61 1.58994 33.6682 1.34752 33.9882C1.10509 34.3082 1.16327 34.7639 1.48328 35.0063L7.61176 39.7385L2.83115 45.9348L2.38509 45.576C2.06509 45.3336 1.60934 45.3918 1.36691 45.7021C1.12449 46.0221 1.18267 46.4779 1.49297 46.7203L2.54024 47.5251C2.66631 47.6221 2.82146 47.6803 2.98631 47.6803C3.0154 47.6803 3.04449 47.6803 3.07358 47.6706C3.26752 47.6415 3.44206 47.5445 3.55843 47.3894L4.2954 46.4391L4.57661 47.4379C4.81903 48.3106 5.35237 49.1057 6.06994 49.6585L11.6069 53.9251C12.3536 54.5069 13.2651 54.8076 14.1669 54.8076C14.2833 54.8076 14.3996 54.8076 14.516 54.7882L28.9936 54.6912C29.5948 54.6427 30.1378 54.3518 30.5257 53.8766C30.9039 53.4112 31.0784 52.8197 31.0106 52.2185C30.8748 51.2197 30.0796 50.4245 29.0615 50.2985ZM29.3815 52.9845C29.2457 53.1494 29.0615 53.2463 28.916 53.2657L14.4287 53.3627C13.7305 53.4209 13.0421 53.2172 12.4893 52.7906L6.95237 48.5239C6.46752 48.1554 6.12812 47.6512 5.97297 47.0597L5.40085 45.0136L8.03843 41.6003C8.63964 41.9106 9.30873 42.0851 9.98752 42.0948L11.2287 42.1045C11.8396 42.1045 12.4312 42.3179 12.916 42.6863L13.2748 42.9579C13.4784 43.113 13.6627 43.2972 13.8178 43.5106L15.1269 45.2851C15.3596 45.6051 15.6409 45.8863 15.9512 46.1288L19.0639 48.5336C19.5972 48.9506 19.6942 49.7166 19.2869 50.25C19.0833 50.5118 18.8021 50.6766 18.4724 50.7154C18.1427 50.7542 17.8227 50.6669 17.5706 50.473L14.5451 48.136C14.2251 47.8936 13.7693 47.9518 13.5269 48.2718C13.2845 48.5918 13.3427 49.0476 13.6627 49.29L16.6784 51.6172C17.1633 51.9954 17.7451 52.17 18.3172 52.17C19.1221 52.17 19.9172 51.8112 20.4409 51.1324C20.5378 51.0063 20.6057 50.8803 20.6736 50.7542L28.8869 51.753C29.236 51.7918 29.5075 52.073 29.556 52.4221C29.5754 52.616 29.5172 52.8197 29.3815 52.9845Z" fill="#FF4638"/>
<path d="M61.6145 45.5858L61.1588 45.9349L56.3782 39.7385L62.4969 35.0161C62.8169 34.7737 62.8751 34.3179 62.6327 33.9979C62.3903 33.6779 61.9345 33.6197 61.6145 33.8622L54.9139 39.0307C54.5939 39.2731 54.5357 39.7288 54.7782 40.0488L55.0497 40.3979C54.72 40.5337 54.3612 40.621 54.0024 40.621L52.7612 40.6307C51.84 40.6403 50.9285 40.9507 50.1915 41.5131L49.8424 41.7846C49.5321 42.027 49.2509 42.3082 49.0182 42.6282L47.7091 44.4028C47.5539 44.6064 47.3697 44.8003 47.166 44.9555L44.0533 47.3603C43.4909 47.7967 43.1224 48.427 43.0351 49.1349C43.0254 49.1931 43.0351 49.2513 43.0254 49.3094L34.9382 50.2888C33.92 50.4149 33.1248 51.21 32.9988 52.2282C32.9309 52.8294 33.0957 53.421 33.4836 53.8864C33.8618 54.3616 34.4145 54.6428 35.0739 54.701L49.4351 54.7979C49.5612 54.8076 49.6873 54.8173 49.8036 54.8173C50.7345 54.8173 51.646 54.507 52.3927 53.9349L57.9297 49.6682C58.6569 49.1058 59.1806 48.3397 59.423 47.4476L59.7042 46.4488L60.4412 47.4088C60.5576 47.564 60.7321 47.661 60.926 47.69C60.9551 47.69 60.9842 47.6997 61.023 47.6997C61.1879 47.6997 61.343 47.6513 61.4691 47.5446L62.5066 46.7494C62.8266 46.507 62.8848 46.0513 62.6327 45.7313C62.3903 45.4016 61.9345 45.3434 61.6145 45.5858ZM58.0363 47.0597C57.8715 47.6416 57.5321 48.1458 57.0569 48.524L51.52 52.7906C50.9673 53.2173 50.2885 53.421 49.5224 53.3531L35.1612 53.2561C34.9576 53.2367 34.7636 53.1397 34.6376 52.9749C34.5115 52.81 34.4436 52.6064 34.4727 52.4028C34.5115 52.0537 34.7927 51.7822 35.1418 51.7337L43.3551 50.7349C43.423 50.8706 43.5006 50.9967 43.5976 51.1131C44.0339 51.6755 44.6642 52.044 45.3721 52.1313C45.4885 52.1506 45.6048 52.1506 45.7212 52.1506C46.3127 52.1506 46.8751 51.9567 47.3503 51.5882L50.3757 49.261C50.6957 49.0185 50.7539 48.5628 50.5115 48.2428C50.2691 47.9228 49.8133 47.8646 49.4933 48.107L46.4679 50.4343C46.206 50.6379 45.886 50.7155 45.566 50.6767C45.246 50.6379 44.9551 50.4731 44.7515 50.2113C44.5479 49.9494 44.4606 49.6294 44.5091 49.3094C44.5479 48.9894 44.7127 48.6985 44.9745 48.4949L48.0873 46.09C48.3976 45.8476 48.6788 45.5664 48.9115 45.2464L50.2206 43.4719C50.3757 43.2585 50.56 43.0743 50.7636 42.9191L51.1224 42.6476C51.6073 42.2791 52.1988 42.0755 52.8097 42.0658L54.0509 42.0561C54.7297 42.0561 55.4085 41.8816 56 41.5616L58.6376 44.9749L58.0363 47.0597Z" fill="#FF4638"/>
<path d="M10.5698 27.724C10.5698 29.3434 11.8789 30.6719 13.4983 30.6913L15.0886 40.4659C15.1468 40.8246 15.4571 41.0768 15.8062 41.0768C15.845 41.0768 15.8838 41.0768 15.9226 41.0671C16.3201 40.9992 16.5916 40.6307 16.5238 40.2331L14.9722 30.6913H18.5892C18.9868 30.6913 19.3165 30.3616 19.3165 29.964C19.3165 29.5665 18.9868 29.2368 18.5892 29.2368H13.5468C12.7129 29.2368 12.0244 28.558 12.0244 27.7143C12.0244 26.8707 12.7032 26.1919 13.5468 26.1919H50.4632C51.2971 26.1919 51.9856 26.8707 51.9856 27.7143C51.9856 28.558 51.3068 29.2368 50.4632 29.2368H21.3916C20.9941 29.2368 20.6644 29.5665 20.6644 29.964C20.6644 30.3616 20.9941 30.6913 21.3916 30.6913H49.028L47.4765 40.2428C47.4086 40.6404 47.6801 41.0089 48.0777 41.0768C48.1165 41.0865 48.1553 41.0865 48.1941 41.0865C48.5432 41.0865 48.8535 40.8343 48.9116 40.4756L50.5019 30.6913C52.1213 30.6622 53.4304 29.3434 53.4304 27.724C53.4304 26.0853 52.0922 24.7471 50.4535 24.7471H13.5468C11.908 24.7471 10.5698 26.0853 10.5698 27.724Z" fill="#FF4638"/>
<path d="M21.779 43.2005C21.3815 43.2005 21.0518 43.5302 21.0518 43.9278V45.4599C21.0518 46.895 22.2251 48.0684 23.6602 48.0684C25.0954 48.0684 26.2687 46.895 26.2687 45.4599V35.7823C26.2687 34.3472 25.0954 33.1738 23.6602 33.1738C22.2251 33.1738 21.0518 34.3472 21.0518 35.7823V42.1629C21.0518 42.5605 21.3815 42.8902 21.779 42.8902C22.1766 42.8902 22.5063 42.5605 22.5063 42.1629V35.7823C22.5063 35.1423 23.0202 34.6284 23.6602 34.6284C24.3002 34.6284 24.8142 35.1423 24.8142 35.7823V45.4599C24.8142 46.0999 24.3002 46.6138 23.6602 46.6138C23.0202 46.6138 22.5063 46.0999 22.5063 45.4599V43.9278C22.5063 43.5302 22.1766 43.2005 21.779 43.2005Z" fill="#FF4638"/>
<path d="M34.6081 45.4599V35.7823C34.6081 34.3472 33.4348 33.1738 31.9996 33.1738C30.5644 33.1738 29.3911 34.3472 29.3911 35.7823V37.5859C29.3911 37.9835 29.7208 38.3132 30.1184 38.3132C30.516 38.3132 30.8457 37.9835 30.8457 37.5859V35.7823C30.8457 35.1423 31.3596 34.6284 31.9996 34.6284C32.6396 34.6284 33.1535 35.1423 33.1535 35.7823V45.4599C33.1535 46.0999 32.6396 46.6138 31.9996 46.6138C31.3596 46.6138 30.8457 46.0999 30.8457 45.4599V39.6708C30.8457 39.2732 30.516 38.9435 30.1184 38.9435C29.7208 38.9435 29.3911 39.2732 29.3911 39.6708V45.4599C29.3911 46.895 30.5644 48.0684 31.9996 48.0684C33.4348 48.0684 34.6081 46.9047 34.6081 45.4599Z" fill="#FF4638"/>
<path d="M42.2202 42.095C42.6177 42.095 42.9474 41.7653 42.9474 41.3678V35.7823C42.9474 34.3472 41.7741 33.1738 40.339 33.1738C38.9038 33.1738 37.7305 34.3472 37.7305 35.7823V45.4599C37.7305 46.895 38.9038 48.0684 40.339 48.0684C41.7741 48.0684 42.9474 46.895 42.9474 45.4599V43.6078C42.9474 43.2102 42.6177 42.8805 42.2202 42.8805C41.8226 42.8805 41.4929 43.2102 41.4929 43.6078V45.4599C41.4929 46.0999 40.979 46.6138 40.339 46.6138C39.699 46.6138 39.185 46.0999 39.185 45.4599V35.7823C39.185 35.1423 39.699 34.6284 40.339 34.6284C40.979 34.6284 41.4929 35.1423 41.4929 35.7823V41.3581C41.4929 41.7653 41.8226 42.095 42.2202 42.095Z" fill="#FF4638"/>
<path d="M9.18272 20.2769L13.5851 23.1763C13.7112 23.2539 13.847 23.2927 13.9827 23.2927C14.2154 23.2927 14.4482 23.1763 14.5936 22.963C14.8167 22.6236 14.7197 22.1775 14.39 21.9545L9.98757 19.0551C9.04696 18.4345 8.85302 17.426 8.99848 16.6987C9.13423 15.9811 9.66757 15.1278 10.7439 14.8951C12.5864 14.5072 14.6809 14.672 16.7754 15.2926C17.0082 16.4078 16.5815 17.5617 15.6603 18.2599C15.3403 18.5023 15.2821 18.9581 15.5245 19.2781C15.67 19.4623 15.8833 19.569 16.1064 19.569C16.2615 19.569 16.4167 19.5205 16.5427 19.4236C17.687 18.5508 18.3173 17.2126 18.2979 15.826C18.9088 16.0781 19.51 16.3593 20.1112 16.689C21.0421 17.9981 20.7706 19.8114 19.4906 20.7811C19.1706 21.0236 19.1124 21.4793 19.3548 21.7993C19.5003 21.9836 19.7136 22.0902 19.9367 22.0902C20.0918 22.0902 20.247 22.0417 20.373 21.9448C21.6433 20.9751 22.2348 19.4527 22.0894 17.969C22.4094 18.2114 22.8651 18.1339 23.1076 17.8139C23.35 17.4939 23.2724 17.0381 22.9524 16.7957L22.7585 16.6502C22.5451 16.4951 22.3318 16.3302 22.1088 16.1848C18.3754 13.7217 14.0118 12.7036 10.4433 13.4599C8.94999 13.7799 7.85424 14.9048 7.56333 16.4078C7.27242 17.9496 7.89302 19.4236 9.18272 20.2769Z" fill="#FF4638"/>
<path d="M38.9908 17.2417C37.6817 17.9496 36.8574 19.3169 36.8574 20.8005V22.5653C36.8574 22.9629 37.1871 23.2926 37.5847 23.2926C37.9823 23.2926 38.312 22.9629 38.312 22.5653V20.8005C38.312 19.8502 38.8356 18.9678 39.6792 18.5217C40.9883 17.8138 41.8126 16.4466 41.8126 14.9629V14.255H45.3326V14.9532C45.3326 16.4466 46.1471 17.8138 47.4659 18.512C48.3095 18.9678 48.8332 19.8405 48.8332 20.7908V22.5556C48.8332 22.9532 49.1629 23.2829 49.5605 23.2829C49.958 23.2829 50.2877 22.9532 50.2877 22.5556V20.7908C50.2877 19.2975 49.4732 17.9302 48.1544 17.232C47.3108 16.7763 46.7871 15.9035 46.7871 14.9532V14.2259C47.592 14.1096 48.2223 13.4211 48.2223 12.5872V10.8417C48.2223 9.9205 47.4756 9.17383 46.5544 9.17383H40.5908C39.6695 9.17383 38.9229 9.9205 38.9229 10.8417V12.5872C38.9229 13.4211 39.5532 14.1193 40.358 14.2259V14.9532C40.3483 15.9132 39.8247 16.786 38.9908 17.2417ZM40.3677 10.8417C40.3677 10.7253 40.4647 10.6284 40.5811 10.6284H46.5447C46.6611 10.6284 46.758 10.7253 46.758 10.8417V12.5872C46.758 12.7035 46.6611 12.8005 46.5447 12.8005H46.0599H41.0853H40.6005C40.4841 12.8005 40.3871 12.7035 40.3871 12.5872V10.8417H40.3677Z" fill="#FF4638"/>
<path d="M24.6207 23.2927H24.6692C25.0668 23.2636 25.3771 22.9145 25.348 22.517C25.154 19.6758 26.1431 17.3194 27.6558 17.0382C28.5286 16.8733 29.314 17.4067 29.8183 17.8818C30.4874 18.5024 31.331 18.8224 32.1843 18.8321C32.2037 18.8321 32.2231 18.8418 32.2522 18.8418C32.2716 18.8418 32.291 18.8321 32.3201 18.8321C33.1734 18.8127 34.0171 18.5024 34.6861 17.8818C35.2971 17.3097 35.9565 16.9994 36.5771 17.0285C36.9843 17.0479 37.314 16.7279 37.3237 16.3206C37.3334 15.9133 37.0231 15.5836 36.6158 15.5739C35.588 15.5352 34.5795 15.9715 33.6777 16.8152C33.4643 17.0188 33.2122 17.1642 32.9601 17.2612C32.8922 15.4964 31.8352 13.8964 30.2255 13.1594C29.8571 12.9945 29.4304 13.1497 29.2655 13.5182C29.1007 13.8867 29.2558 14.3133 29.6243 14.4879C30.7201 14.9921 31.4377 16.0685 31.5152 17.2612C31.2631 17.1642 31.0304 17.0188 30.8268 16.8248C29.7601 15.8261 28.5383 15.3994 27.394 15.6127C25.0861 16.0491 23.651 18.9291 23.9031 22.6236C23.9225 23.0018 24.2425 23.2927 24.6207 23.2927Z" fill="#FF4638"/>
</svg>
