<svg width="64" height="64" viewBox="0 0 64 64" fill="none" xmlns="http://www.w3.org/2000/svg">
<path d="M61.6919 35.7716C60.4507 34.511 58.5307 34.2588 57.0083 35.1606L41.881 44.14C41.0277 42.8503 39.5634 41.997 37.9052 41.997H29.7404C29.1295 41.997 28.5186 41.9097 27.9368 41.7449L23.5343 40.4843C22.8168 40.2807 22.0701 40.174 21.3331 40.174H20.4022C18.6568 40.174 16.9307 40.7558 15.5343 41.8225L13.4883 43.3837C12.5477 44.1013 11.4034 44.5376 10.2301 44.6734V42.8019C10.2301 42.4043 9.9004 42.0746 9.50282 42.0746H1.93919C1.54161 42.0746 1.21191 42.4043 1.21191 42.8019V62.06C1.21191 62.4576 1.54161 62.7873 1.93919 62.7873H9.50282C9.9004 62.7873 10.2301 62.4576 10.2301 62.06V58.0067L13.2071 60.2273C14.584 61.2552 16.2907 61.8273 18.0168 61.8273H32.5234C34.5404 61.8273 36.4701 61.071 37.9149 59.7522L51.1901 49.3667C51.5101 49.1243 51.5586 48.6588 51.3162 48.3485C51.064 48.0285 50.6083 47.98 50.298 48.2225L36.9743 58.6467C35.7525 59.7619 34.1816 60.3825 32.5234 60.3825H18.0168C16.6107 60.3825 15.2046 59.917 14.0798 59.0734L10.2301 56.1934V46.157C11.7234 46.0213 13.1683 45.4588 14.3707 44.5473L16.4168 42.9861C17.5513 42.1134 18.9671 41.6382 20.4022 41.6382H21.3331C21.944 41.6382 22.5549 41.7255 23.1368 41.8903L27.5392 43.151C28.2568 43.3546 29.0034 43.4613 29.7404 43.4613H37.9052C39.738 43.4613 41.2313 44.9546 41.2313 46.7873C41.2313 48.62 39.738 50.1134 37.9052 50.1134H29.9828C29.5852 50.1134 29.2556 50.4431 29.2556 50.8407C29.2556 51.2382 29.5852 51.5679 29.9828 51.5679H37.9052C40.5428 51.5679 42.6859 49.4249 42.6859 46.7873C42.6859 46.3316 42.5986 45.8952 42.4822 45.4782L57.7549 36.4116C58.6956 35.8588 59.8883 36.0043 60.6543 36.7897C61.1101 37.2552 61.3525 37.8661 61.3331 38.5061C61.3137 39.1558 61.0422 39.7473 60.6156 40.1546L53.4495 45.7594C53.1295 46.0019 53.081 46.4673 53.3234 46.7776C53.4689 46.9619 53.6822 47.0588 53.8956 47.0588C54.0507 47.0588 54.2059 47.0103 54.3416 46.9037L61.5562 41.26C62.3222 40.5522 62.7683 39.5922 62.7877 38.5449C62.8168 37.5073 62.4289 36.5182 61.6919 35.7716ZM8.77555 61.3425H2.66646V43.5388H8.77555V61.3425Z" fill="#FF4638"/>
<path d="M38.2734 35.2679C38.5546 35.5588 39.0201 35.5588 39.3013 35.2776C42.094 32.5527 43.4516 30.3903 43.4516 28.6642C43.4516 25.4836 40.8625 22.8945 37.6819 22.8945C35.8395 22.8945 34.3946 24.126 33.551 25.1054C32.6977 24.126 31.2625 22.8945 29.4201 22.8945C26.2395 22.8945 23.6504 25.4836 23.6504 28.6642C23.6504 32.8242 32.1643 39.0594 33.134 39.7576C33.2601 39.8448 33.4055 39.8933 33.5607 39.8933C33.7158 39.8933 33.8613 39.8448 33.9874 39.7576C34.0552 39.7091 35.6552 38.5551 37.5365 36.9163C37.8371 36.6545 37.8661 36.1891 37.6043 35.8885C37.3425 35.5879 36.8771 35.5491 36.5765 35.8206C35.3062 36.926 34.1522 37.8182 33.551 38.2642C30.8455 36.2473 25.1049 31.4085 25.1049 28.6642C25.1049 26.2885 27.0443 24.3491 29.4201 24.3491C31.1752 24.3491 32.5716 26.1527 32.9595 26.6957C33.231 27.0836 33.8807 27.0836 34.1522 26.6957C34.5401 26.143 35.9365 24.3491 37.6916 24.3491C40.0674 24.3491 42.0068 26.2885 42.0068 28.6642C42.0068 29.9151 40.688 31.8933 38.2928 34.24C38.0019 34.5212 37.9922 34.9866 38.2734 35.2679Z" fill="#FF4638"/>
<path d="M14.8069 19.8204H18.2396V38.1185C18.2396 38.5161 18.5693 38.8458 18.9669 38.8458C19.3644 38.8458 19.6941 38.5161 19.6941 38.1185V19.8204H22.9232C23.3208 19.8204 23.6505 19.4907 23.6505 19.0931C23.6505 18.6955 23.3208 18.3658 22.9232 18.3658H16.6784L33.5511 2.91855L50.4238 18.3658H25.4444C25.0469 18.3658 24.7172 18.6955 24.7172 19.0931C24.7172 19.4907 25.0469 19.8204 25.4444 19.8204H47.4081V37.9052C47.4081 38.3028 47.7378 38.6325 48.1353 38.6325C48.5329 38.6325 48.8626 38.3028 48.8626 37.9052V19.8204H52.2953C52.596 19.8204 52.8675 19.6361 52.9741 19.3549C53.0808 19.0737 53.0129 18.7537 52.7899 18.5598L34.0359 1.39612C33.7547 1.144 33.3281 1.144 33.0566 1.39612L14.3123 18.5598C14.0893 18.7634 14.0214 19.0834 14.1281 19.3549C14.2347 19.6361 14.5063 19.8204 14.8069 19.8204Z" fill="#FF4638"/>
<path d="M21.3044 9.91935C21.702 9.91935 22.0317 9.58965 22.0317 9.19208V2.87935H25.4838V4.70238C25.4838 5.09996 25.8135 5.42965 26.2111 5.42965C26.6087 5.42965 26.9384 5.09996 26.9384 4.70238V2.15208C26.9384 1.7545 26.6087 1.4248 26.2111 1.4248H21.3044C20.9068 1.4248 20.5771 1.7545 20.5771 2.15208V9.19208C20.5771 9.59935 20.9068 9.91935 21.3044 9.91935Z" fill="#FF4638"/>
</svg>
