<svg width="235" height="214" viewBox="0 0 235 214" fill="none" xmlns="http://www.w3.org/2000/svg">
<path fill-rule="evenodd" clip-rule="evenodd" d="M41.5073 0.0576241C42.3544 -0.224735 42.0721 0.622344 42.9191 0.622344C42.6368 1.46942 41.5073 0.057623 41.5073 1.18706C40.6603 1.46942 41.5073 0.339983 41.5073 0.0576241Z" fill="white"/>
<path fill-rule="evenodd" clip-rule="evenodd" d="M27.9556 4.01148C26.5438 3.72912 25.9791 4.29384 24.8497 4.29384C25.132 2.59969 27.1085 3.16441 27.3909 1.47025C29.3674 2.31733 30.2145 0.623179 31.9086 0.34082C31.3439 2.59969 28.5204 1.47025 27.9556 4.01148Z" fill="white"/>
<path fill-rule="evenodd" clip-rule="evenodd" d="M37.8388 0.904799C37.8388 1.75187 35.8623 2.59895 36.1446 0.904799C36.7093 0.904799 36.9917 0.0577224 37.8388 0.904799Z" fill="white"/>
<path fill-rule="evenodd" clip-rule="evenodd" d="M32.4704 0.904297C33.0351 2.59845 34.4469 0.339575 35.294 1.18665C34.7293 2.03373 34.7293 3.16316 33.5998 3.16316C33.5998 0.621936 32.188 4.2926 31.0586 2.8808C31.341 2.03373 32.188 1.75137 32.4704 0.904297Z" fill="white"/>
<path fill-rule="evenodd" clip-rule="evenodd" d="M55.0618 4.29302C53.65 5.42246 51.9559 3.72831 50.2617 4.01066C51.3912 2.88123 53.3677 4.01067 55.0618 4.29302Z" fill="white"/>
<path fill-rule="evenodd" clip-rule="evenodd" d="M20.0467 6.8338C20.6114 5.98672 22.0232 5.42201 23.1526 5.13965C23.1526 6.8338 21.1761 7.68087 20.0467 6.8338Z" fill="white"/>
<path fill-rule="evenodd" clip-rule="evenodd" d="M23.4379 6.83398C23.4379 7.3987 23.4379 7.96342 23.4379 8.52814C22.5908 8.52814 21.7437 8.24578 22.0261 7.11634C22.3084 6.83399 22.8732 6.83398 23.4379 6.83398Z" fill="white"/>
<path fill-rule="evenodd" clip-rule="evenodd" d="M12.9868 10.2227C14.1162 10.2227 12.7044 12.4815 14.1162 11.9168C13.2691 12.4815 12.7044 13.3286 12.422 14.458C11.0102 13.611 12.7044 11.6344 12.9868 10.2227Z" fill="white"/>
<path fill-rule="evenodd" clip-rule="evenodd" d="M196.238 11.3516C197.085 11.9163 198.215 12.1986 199.344 12.7634C198.497 13.3281 196.238 12.481 196.238 11.3516Z" fill="white"/>
<path fill-rule="evenodd" clip-rule="evenodd" d="M86.6861 16.4346C88.0979 16.7169 87.5332 17.8464 86.9684 18.9758C86.4037 18.9758 86.1214 18.4111 85.5566 18.6934C85.5566 18.4111 86.1213 18.4111 86.1213 18.4111C85.839 18.1287 85.839 17.564 85.839 16.9993C86.1214 16.9993 86.1213 16.9993 86.1213 17.2816C86.6861 17.2816 86.4037 16.7169 86.6861 16.4346Z" fill="white"/>
<path fill-rule="evenodd" clip-rule="evenodd" d="M89.5057 23.21C90.0705 23.21 90.3528 23.21 90.9175 23.21C91.1999 24.057 91.7646 24.3394 92.047 24.9041C91.7646 25.4688 92.047 26.3159 90.9175 26.3159C90.6352 24.057 89.7881 24.9041 89.5057 23.21Z" fill="white"/>
<path fill-rule="evenodd" clip-rule="evenodd" d="M92.6149 26.5996C93.7444 26.5996 93.462 28.2938 93.7443 29.1408C93.1796 29.1408 92.6149 29.1408 92.6149 29.4232C92.0502 28.5761 91.2031 28.2938 91.2031 27.4467C92.0502 27.4467 91.7678 28.2938 92.6149 28.5761C93.462 28.0114 92.0502 27.4467 92.6149 26.5996Z" fill="white"/>
<path fill-rule="evenodd" clip-rule="evenodd" d="M31.9067 29.4229C31.342 31.117 29.3655 31.6817 27.9537 32.8112C27.6713 33.6582 28.5184 35.3524 29.0831 34.223C29.9302 34.7877 27.6713 36.4818 27.3889 35.6347C26.8242 35.07 27.9537 33.6582 26.8242 33.6582C28.236 32.2464 28.8007 29.7052 31.9067 29.4229Z" fill="white"/>
<path fill-rule="evenodd" clip-rule="evenodd" d="M93.1777 30.5518C94.3072 30.8341 94.5895 32.2459 94.8719 33.6577C94.0248 33.093 93.4601 31.9636 93.1777 30.5518Z" fill="white"/>
<path fill-rule="evenodd" clip-rule="evenodd" d="M38.6854 33.9414C37.8384 35.3532 36.1442 35.6355 34.7324 34.5061C35.8619 33.9414 37.8384 34.5061 38.6854 33.9414Z" fill="white"/>
<path fill-rule="evenodd" clip-rule="evenodd" d="M43.1978 37.0472C42.3507 35.6354 41.5036 35.9177 40.0918 35.6354C41.7859 34.5059 45.1743 35.353 43.1978 37.0472Z" fill="white"/>
<path fill-rule="evenodd" clip-rule="evenodd" d="M35.578 35.6348C34.7309 36.1995 35.0133 36.7642 36.1427 36.7642C36.1427 37.329 35.2956 37.329 35.578 38.176C34.1662 38.4584 34.7309 36.7642 33.8838 36.7642C31.9073 37.0466 31.6249 38.7407 29.6484 38.7407C31.0602 37.329 33.0368 34.7877 35.578 35.6348Z" fill="white"/>
<path fill-rule="evenodd" clip-rule="evenodd" d="M46.3049 36.4824C46.3049 37.3295 44.893 36.7648 44.3283 36.7648C44.3283 35.9177 46.0225 35.9177 46.3049 36.4824Z" fill="white"/>
<path fill-rule="evenodd" clip-rule="evenodd" d="M229.273 40.7168C230.121 40.9992 230.403 41.5639 230.403 42.6933C229.556 42.411 229.556 41.2815 229.273 40.7168Z" fill="white"/>
<path fill-rule="evenodd" clip-rule="evenodd" d="M27.6699 42.4112C26.2581 43.5406 27.3875 45.2348 25.9757 46.3642C23.4345 45.5171 26.2581 41.5641 27.6699 42.4112Z" fill="white"/>
<path fill-rule="evenodd" clip-rule="evenodd" d="M66.6348 42.6942C68.0466 42.4118 70.0231 44.3883 70.8701 45.8001C69.176 46.3649 68.6113 42.9766 66.6348 42.6942Z" fill="white"/>
<path fill-rule="evenodd" clip-rule="evenodd" d="M222.779 47.4937C222.779 48.9055 223.344 49.4702 222.497 50.3173C221.085 50.3173 220.52 47.2114 222.779 47.4937Z" fill="white"/>
<path fill-rule="evenodd" clip-rule="evenodd" d="M26.8215 48.0586C28.2333 48.6233 27.3863 51.1645 26.2568 51.1645C25.4098 50.0351 26.5392 48.9057 26.8215 48.0586Z" fill="white"/>
<path fill-rule="evenodd" clip-rule="evenodd" d="M227.015 50.8828C227.58 51.4475 228.145 52.0122 228.145 53.424C227.015 53.7064 227.015 52.8593 226.168 53.1417C226.168 52.0122 226.45 51.1652 227.015 50.8828Z" fill="white"/>
<path fill-rule="evenodd" clip-rule="evenodd" d="M233.227 50.8828C234.921 53.424 234.356 55.9653 234.921 59.6359C232.944 57.3771 233.791 54.2711 233.227 50.8828Z" fill="white"/>
<path fill-rule="evenodd" clip-rule="evenodd" d="M25.9754 51.7285C27.1048 53.4227 24.5636 53.4227 25.693 55.6815C23.1518 55.1168 25.1283 52.2932 25.9754 51.7285Z" fill="white"/>
<path fill-rule="evenodd" clip-rule="evenodd" d="M23.7188 57.376C25.1305 57.376 26.26 59.9172 24.2835 60.1996C24.2835 59.0701 24.0011 58.2231 23.7188 57.376Z" fill="white"/>
<path fill-rule="evenodd" clip-rule="evenodd" d="M227.014 58.7881C227.861 58.7881 228.426 59.0704 228.99 59.3528C229.273 60.7646 227.579 60.1999 227.296 61.047C226.732 60.7646 226.167 59.3528 227.014 58.7881Z" fill="white"/>
<path fill-rule="evenodd" clip-rule="evenodd" d="M27.1078 61.8948C26.5431 62.7419 25.696 63.0242 24.0018 63.0242C23.1547 60.7654 25.9783 61.0477 27.1078 61.8948Z" fill="white"/>
<path fill-rule="evenodd" clip-rule="evenodd" d="M82.7324 61.6113C83.8619 61.8937 83.2972 61.8937 84.4266 61.6113C84.1442 62.176 83.8619 62.7408 82.7324 62.7408C82.7324 62.176 82.7324 61.8937 82.7324 61.6113Z" fill="white"/>
<path fill-rule="evenodd" clip-rule="evenodd" d="M28.2379 61.8945C28.5202 61.8945 28.8026 61.8945 29.3673 61.8945C29.3673 63.024 29.3673 63.871 29.3673 65.0005C27.9556 65.0005 28.2379 63.3063 28.2379 61.8945Z" fill="white"/>
<path fill-rule="evenodd" clip-rule="evenodd" d="M234.357 64.1523C236.052 64.4347 233.793 65.8465 234.357 67.2583C233.228 66.4112 234.357 64.9994 234.357 64.1523Z" fill="white"/>
<path fill-rule="evenodd" clip-rule="evenodd" d="M26.2617 66.6953C27.9559 67.8247 29.3677 69.5189 31.0618 70.6483C29.0853 73.1896 26.8264 68.6718 26.2617 66.6953Z" fill="white"/>
<path fill-rule="evenodd" clip-rule="evenodd" d="M2.54297 67.2588C3.39004 67.5411 4.23712 69.5177 2.54297 69.2353C2.54297 68.6706 2.54297 67.8235 2.54297 67.2588Z" fill="white"/>
<path fill-rule="evenodd" clip-rule="evenodd" d="M233.512 68.6699C234.924 68.9523 233.512 71.7759 232.948 71.7759C232.383 70.0817 233.23 69.517 233.512 68.6699Z" fill="white"/>
<path fill-rule="evenodd" clip-rule="evenodd" d="M24.8497 69.2359C25.4144 68.3888 27.6732 68.9535 26.8262 70.6476C25.4144 70.93 25.4144 69.8006 24.8497 69.2359Z" fill="white"/>
<path fill-rule="evenodd" clip-rule="evenodd" d="M232.943 72.0596C234.072 72.9066 232.096 73.7537 232.661 74.8832C231.531 74.0361 232.943 72.9066 232.943 72.0596Z" fill="white"/>
<path fill-rule="evenodd" clip-rule="evenodd" d="M231.253 78.5527C232.1 78.8351 231.252 80.5292 230.123 79.9645C229.841 78.8351 230.97 79.3998 231.253 78.5527Z" fill="white"/>
<path fill-rule="evenodd" clip-rule="evenodd" d="M32.4707 79.4C33.3178 78.2705 33.8825 79.9647 34.4472 79.9647C33.8825 81.3765 33.3178 79.4 32.4707 79.4Z" fill="white"/>
<path fill-rule="evenodd" clip-rule="evenodd" d="M32.4701 95.4952C29.9289 94.3658 27.67 90.9775 27.1053 89.001C29.9289 90.1304 31.3406 92.6716 32.4701 95.4952Z" fill="white"/>
<path fill-rule="evenodd" clip-rule="evenodd" d="M226.454 88.7188C227.866 88.7188 226.737 91.26 225.889 90.6953C225.607 89.5658 226.737 89.8482 226.454 88.7188Z" fill="white"/>
<path fill-rule="evenodd" clip-rule="evenodd" d="M23.1542 95.4946C22.3072 95.4946 21.1777 94.0828 21.1777 92.3887C22.5895 92.9534 22.3072 95.2123 24.566 94.9299C23.1542 96.6241 24.2837 96.6241 24.566 98.8829C23.719 98.0359 22.5895 96.0593 23.1542 95.4946Z" fill="white"/>
<path fill-rule="evenodd" clip-rule="evenodd" d="M223.065 95.7773C222.218 96.6244 221.936 98.3186 221.371 99.1657C220.242 98.6009 221.089 98.3186 220.806 96.6244C221.936 96.9068 221.936 95.7773 223.065 95.7773Z" fill="white"/>
<path fill-rule="evenodd" clip-rule="evenodd" d="M33.3183 98.3186C34.4478 98.0362 33.8831 99.448 34.7301 99.448C34.1654 100.295 32.7536 99.1657 33.3183 98.3186Z" fill="white"/>
<path fill-rule="evenodd" clip-rule="evenodd" d="M218.828 99.731C219.11 98.6015 219.675 100.013 220.24 99.731C220.522 100.578 219.675 100.296 219.675 101.143C218.546 101.143 219.958 99.4486 218.828 99.731Z" fill="white"/>
<path fill-rule="evenodd" clip-rule="evenodd" d="M27.1053 101.142C27.9524 101.424 28.5171 102.271 28.7994 103.118C27.3876 103.4 27.1053 102.271 27.1053 101.142Z" fill="white"/>
<path fill-rule="evenodd" clip-rule="evenodd" d="M31.9051 102.836C31.6227 102.836 31.3404 102.836 31.3404 103.119C30.7757 102.836 30.4933 102.271 30.2109 101.424C31.058 100.86 31.9051 101.424 31.9051 102.836Z" fill="white"/>
<path fill-rule="evenodd" clip-rule="evenodd" d="M16.3787 112.436C17.5081 112.436 18.9199 112.154 18.9199 113.566C18.0728 113.848 16.661 114.13 16.3787 112.436Z" fill="white"/>
<path fill-rule="evenodd" clip-rule="evenodd" d="M208.667 113.001C208.667 113.565 208.667 113.848 208.667 114.412C207.537 114.695 207.537 113.848 206.973 113.848C206.973 112.718 207.82 112.718 208.667 113.001Z" fill="white"/>
<path fill-rule="evenodd" clip-rule="evenodd" d="M206.119 115.542C206.966 116.389 207.53 115.26 208.095 115.824C208.095 117.236 206.683 117.236 205.271 117.236C205.271 116.671 205.836 116.389 206.119 115.542Z" fill="white"/>
<path fill-rule="evenodd" clip-rule="evenodd" d="M26.8242 118.083C27.9537 118.083 28.236 119.212 28.5184 120.06C27.6713 119.777 27.1066 119.212 26.8242 118.083Z" fill="white"/>
<path fill-rule="evenodd" clip-rule="evenodd" d="M41.2256 121.189C42.6374 121.754 42.6374 123.448 44.3315 123.731C44.0492 124.86 44.0492 124.295 44.3315 125.425C43.2021 124.86 42.0727 125.425 41.5079 125.142C42.6374 123.166 39.8138 123.448 40.0961 121.754C40.6609 121.754 41.2256 121.754 41.2256 121.189Z" fill="white"/>
<path fill-rule="evenodd" clip-rule="evenodd" d="M61.8379 122.601C63.2497 122.318 62.9673 123.448 63.532 123.73C63.2497 125.142 61.8379 123.73 61.8379 122.601Z" fill="white"/>
<path fill-rule="evenodd" clip-rule="evenodd" d="M188.9 130.226C189.464 131.355 190.594 130.226 191.723 130.508C191.441 132.767 188.9 131.637 187.488 132.202C186.358 131.355 188.617 131.073 188.9 130.226Z" fill="white"/>
<path fill-rule="evenodd" clip-rule="evenodd" d="M186.92 133.049C186.92 133.614 187.485 133.896 187.203 134.461C186.073 135.025 185.226 135.872 183.814 135.025C184.661 134.461 184.944 133.049 186.92 133.049Z" fill="white"/>
<path fill-rule="evenodd" clip-rule="evenodd" d="M53.0858 134.178C53.9328 134.46 54.4976 134.742 54.4976 135.872C53.9328 135.307 52.8034 135.59 53.0858 134.178Z" fill="white"/>
<path fill-rule="evenodd" clip-rule="evenodd" d="M180.709 137.283C180.991 136.436 182.403 137.283 183.25 137.001C182.968 138.695 181.838 137.566 180.709 137.283Z" fill="white"/>
<path fill-rule="evenodd" clip-rule="evenodd" d="M56.1911 152.249C55.344 152.249 55.6264 150.838 54.7793 150.555C55.344 149.708 56.4734 151.12 56.1911 152.249Z" fill="white"/>
<path fill-rule="evenodd" clip-rule="evenodd" d="M43.7669 151.684C42.9198 151.967 42.9198 151.12 42.0728 151.402C41.7904 150.273 44.3316 149.99 43.7669 151.684Z" fill="white"/>
<path fill-rule="evenodd" clip-rule="evenodd" d="M140.615 159.873C140.898 161.285 139.204 161.002 138.074 161.002C138.921 160.438 139.768 160.155 140.615 159.873Z" fill="white"/>
<path fill-rule="evenodd" clip-rule="evenodd" d="M137.224 162.132C138.636 161.849 138.636 162.696 140.048 162.414C139.483 163.544 138.071 163.826 137.507 164.955C136.66 165.238 136.66 164.391 135.812 164.673C136.66 163.826 137.224 164.108 137.224 162.132Z" fill="white"/>
<path fill-rule="evenodd" clip-rule="evenodd" d="M51.3868 163.826C52.5163 164.391 53.081 164.391 54.4928 164.109C54.7752 166.932 58.4458 163.826 57.8811 166.932C56.7517 166.085 54.4928 165.803 53.6457 166.932C52.7986 165.803 52.5163 165.238 51.3868 163.826Z" fill="white"/>
<path fill-rule="evenodd" clip-rule="evenodd" d="M55.0616 166.932C56.7558 167.779 57.8852 168.626 59.8617 167.496C58.7323 168.626 58.1676 168.626 59.297 170.32C58.4499 170.32 57.6029 170.32 57.8852 171.449C56.4734 170.602 56.1911 170.885 55.0616 170.885C55.0616 170.602 55.0617 170.32 54.7793 170.32C56.4734 169.755 55.6263 168.061 55.0616 166.932Z" fill="white"/>
<path fill-rule="evenodd" clip-rule="evenodd" d="M69.178 168.625C70.8721 168.907 70.8721 170.319 72.0016 171.166C71.1545 171.731 69.4603 170.037 69.178 168.625Z" fill="white"/>
<path fill-rule="evenodd" clip-rule="evenodd" d="M61.8366 173.143C60.9895 172.014 60.1424 172.579 59.013 173.143C59.013 172.579 58.1659 172.579 58.4482 171.732C59.2953 171.732 59.5777 172.579 59.5777 171.167C60.9895 170.885 62.1189 171.449 61.8366 173.143Z" fill="white"/>
<path fill-rule="evenodd" clip-rule="evenodd" d="M62.9681 177.096C62.121 176.249 60.9916 176.249 60.1445 175.967C60.7092 174.555 61.8387 175.967 63.2505 175.402C62.6858 174.555 61.5563 174.555 62.121 173.426C65.227 173.426 65.7917 176.249 68.6153 175.967C68.0506 177.096 67.4859 176.532 68.0506 177.944C67.4859 176.814 64.0976 175.402 62.9681 177.096Z" fill="white"/>
<path fill-rule="evenodd" clip-rule="evenodd" d="M69.7401 175.685C70.3048 175.685 70.8695 175.685 71.4342 175.685C71.4342 177.379 69.7401 177.379 69.7401 175.685Z" fill="white"/>
<path fill-rule="evenodd" clip-rule="evenodd" d="M131.297 177.379C131.297 177.097 131.297 176.815 131.297 176.25C131.862 176.25 132.709 176.25 133.273 176.25C132.991 177.097 132.426 177.662 131.297 177.379Z" fill="white"/>
<path fill-rule="evenodd" clip-rule="evenodd" d="M104.473 43.8223C105.32 44.387 104.755 46.0812 106.167 45.7988C106.732 45.5164 105.32 44.1046 105.602 42.9752C107.014 44.6694 107.579 46.9282 108.708 48.9047C114.92 37.6104 124.803 28.0102 134.967 19.2571C146.262 9.37453 158.121 4.29207 176.474 2.0332C177.039 2.0332 177.604 2.0332 178.168 2.0332C192.851 4.00971 206.969 12.1981 216.852 22.363C217.981 23.4925 219.393 24.9043 220.24 26.3161C223.628 30.2691 227.299 34.7868 228.993 39.5869C219.393 26.8808 209.228 15.0217 193.133 9.09216C193.698 10.2216 195.957 10.504 194.828 11.9158C197.933 12.4805 199.063 15.3041 202.169 15.8688C202.169 16.7159 201.322 16.4335 201.039 17.2806C201.886 18.1276 203.298 16.7159 202.451 18.6924C204.145 17.5629 206.122 17.5629 207.816 18.9747C207.816 20.3865 207.534 18.9747 206.687 19.2571C206.687 20.6689 208.098 20.3865 208.098 21.7983C207.534 21.7983 206.687 21.516 206.687 22.0807C207.251 24.3395 209.228 22.6454 210.922 23.7748C210.922 24.3395 210.075 24.0572 209.51 24.0572C210.075 25.469 210.922 26.0337 212.051 26.8808C212.616 24.3395 216.852 28.0102 216.852 30.2691C215.722 30.5514 216.004 29.1396 214.875 29.1396C217.134 33.0927 220.24 35.9162 222.781 39.5869C222.781 40.1516 222.216 40.1516 222.216 40.7163C223.628 41.2811 225.605 42.9752 225.04 45.5164C225.04 45.7988 225.605 45.7988 226.169 45.7988C225.322 46.6459 226.169 47.2106 226.169 48.34C224.475 48.0577 223.063 43.5399 224.193 42.6929C222.216 41.2811 218.263 37.8928 217.981 34.7868C217.699 34.7868 217.416 34.7868 217.416 35.0692C216.004 31.6809 212.334 30.8338 210.075 28.5749C214.028 34.7868 220.522 38.7398 222.216 47.2106C221.369 46.9282 221.087 46.0812 220.24 45.7988C221.087 48.0577 221.087 52.8578 223.346 54.2696C223.346 55.1166 222.499 55.1166 221.934 55.399C221.934 56.5284 221.652 57.6579 222.216 58.2226C223.628 58.5049 222.781 57.0931 223.628 56.8108C224.475 59.352 225.04 60.1991 225.605 62.7403C224.758 62.458 224.475 63.0227 224.475 63.8698C224.758 64.4345 225.887 63.5874 225.605 65.2816C227.016 65.5639 226.734 64.1521 228.146 64.7168C228.428 65.8463 227.581 66.1286 227.863 67.2581C227.299 65.5639 224.758 66.6933 223.91 67.5404C223.91 68.3875 225.322 66.6933 225.04 68.1051C224.193 68.1051 223.346 68.1051 223.063 68.3875C223.628 69.5169 223.063 69.7993 223.063 71.2111C224.758 71.2111 223.346 70.0816 224.193 69.5169C224.758 71.2111 225.887 69.7993 226.734 70.9287C227.016 71.7758 225.887 71.4934 225.605 72.0582C225.605 72.9052 226.452 72.6229 227.016 73.1876C225.887 74.317 226.169 77.7053 223.91 76.5759C224.475 75.4465 225.887 73.47 224.193 72.3405C223.628 72.3405 223.628 72.6229 223.063 72.6229C223.063 73.4699 222.781 74.8817 223.628 75.1641C223.346 76.0112 222.216 76.0112 221.652 76.5759C221.934 77.7053 222.216 79.1171 223.346 79.3995C224.193 79.3995 223.91 77.9877 224.475 77.7053C224.193 80.5289 224.193 86.7408 220.24 87.8702C219.957 88.7173 220.805 88.435 221.369 88.435C219.675 89.5644 219.393 92.1056 216.852 92.6703C217.699 93.7998 216.004 93.5174 216.852 94.6469C215.44 94.3645 215.157 95.4939 214.875 96.0587C215.44 97.1881 216.004 95.7763 216.852 96.0587C216.287 97.1881 217.981 97.7528 218.263 98.0352C217.416 98.5999 216.287 98.8822 215.722 100.012C216.004 100.576 216.569 100.576 217.134 100.576C216.852 101.706 215.44 101.423 215.44 102.553C214.875 102.553 214.875 101.706 214.028 101.988C213.746 102.553 213.746 104.247 215.157 103.4C214.593 104.529 213.463 105.094 211.769 104.812C211.204 104.812 212.616 106.788 210.64 106.224C210.64 107.071 211.769 106.788 211.769 107.918C209.793 107.635 210.075 111.024 208.381 109.894C207.534 110.741 208.945 110.459 208.663 111.588C204.71 111.871 206.122 115.259 203.016 116.388C204.145 117.518 204.71 115.541 205.84 115.259C205.84 116.671 204.428 116.671 204.145 117.8C204.71 118.93 205.275 117.518 206.122 117.8C204.992 119.777 202.734 120.341 201.322 121.753C201.886 122.883 202.734 121.189 203.016 122.036C203.298 124.012 201.039 123.447 200.475 124.577C198.781 124.012 201.039 123.447 201.039 122.6C198.781 123.447 197.086 125.142 195.392 126.836C195.675 127.965 196.522 126.553 197.086 126.836C196.522 127.683 195.957 128.53 194.545 128.53C194.828 128.248 194.828 127.965 194.828 127.4C192.286 127.118 192.286 129.659 190.31 129.942C191.157 128.248 190.592 129.095 190.027 127.965C192.004 128.53 191.157 126.271 193.133 126.271C192.569 125.142 192.286 125.424 191.157 125.706C190.027 128.53 186.074 128.248 185.51 131.636C182.968 132.765 180.71 134.177 179.298 136.436C177.604 136.154 177.039 137.001 175.909 136.436C175.062 136.436 175.062 137.848 175.909 137.848C175.062 138.977 174.215 137.283 172.804 137.848C172.521 138.695 171.674 138.695 171.109 139.26C171.392 140.107 173.368 139.26 173.651 139.824C173.368 140.671 171.956 140.671 171.956 141.518C172.521 142.648 173.086 140.954 173.933 141.236C173.651 142.083 173.933 142.083 172.804 142.648C173.368 143.495 173.933 142.365 174.78 142.93C172.521 143.213 171.109 143.495 169.415 144.342C170.545 145.471 171.392 146.036 171.956 147.166C172.521 146.036 174.78 144.06 176.474 142.93C176.474 143.495 177.321 143.495 177.039 144.342C176.192 144.624 175.627 145.189 174.498 145.471C175.062 147.448 173.086 146.601 173.368 148.295C168.286 149.424 167.156 153.942 162.074 154.507C161.509 155.354 162.074 155.072 161.792 156.201C157.556 157.613 151.344 164.389 147.391 162.695C146.262 162.695 147.674 164.954 145.979 163.825C146.262 164.107 146.262 164.389 146.544 164.389C146.262 165.237 144.85 165.237 144.568 166.084C144.568 166.366 145.697 167.213 145.697 166.366C145.415 169.19 141.179 171.166 137.791 172.013C135.532 174.272 132.144 175.684 128.756 176.813C131.579 173.143 136.662 172.296 140.05 169.19C139.203 168.342 138.073 171.448 136.662 169.754C137.509 169.19 138.073 168.907 136.379 169.19C136.944 168.06 138.073 166.931 138.92 168.06C138.92 167.495 138.073 167.495 138.356 166.648C140.615 166.084 142.874 166.084 144.568 164.672C144.568 163.825 143.438 164.389 142.874 164.389C143.721 163.26 144.85 164.389 146.262 163.825C145.415 162.695 143.438 162.978 142.874 162.413C144.003 162.131 145.697 160.719 146.827 161.848C147.391 161.566 147.674 161.001 147.956 160.154C143.721 158.742 140.05 159.589 136.097 162.131C136.097 162.695 136.097 163.26 136.379 163.26C133.556 163.26 132.144 164.954 130.167 166.366C130.732 167.778 132.991 165.519 133.273 166.648C133.273 168.06 131.014 167.213 130.45 168.06C130.732 168.342 131.297 170.037 130.45 170.037C129.603 170.319 129.885 169.472 129.885 168.907C123.955 170.319 119.155 173.143 116.614 177.943C115.202 178.507 110.685 180.484 113.226 181.896C110.402 182.46 109.273 183.59 107.014 185.284C107.296 186.413 108.426 185.284 109.555 185.849C110.685 185.566 108.708 185.284 109.273 184.437C111.814 185.002 113.791 184.719 115.767 183.872C116.614 184.719 115.485 185.002 116.049 185.566C118.026 185.849 118.591 184.437 120.002 183.872C119.155 182.178 117.744 185.002 116.049 183.872C116.614 181.896 118.873 181.613 119.438 179.637C120.285 179.354 120.002 180.202 120.567 180.202C120.002 178.225 124.52 179.919 125.367 178.507C125.367 177.66 123.108 178.507 124.238 177.378C123.955 177.66 123.391 177.66 122.826 177.66C123.108 176.531 125.085 177.096 125.367 175.966C125.932 176.813 125.367 176.813 125.932 177.66C126.779 177.378 125.367 176.813 126.214 176.249C128.473 177.66 129.885 177.096 132.426 177.378C132.426 178.225 129.32 177.66 130.732 178.79C127.061 179.354 123.391 181.331 120.002 182.743C120.285 183.025 122.826 182.178 122.826 183.872C119.438 183.872 118.308 187.543 115.202 186.696C114.92 188.108 116.049 188.39 116.897 188.672C114.073 190.366 112.661 192.908 108.143 191.778C108.426 192.908 110.12 192.343 110.967 192.908C110.685 193.472 110.402 194.319 110.402 194.884C107.296 194.037 109.273 198.555 107.296 199.12C107.861 199.684 108.143 200.249 107.861 201.661C106.732 201.943 106.449 202.79 104.755 202.79C104.755 203.355 104.755 204.202 104.755 204.767C103.343 204.484 103.343 202.79 103.343 200.814C103.908 200.814 103.908 201.096 104.473 201.096C103.908 199.12 100.802 196.578 102.496 194.884C102.214 193.472 101.084 195.167 99.955 195.167C99.955 195.731 101.084 194.602 101.084 196.296C99.1079 195.449 99.955 197.99 99.3903 199.12C98.2608 199.402 97.9785 198.837 97.4138 198.555C97.1314 200.814 97.4138 201.661 99.1079 202.508C99.1079 203.073 99.1079 203.637 99.1079 204.202C97.9785 204.484 98.2608 203.355 97.6961 202.79C96.8491 204.484 93.4608 201.096 92.896 203.92C93.1784 202.79 92.896 203.92 92.6137 201.943C91.4842 202.226 91.2019 203.355 90.6372 204.484C89.5077 203.073 87.2488 205.331 86.1194 203.92C84.99 205.049 82.4488 205.049 81.6017 206.461C81.3193 208.72 81.884 210.414 82.7311 211.826C83.8605 211.826 83.2958 210.414 84.7076 210.696C84.4253 211.543 85.2723 211.543 84.99 212.39C83.8606 213.238 82.7311 212.673 81.6017 213.802C77.3663 211.826 73.978 208.72 72.8486 203.637C72.0015 203.637 72.5662 205.049 71.4368 204.767C71.1544 202.79 71.4368 200.814 68.8956 200.531C69.4603 198.273 68.6132 196.861 66.3543 196.296C65.2249 193.755 64.0955 190.931 61.8366 189.802C64.3778 188.39 64.9425 192.625 67.4838 191.214C68.0485 191.778 67.4837 192.343 66.919 192.625C67.2014 193.755 68.6132 193.755 70.025 193.755C70.3073 194.884 68.8956 194.319 68.8956 195.167C69.4603 196.296 70.5897 194.602 70.8721 195.449C71.1544 196.578 70.3073 196.578 70.8721 197.143C71.7191 197.143 71.7191 196.014 72.5662 195.731C72.5662 194.602 71.1544 195.167 71.4368 193.755C72.8486 192.908 72.5662 194.602 74.2604 194.319C72.2838 189.237 68.6132 186.131 65.5072 181.331C66.3543 179.919 66.3543 182.46 67.4838 181.896C67.2014 180.766 66.3543 180.202 64.9425 179.919C66.0719 178.507 64.6602 178.79 64.3778 177.378C66.919 177.378 71.4368 177.943 72.8486 181.331C74.5427 181.896 75.6721 180.484 76.2369 181.049C74.5427 177.943 73.1309 174.554 70.8721 172.013C71.1544 171.166 72.2839 172.295 72.2839 173.143C73.1309 173.425 73.1309 172.578 73.978 172.86C72.8485 168.907 70.025 168.625 68.6132 165.237C67.4837 166.366 68.8955 167.778 69.1779 168.625C68.0485 168.06 68.0485 167.495 67.4838 166.084C66.3543 163.26 63.2484 162.413 61.5542 160.154C60.7071 159.307 59.013 155.919 60.1424 155.636C59.5777 154.507 59.2953 155.354 58.4482 155.072C59.2953 152.53 56.1894 151.401 55.6247 149.142C54.7776 148.86 54.7776 149.707 53.9305 149.424C53.9305 148.86 53.9305 148.295 54.4952 148.295C53.6482 148.013 53.3658 147.448 53.0834 146.601C52.8011 146.883 52.8011 147.448 51.954 147.166C51.954 143.777 48.848 142.648 47.1539 140.107C46.8715 139.26 47.4363 139.26 47.4363 138.695C45.1774 134.742 40.6597 133.33 38.9655 128.53C39.8126 128.53 39.5302 129.377 40.3773 129.659C39.2479 126.553 33.036 125.706 32.4713 120.906C33.036 120.624 33.036 120.906 33.6007 120.906C34.1654 119.777 32.4712 120.624 33.036 119.494C31.9065 120.059 30.4947 119.777 29.6477 119.212C29.6477 118.647 29.6477 118.365 29.6477 117.8C28.5182 116.953 27.9535 115.541 26.2594 115.259C23.1534 109.33 17.5062 105.659 14.965 99.1646C14.965 94.9292 10.1649 91.8233 9.6002 87.0232C9.6002 85.0467 10.4473 82.2231 7.90605 81.0936C9.60021 78.27 5.92954 74.5994 6.49426 71.7758C6.2119 71.2111 5.92954 71.7758 5.36482 71.7758C5.92954 69.7993 4.51774 67.8228 3.95303 66.1286C3.10595 66.1286 2.54124 66.1286 2.25888 65.8463C1.4118 66.1286 2.8236 66.9757 2.25888 67.8228C1.12944 66.9757 1.12944 64.9992 0.847085 63.305C1.97652 63.305 1.41181 64.9992 1.97652 65.2816C3.38832 63.0227 1.69415 57.6579 0 56.5284C0.564717 56.5284 0.564722 56.8108 1.12944 56.8108C-1.12943 43.2576 3.67066 33.6574 8.47076 24.0572C8.1884 22.6454 7.05898 22.9277 7.90605 21.2336C10.7296 21.2336 12.4238 20.3865 12.4238 17.8453C13.2709 17.5629 13.2709 18.1276 13.8356 18.1276C13.8356 17.2806 13.8356 16.7159 13.5532 16.4335C12.9885 16.7159 13.2709 17.5629 12.1414 16.9982C12.4238 15.3041 14.1179 15.0217 14.6827 13.8923C15.5297 14.1746 14.965 15.5864 14.1179 15.3041C14.965 16.1511 14.118 18.41 15.8121 18.41C16.9415 17.5629 16.0945 16.9982 15.8121 15.8688C16.9415 15.3041 18.071 14.457 19.7651 14.1746C19.7651 15.0217 19.2004 15.3041 20.0475 15.5864C20.6122 15.0217 23.1534 14.1746 23.4358 15.5864C25.4123 15.0217 23.4358 13.8923 24.0005 12.7628C24.5652 12.7628 24.8476 12.1981 25.4123 12.4805C25.4123 13.6099 24.2829 13.8923 25.13 14.457C26.2594 14.1746 25.977 12.4805 27.6712 12.7628C26.5417 14.457 28.5182 14.7393 28.8006 15.8688C29.93 15.3041 29.6477 15.3041 31.3418 15.5864C31.0595 14.457 34.7301 13.6099 36.7066 12.4805C36.7066 14.7393 36.1419 13.0452 35.2948 13.6099C35.0125 14.457 35.5772 14.457 35.5772 15.0217C37.2714 15.3041 37.2714 14.1746 38.4008 13.8923C38.6832 13.0452 37.8361 13.0452 38.1184 12.1981C38.9655 11.351 40.942 11.0687 41.2244 9.65688C40.3773 9.37453 39.2479 9.09217 39.2479 7.96274C37.8361 9.09217 40.095 9.37452 39.8126 10.504C39.2479 10.504 38.1184 10.7863 38.4008 9.93925C36.7066 10.504 35.5772 11.351 35.0125 12.7628C33.8831 13.0452 31.6242 12.7628 31.9065 14.457C30.7771 14.1746 30.4948 14.7393 29.93 14.7393C29.93 13.8923 30.7771 14.1746 31.0595 13.3275C29.6477 12.7628 30.4948 14.1746 29.3653 13.8923C29.6477 11.6334 29.6477 7.68037 32.1889 8.52745C32.4713 9.65689 31.3418 9.09216 30.7771 9.09216C31.0595 10.504 33.6007 9.65688 33.883 9.09216C33.6007 8.52745 32.7536 7.96273 33.6007 7.39802C34.7301 7.68038 33.6007 8.24509 34.1654 8.80981C35.0125 9.09217 35.0125 8.24509 35.8595 8.52745C35.2948 7.96273 33.3183 7.68038 34.4478 6.55094C35.0125 7.68038 36.1419 7.68038 36.989 7.96274C36.989 8.52745 36.1419 8.52745 36.4243 9.37453C37.2714 9.09217 38.1184 9.09217 38.9655 8.80981C38.9655 7.96273 37.5537 8.80981 37.5537 7.68038C39.5302 4.85679 45.4598 5.98622 47.4363 4.29207C47.4363 5.13915 49.1304 5.42151 48.001 6.26858C49.4128 6.26858 50.5422 6.26858 51.3893 5.98622C51.3893 6.26858 51.3893 6.55094 51.3893 7.11566C53.6481 7.39802 53.6482 5.98622 55.3423 7.11566C54.2129 8.24509 53.3658 7.68037 52.2364 8.24509C52.5187 9.65688 54.7776 8.80981 55.3423 8.24509C55.3423 8.80981 55.0599 9.65688 55.6247 9.65688C54.2129 9.93924 52.5187 9.37453 51.6717 11.351C51.954 12.1981 53.9305 10.7863 54.4952 11.6334C54.2129 12.1981 53.0835 11.9158 52.5187 12.1981C52.5187 12.7628 52.8011 13.0452 53.0834 13.3275C54.2129 13.6099 53.6482 11.9158 54.7776 12.1981C54.4953 13.3276 55.6247 13.0452 56.1894 13.6099C56.7541 13.8923 56.7541 11.6334 56.1894 11.9158C56.4718 11.0687 57.3188 12.7628 57.6012 13.3275C58.1659 13.0452 57.6012 12.7628 57.6012 12.1981C58.7306 11.9158 58.1659 13.3276 58.7306 13.6099C60.9895 13.6099 63.2484 13.6099 64.9425 13.8923C63.2484 15.5864 68.0485 16.1511 67.4838 18.1276C70.3074 17.2806 72.5662 19.5394 73.978 20.9512C73.6956 21.5159 73.4133 20.9512 72.8486 20.9512C73.4133 22.6454 75.9545 20.3865 76.2369 22.0807C76.5192 20.1042 72.2838 19.2571 70.5897 17.8453C72.2838 16.4335 74.8251 20.9512 76.8016 19.8218C77.0839 22.9277 79.3428 21.516 81.0369 21.516C81.3193 20.6689 80.4723 20.6689 80.7546 19.8218C81.6017 20.3865 81.884 20.6689 82.7311 20.1042C83.0135 20.6689 83.0135 20.9512 82.7311 21.516C84.1429 22.0807 82.7311 19.5394 84.1429 20.1042C84.7076 20.6689 83.5782 21.2336 83.5782 22.0807C83.8606 22.6454 84.7076 22.6454 84.99 23.2101C84.99 23.4925 84.4252 23.4925 83.8605 23.4925C84.1429 24.9043 85.2723 24.9043 85.5547 26.3161C86.4018 26.0337 87.5312 26.0337 87.5312 25.1866C91.2019 25.7513 92.049 30.2691 94.0255 33.6574C94.8725 33.6574 94.5902 33.0927 95.4373 33.6574C96.002 35.3515 96.849 37.0457 97.9785 38.1751C98.5432 37.6104 98.2608 37.6104 99.3903 37.8928C99.1079 39.8693 102.496 41.2811 101.932 43.5399C102.214 44.387 102.779 42.9752 103.343 43.8223C103.908 47.2106 107.014 50.8813 107.861 53.9872C108.708 53.7048 108.708 52.293 107.861 52.0107C108.143 50.8813 108.426 52.5754 108.99 52.2931C110.967 51.1636 107.296 50.0342 109.273 48.9047C107.579 46.0812 103.343 46.0812 104.473 43.8223ZM37.8361 7.39802C38.4008 6.8333 40.6597 7.68038 40.6597 6.26858C39.2479 7.11566 37.8361 5.70387 37.8361 7.39802ZM40.0949 10.2216C40.3773 10.2216 40.3773 10.2216 40.3773 10.504C40.942 10.504 41.5067 10.7863 41.7891 11.9158C42.9185 11.9158 44.048 11.6334 44.3303 10.504C43.4832 10.2216 43.4833 11.0687 42.6362 10.7863C42.6362 10.2216 42.9185 9.93925 42.9185 9.37453C42.0714 9.09217 40.6596 9.37453 40.0949 10.2216ZM45.4598 12.7628C46.0245 13.3276 46.8715 13.0452 47.1539 12.4805C46.5892 11.9158 45.4598 11.9158 45.4598 12.7628ZM51.954 15.5864C51.954 15.3041 52.2364 15.3041 52.5187 15.3041C52.5187 15.0217 52.5187 14.7393 52.5187 14.7393C52.2364 14.7393 52.2364 14.7393 52.2364 14.457C51.954 14.457 51.6717 14.457 51.6717 14.457C51.6717 15.0217 51.107 15.3041 51.954 15.5864ZM38.1184 15.8688C38.9655 16.9982 40.095 15.8688 40.6597 14.457C39.8126 15.0217 38.4008 15.0217 38.1184 15.8688ZM34.1654 15.5864C34.1654 17.2806 35.8595 16.1511 35.8595 15.3041C35.0125 14.7393 35.0125 15.5864 34.1654 15.5864ZM54.2129 15.8688C55.3423 15.8688 56.4718 17.5629 56.7541 15.5864C55.3423 15.3041 55.0599 15.0217 54.2129 15.8688ZM17.7886 17.8453C18.071 17.2806 19.2004 17.5629 18.918 16.4335C17.7886 16.1511 16.9415 17.5629 17.7886 17.8453ZM34.4478 18.41C35.2948 18.41 35.5772 17.8453 35.8595 17.2806C35.0125 16.4335 33.883 16.9982 34.4478 18.41ZM54.4952 20.9512C54.7776 20.6689 55.06 20.1042 54.7776 19.2571C53.6482 19.5394 51.954 18.1276 51.3893 19.2571C52.5187 19.8218 52.5187 21.5159 54.4952 20.9512ZM23.1534 19.5394C24.0005 20.1042 22.5887 19.5394 22.024 19.5394C22.024 20.3865 22.024 20.9512 22.3064 21.2336C23.7182 21.516 23.7181 20.1042 24.8476 19.8218C24.8476 20.3865 24.8476 20.9512 25.4123 20.9512C25.6946 19.8218 24.0005 18.6924 23.7182 19.2571C24.8476 20.1042 22.871 18.9747 23.1534 19.5394ZM68.3308 20.3865C68.8955 20.9512 69.4603 21.2336 70.025 20.3865C69.7426 20.1042 68.6132 19.2571 68.3308 20.3865ZM21.1769 22.9277C21.4593 22.6454 21.7416 22.0807 21.4593 21.2336C20.8946 21.2336 20.3298 21.2336 20.0475 20.9512C20.6122 21.5159 20.8945 22.0807 21.1769 22.9277ZM53.6482 22.9277C55.6247 22.363 53.6482 25.469 55.3423 25.469C55.907 24.0572 57.3188 23.7748 58.4482 23.4925C57.3188 22.0807 55.06 21.2336 53.6482 22.9277ZM17.7886 25.7513C19.7651 25.469 19.4828 24.6219 20.6122 22.9277C20.0475 22.9277 18.9181 23.7748 18.6357 22.9277C19.2004 22.9277 19.7651 22.0807 18.6357 22.363C18.3533 23.2101 18.071 24.3395 17.7886 25.7513ZM35.2948 23.4925C35.8596 23.7748 35.0125 24.0572 35.8595 24.6219C33.6007 25.469 36.7066 28.0102 34.4478 29.422C36.4243 30.2691 34.1654 28.8573 36.1419 29.1396C35.5772 30.8338 34.4478 30.2691 33.036 30.5514C33.036 29.9867 33.3183 29.7044 33.3183 29.422C31.9065 29.422 30.7771 29.1396 30.2124 28.0102C31.0595 27.1631 32.4713 28.5749 34.1654 28.0102C34.4478 26.5984 33.883 26.5984 33.883 24.9043C31.9065 24.9043 31.0595 27.7278 29.3653 26.0337C29.083 28.5749 25.6946 28.0102 25.4123 30.5514C27.1064 30.5514 27.9535 27.7278 29.6477 28.8573C28.2359 29.9867 26.8241 31.3985 25.4123 32.8103C25.1299 32.5279 24.8476 31.9632 25.13 31.1162C24.0005 31.3985 23.7181 30.8338 23.4358 30.5514C22.8711 31.1161 22.024 31.6809 22.024 32.5279C22.8711 32.2456 24.8476 32.2456 24.8476 33.6574C23.1534 33.375 23.4358 35.6339 22.024 35.6339C23.1534 36.7633 22.024 38.7398 22.5887 39.8693C22.5887 39.5869 22.871 39.3045 23.1534 39.3045C23.4358 39.8693 23.7182 40.1516 23.7182 40.7163C23.4358 41.2811 22.8711 41.8458 22.3064 42.1281C21.1769 41.8458 19.2004 40.434 18.918 40.7163C20.0475 40.9987 18.3533 41.2811 17.7886 40.9987C17.5062 42.4105 18.918 42.1281 19.4828 42.6929C19.4828 43.2576 18.6357 42.9752 18.3533 43.2576C18.918 43.5399 20.8945 44.1046 19.7651 44.9517C18.918 44.6694 19.7651 43.2576 18.6357 44.387C17.5063 44.9517 19.4828 45.2341 18.918 46.0812C18.071 45.5164 16.9415 46.3635 15.5297 46.0812C12.9885 49.1871 15.5297 55.399 16.6592 58.2226C15.5297 58.5049 15.2474 60.1991 16.6592 60.7638C16.6592 60.4815 16.6592 59.6344 16.9415 59.6344C17.5062 61.8932 16.9415 64.1521 18.071 66.1286C15.2474 70.0816 19.7651 71.7758 21.1769 73.7523C20.3298 72.3405 21.1769 75.4465 21.4593 74.8818C20.0475 76.0112 19.4828 73.4699 18.3533 73.1876C17.2239 73.1876 19.2004 74.5994 18.071 74.5994C16.6592 72.9052 16.6592 71.4934 16.3768 68.9522C15.2474 69.5169 14.1179 67.5404 13.8356 69.2346C14.4003 69.2346 15.8121 70.364 14.1179 70.9287C15.5297 71.2111 14.965 70.9287 16.0945 70.6464C14.965 72.3405 16.6592 73.1876 16.6592 75.1641C17.5062 75.7288 18.3533 74.5994 19.2004 75.4465C17.2239 75.7288 19.7651 76.0112 19.7651 76.5759C19.7651 77.1406 18.9181 76.8583 18.6357 77.1406C20.3298 79.1171 21.7416 81.376 23.1534 83.6349C24.0005 81.6584 25.4123 82.7878 27.1065 82.2231C27.9535 83.6349 28.8006 85.0467 30.2124 85.6114C30.2124 82.7878 27.9535 81.376 26.8241 79.1171C27.3888 78.8348 28.2359 80.2466 28.5182 79.1171C27.1065 78.8348 27.6712 76.8583 26.8241 76.0112C25.6946 76.0112 25.13 76.5759 25.13 74.8818C23.4358 74.5994 25.6946 75.7288 24.5652 76.0112C23.7181 75.7288 23.7181 73.7523 24.8476 73.47C25.6947 73.7523 25.13 75.4465 26.5417 75.1641C26.2594 74.317 25.6947 72.3405 26.5417 71.7758C27.3888 72.3405 28.5182 73.1876 28.5182 74.5994C29.6477 74.8817 29.93 74.0347 31.0595 74.317C31.0595 75.1641 29.93 75.1641 29.6477 75.7288C30.4947 76.2935 32.1889 76.2935 32.4713 77.423C31.3418 78.5524 31.3418 76.5759 29.6477 77.1406C28.8006 79.6818 32.7536 79.6818 32.1889 83.0701C33.6007 83.0701 35.5772 87.8702 35.2948 88.435C35.0125 89.282 32.1889 89.5644 35.2948 90.4115C35.5772 88.7173 37.5537 89.8468 38.4008 88.435C38.1184 89.282 38.9655 89.282 38.6831 90.1291C38.1184 90.1291 37.2714 90.1291 36.7066 90.1291C36.4243 90.9762 37.2714 90.9762 36.989 91.8233C36.4243 91.8233 36.1419 91.5409 35.5772 91.5409C37.5537 93.7998 35.2948 96.341 38.1184 97.7528C38.9655 96.6234 37.2714 96.341 38.1184 95.7763C38.4008 96.6234 38.9655 97.1881 40.0949 97.1881C39.8126 94.9292 36.7066 93.7998 36.989 91.8233C39.5302 93.2351 42.0714 94.9292 42.9185 98.0352C42.3538 98.3175 41.5067 98.3175 41.2244 98.5999C41.5067 100.012 42.9185 100.012 43.7656 101.141C43.7656 100.859 43.7656 100.012 44.048 100.012C46.0245 102.271 48.2833 104.247 49.4128 107.353C48.8481 107.353 48.2834 107.353 47.7187 107.353C49.1304 107.918 49.9775 111.024 51.1069 112.718C52.5187 111.871 49.9775 111.024 51.1069 110.741C51.954 112.718 53.3658 112.153 54.2129 113.565C53.0834 113.847 52.2364 112.718 51.3893 113.283C53.3658 114.13 51.3893 115.259 51.954 116.671C53.0835 116.953 53.3658 116.106 54.4952 116.388C55.3423 117.8 57.0365 121.471 58.4482 120.341C57.6012 122.6 60.4248 123.73 60.1424 125.142C60.9895 124.295 61.8366 126.553 61.5542 127.965C60.9895 128.248 60.4248 126.836 60.1424 127.965C62.1189 129.095 64.6602 129.659 65.7896 131.918C65.5072 132.201 64.0954 133.33 65.2249 133.612C67.2014 132.201 68.8955 137.001 70.5897 138.13C70.872 136.436 69.4602 136.436 69.1779 135.307C69.4602 135.307 70.3074 135.307 70.3074 135.024C69.7426 134.459 67.7661 133.33 68.6132 132.483C69.7426 133.895 71.4368 134.742 70.5897 136.718C71.7191 137.283 72.0015 137.848 72.5662 139.542C72.0015 139.542 71.1544 138.412 71.1544 139.26C71.1544 141.236 74.5427 140.107 75.1074 142.648C73.6956 143.213 73.1309 142.083 72.5662 142.648C73.1309 142.93 73.1309 144.06 73.978 144.06C74.5427 143.495 75.6721 142.93 75.6721 144.06C75.1074 144.342 74.2604 144.06 74.2604 145.189C75.6721 145.754 77.6487 145.754 77.3663 148.013C81.3193 149.707 81.3193 155.072 84.99 157.048C88.6607 163.26 93.1784 168.625 97.9785 173.707C114.92 162.131 131.579 150.272 146.544 137.001C156.991 127.683 171.674 116.106 182.121 101.141C187.486 93.2351 193.98 83.9172 193.98 72.6229C193.98 65.5639 187.769 57.0931 182.686 53.4225C171.674 45.2341 162.074 53.4225 154.168 60.7638C151.909 62.7403 148.521 65.5639 146.827 67.8228C138.638 77.9877 131.579 92.388 124.803 103.118C124.238 103.4 123.955 103.965 123.108 103.682C121.697 105.376 121.979 109.33 119.72 110.177C120.285 112.718 118.308 114.13 117.179 116.106C114.638 115.541 115.202 112.153 112.661 111.871C111.814 112.153 111.814 113.283 110.967 113.283C111.249 112.435 110.402 112.435 110.685 111.588C108.708 111.871 108.143 110.177 106.732 111.588C105.885 111.588 106.167 110.459 106.167 109.612C104.473 109.612 103.343 110.459 102.779 109.047C103.908 106.788 108.143 105.941 106.732 102.553C105.32 103.965 103.908 105.094 103.343 107.071C102.779 106.506 102.214 104.529 103.061 103.682C102.214 103.682 101.932 103.118 101.084 103.4C100.52 104.529 100.802 105.941 99.1079 105.941C99.6726 104.529 99.955 102.835 100.802 101.706C99.955 101.141 97.4138 101.423 97.6961 103.118C98.8256 103.118 99.1079 101.706 99.3903 103.118C98.8255 104.247 97.1314 104.529 96.5667 103.4C97.1314 102.271 96.8491 101.988 96.2843 101.423C97.9785 101.706 97.1314 99.4469 97.6961 98.5999C96.2843 98.5999 96.5667 100.012 95.1549 100.012C95.4372 98.8822 96.2843 96.9057 95.7196 96.0587C95.1549 95.7763 92.3313 98.3175 91.4843 96.6234C92.896 95.4939 92.049 94.3645 93.4608 93.7998C94.0255 92.388 92.3313 90.9762 94.0255 90.9762C94.3078 89.8467 93.1784 90.4115 93.4608 89.282C94.3078 89.5644 94.3078 88.7173 95.1549 88.9997C95.4372 87.0232 92.896 86.7408 94.0255 85.0467C92.049 84.1996 92.0489 81.376 90.9195 79.6818C91.7666 79.9642 92.6136 80.2466 93.7431 79.9642C93.4607 78.2701 92.3313 78.5524 90.9195 78.8348C90.0724 78.5524 88.943 76.8583 89.5077 76.2935C89.7901 76.5759 91.4843 77.1406 91.4843 76.2935C90.9195 76.2935 91.2019 75.4465 91.2019 74.8818C90.3548 74.5994 89.5077 74.317 88.3783 74.5994C87.8136 72.0582 85.2723 69.5169 85.5547 67.2581C86.4018 67.2581 86.6841 68.1051 86.6841 69.2346C87.8136 68.6699 88.6607 70.0816 89.2254 69.2346C88.6607 68.6699 87.8136 68.3875 87.2489 67.8228C87.8136 66.6933 87.2488 65.2815 86.1194 64.7168C84.99 65.2815 85.8371 66.1286 84.7076 66.1286C83.8605 66.1286 84.4253 64.9992 84.4253 64.4345C84.99 64.4345 85.5547 64.4345 86.1194 64.4345C86.6841 61.8932 84.1429 58.2226 80.7546 58.5049C80.7546 57.6579 81.884 57.9402 82.7311 57.9402C81.884 56.2461 81.6017 56.8108 82.4487 54.8343C81.0369 55.1166 80.1899 53.9872 79.9075 55.399C79.9075 56.2461 81.3193 55.399 81.3193 56.5284C80.4722 56.8108 80.4722 56.5284 79.9075 57.6579C79.6252 55.6814 77.6486 53.7048 78.2134 52.0107C78.4957 52.0107 78.7781 52.0107 79.3428 52.0107C79.6252 52.5754 78.7781 53.9872 79.9075 53.7048C79.0604 51.1636 79.9075 48.9047 77.931 47.493C76.8016 48.6224 79.0604 48.6224 78.4957 50.0342C77.931 50.0342 77.931 49.1871 77.0839 49.4695C76.5192 50.5989 78.7781 50.8813 77.6487 51.446C77.3663 51.1636 76.5192 51.1636 75.6721 51.1636C76.8016 50.0342 73.978 47.7753 74.2604 49.4695C72.2838 49.7518 72.5662 47.7753 72.2839 46.3635C72.8486 46.3635 73.1309 46.6459 73.4133 46.6459C74.2603 44.387 72.5662 42.4105 70.8721 41.2811C70.025 41.5634 70.8721 42.9752 69.4603 42.6929C66.6367 39.5869 64.0954 37.0457 59.2953 35.3515C59.5777 33.6574 56.7541 33.375 55.907 31.9632C55.907 32.8103 54.4952 32.2456 54.2129 33.0927C54.7776 34.2221 55.6247 33.375 55.6247 34.5044C53.9305 33.375 54.4952 35.0692 54.2129 35.6339C53.0834 35.0692 53.3658 34.7868 53.9305 33.9397C52.5187 33.375 50.8246 33.0927 50.8246 31.1162C49.9775 30.8338 48.001 31.6809 47.7187 30.8338C47.7187 29.9867 49.1304 30.8338 49.1304 29.7044C44.6127 28.2926 42.3538 28.5749 37.5537 28.2926C37.5537 27.7278 36.989 27.7278 37.2713 27.1631C38.9655 26.316 44.3303 25.469 47.1539 25.7513C48.001 25.1866 46.5892 24.9043 47.4363 24.6219C48.5657 24.9043 48.848 24.9043 48.5657 26.0337C49.4128 25.7513 49.9775 25.469 50.5422 24.9043C48.2834 23.2101 43.2009 25.1866 42.0715 22.9277C40.6597 23.2101 40.6597 24.0572 40.3773 24.6219C38.9655 24.3395 36.989 25.1866 36.1419 24.3395C36.989 23.7748 38.1184 23.4925 38.6831 22.6454C37.8361 22.6454 36.989 22.6454 36.1419 22.6454C36.989 24.3395 36.1419 22.9277 35.2948 23.4925ZM92.896 76.8583C91.4843 76.8583 90.9195 77.1406 91.4843 78.27C92.3313 78.27 92.896 77.7053 92.896 76.8583ZM59.013 22.9277C59.013 23.7748 60.7071 25.1866 60.9895 24.6219C59.8601 24.0572 61.8366 23.7748 61.2718 22.9277C60.7071 22.6454 59.5777 22.0807 59.013 22.9277ZM77.0839 24.3395C77.0839 23.2101 76.5192 22.6454 75.3898 22.6454C75.6721 23.4925 76.2369 24.0572 77.0839 24.3395ZM52.8011 24.9043C53.3658 24.9043 53.9305 24.9043 54.4952 24.9043C54.2129 23.7748 53.6482 22.9277 52.5187 22.9277C52.2364 23.7748 53.0834 23.7748 52.8011 24.9043ZM63.2484 23.7748C63.2484 22.9277 62.6837 22.6454 61.8366 22.6454C61.8366 23.7748 62.4013 24.0572 63.2484 23.7748ZM207.816 26.8808C208.098 25.1866 206.687 25.7513 206.122 25.1866C206.122 26.316 206.687 26.8808 207.816 26.8808ZM18.6357 28.0102C19.2004 28.0102 19.2004 28.5749 19.7651 28.5749C20.8945 25.469 19.2004 24.9043 18.6357 28.0102ZM22.024 28.8573C21.7416 29.7043 20.0475 29.1396 20.3298 30.5514C23.4358 30.2691 23.4358 27.4455 22.024 26.0337C21.1769 27.1631 20.3298 28.8573 22.024 28.8573ZM44.3303 26.5984C45.4597 26.316 46.3068 26.5984 47.1539 26.8808C47.1539 26.0337 44.3303 25.7513 44.3303 26.5984ZM48.5657 26.5984C48.848 26.5984 48.8481 27.1631 48.8481 27.7278C49.6951 27.7278 50.2599 27.1631 50.2599 26.3161C49.9775 25.7513 48.5657 25.7513 48.5657 26.5984ZM57.8835 28.2926C57.8835 26.5984 55.3423 27.7278 54.7776 26.5984C55.06 28.0102 56.7541 28.0102 57.8835 28.2926ZM85.8371 28.8573C87.8136 29.422 87.8136 31.9632 89.7901 32.8103C89.5077 31.6809 89.5077 31.9632 90.0725 31.3985C88.943 29.9867 88.6606 27.7278 86.9665 26.8808C85.8371 27.4455 86.9665 28.2926 85.8371 28.8573ZM77.6487 29.1396C76.8016 28.8573 76.8016 27.4455 75.9545 27.4455C75.6722 28.5749 76.8016 29.9867 77.6487 29.1396ZM207.251 31.1162C207.816 31.1162 207.816 31.9632 208.663 31.6809C208.663 31.1161 208.663 30.8338 208.663 30.2691C208.098 30.2691 207.534 30.5514 207.251 31.1162ZM64.9425 36.1986C64.0954 35.9162 63.5307 34.7868 62.4013 34.5044C61.5542 35.3515 64.3778 36.481 64.9425 36.1986ZM93.1784 36.7633C94.5902 37.0457 94.5902 35.0692 93.1784 35.3515C92.6137 36.1986 93.1784 35.9162 93.1784 36.7633ZM20.8946 39.3045C20.8946 39.0222 21.1769 39.0222 21.4593 39.0222C21.4593 38.4575 21.4593 37.8928 21.4593 37.328C21.1769 37.328 20.8946 37.328 20.3298 37.328C20.6122 38.1751 20.0475 38.7398 20.8946 39.3045ZM97.6961 42.9752C96.002 42.1281 96.2843 37.328 93.7431 37.328C95.1549 39.0222 96.002 42.9752 97.6961 42.9752ZM99.1079 43.8223C98.8256 42.4105 97.6961 39.8693 97.1314 40.434C97.9785 41.2811 97.6961 43.2576 99.1079 43.8223ZM218.546 43.5399C217.981 42.9752 217.134 40.9987 216.569 41.8458C217.416 41.8458 217.416 44.6694 218.546 43.5399ZM87.2489 58.7873C86.1194 59.0697 86.9665 57.3755 86.1194 57.0931C85.8371 57.0931 85.5547 57.0931 84.99 57.0931C84.1429 59.352 86.4018 60.7638 87.2489 58.7873ZM14.1179 61.3285C14.4003 62.7403 14.1179 62.7403 13.8356 64.1521C16.0945 64.4345 14.118 62.1756 15.8121 63.0227C15.8121 62.458 15.2474 62.458 15.2474 61.8932C15.2474 61.6109 15.2474 60.7638 14.965 60.7638C14.6827 61.0462 14.4003 61.3285 14.1179 61.3285ZM17.5063 81.9407C18.071 80.5289 16.3768 79.1171 14.965 78.5524C15.2474 80.2466 16.3768 80.8113 17.5063 81.9407ZM10.7296 79.3995C10.7296 79.9642 11.012 80.2466 11.012 80.8113C12.1414 80.2466 13.8356 80.2466 12.4238 79.1171C12.4238 80.8113 11.8591 79.3995 10.7296 79.3995ZM30.7771 89.8468C29.083 89.5644 28.2359 88.7173 26.5417 87.3055C26.8241 86.1761 28.8006 86.7408 29.083 85.6114C26.5417 86.1761 26.2594 84.7643 24.8476 84.1996C25.1299 85.329 23.4358 84.7643 23.7182 85.8937C24.0005 85.8937 24.8476 85.8937 24.8476 86.1761C24.5652 89.282 27.1065 91.5409 27.9535 94.6469C25.13 95.4939 24.8476 91.8233 22.3064 91.2586C22.5887 90.6938 22.8711 90.4115 23.4358 90.6938C24.0005 91.5409 24.8476 92.1056 25.4123 92.388C24.2829 90.4115 22.8711 88.7173 21.1769 87.5879C21.4593 89.282 18.918 88.435 18.071 88.1526C17.7886 90.4115 19.4828 88.7173 19.7651 90.1291C19.4828 91.2585 20.0475 91.5409 20.3298 91.8233C19.2004 93.2351 17.7886 90.1291 17.2239 92.1056C17.7886 92.9527 18.6357 91.5409 18.918 92.388C18.918 92.9527 18.071 92.6703 18.3533 93.5174C21.7416 92.9527 21.4593 95.7763 21.4593 98.3175C23.7181 98.8822 26.5417 100.859 25.6947 103.118C24.8476 103.118 24.2828 100.859 23.1534 101.706C24.0005 102.835 24.8476 103.965 27.1065 103.682C27.1065 103.118 26.5417 102.835 27.1065 102.553C27.9535 103.4 29.3653 103.965 29.93 102.553C30.2124 103.118 30.7771 103.4 30.4948 104.247C29.93 104.247 29.3653 104.247 28.8006 104.247C28.8006 105.659 28.2359 105.659 28.8006 106.788C30.7771 106.224 30.4947 109.047 33.036 109.33C33.036 108.765 33.036 107.918 33.3183 107.918C35.5772 108.2 34.7301 111.588 37.5537 111.306C37.2714 109.894 36.989 108.2 37.2713 107.071C38.4008 107.353 38.9655 107.918 39.8126 108.482C40.095 107.635 38.4008 107.353 39.5302 106.788C40.6597 107.071 40.6596 108.2 41.5067 108.765C41.5067 105.376 39.2479 102.835 36.989 100.294C36.7066 101.141 38.1184 101.706 37.2713 101.988C35.8595 100.576 35.2949 102.553 34.1654 100.859C34.7301 100.859 35.2948 100.859 35.8595 100.859C36.1419 99.7293 35.0125 100.012 34.7301 99.1646C35.2948 98.8822 36.1419 98.8822 36.4243 98.5999C35.5772 96.341 34.4478 94.3645 32.1889 93.2351C34.4478 92.9527 30.2124 92.1056 30.7771 89.8468ZM104.755 101.988C105.602 101.988 105.885 101.141 105.885 100.294C105.602 100.294 105.32 100.294 104.755 100.294C104.755 100.859 104.755 101.423 104.755 101.988ZM212.051 104.529C212.051 103.682 211.204 103.682 210.922 103.118C210.64 103.682 210.075 103.682 209.793 104.529C210.922 105.094 210.075 103.4 211.204 103.965C211.204 104.247 211.204 104.529 212.051 104.529ZM44.048 105.659C43.2009 105.094 43.2009 103.965 42.3538 103.682C41.5067 103.965 43.2009 106.506 44.048 105.659ZM48.2834 106.224C47.4363 105.659 47.7187 103.4 46.3069 103.4C45.7421 104.529 47.7186 104.812 46.5892 105.094C46.0245 104.529 45.4598 103.965 44.8951 103.4C44.8951 105.376 46.0245 107.353 48.2834 106.224ZM116.332 107.071C116.896 105.659 117.179 107.071 118.026 107.071C118.308 106.224 117.461 106.224 117.744 105.376C116.896 105.376 115.202 106.224 116.332 107.071ZM28.5182 107.353C27.6712 107.353 27.3888 106.224 26.5417 106.224C26.5417 107.071 27.9535 108.2 28.5182 107.353ZM42.9185 113.847C42.9185 114.13 42.9185 114.13 42.6362 114.13C41.5067 113.565 40.3773 113 40.0949 114.694C41.7891 114.412 43.2009 114.694 43.4833 116.671C42.6362 116.953 41.7891 115.259 41.5067 116.388C42.0714 116.388 41.7891 117.518 42.0715 117.8C41.5068 117.8 41.2244 118.083 40.6597 118.083C41.7891 116.106 38.6832 115.259 37.8361 115.259C38.1185 116.953 40.6597 118.365 40.6597 119.494C39.8126 118.365 35.8596 118.647 36.4243 116.388C35.5772 118.365 34.7301 114.694 33.6007 114.694C33.8831 116.106 33.036 116.953 32.1889 116.106C32.1889 117.236 32.4713 117.8 33.6007 117.8C33.6007 117.236 33.6007 116.671 34.1654 116.671C33.8831 118.647 34.7301 116.953 35.5772 117.236C36.4243 117.518 35.5772 120.341 37.5537 119.212C36.1419 120.341 38.9655 121.471 37.8361 122.318C36.989 121.471 35.8595 118.083 34.4478 119.494C36.1419 121.471 37.5537 123.73 39.2479 125.424C40.3773 125.424 38.4008 124.295 39.5302 124.295C43.2009 125.706 44.8951 127.683 48.2834 129.942C48.001 131.354 48.5657 132.201 49.4128 132.483C48.8481 133.895 48.5657 135.589 49.4128 136.718C50.5422 137.001 50.5422 136.154 51.954 136.436C52.5187 138.695 55.6247 139.824 55.3423 142.083C56.4718 141.801 56.7541 142.93 57.3188 142.083C56.7541 143.495 60.4248 146.036 61.5542 145.189C60.9895 144.06 59.013 144.342 59.013 142.648C59.2954 142.648 60.4248 143.495 60.4248 142.648C59.8601 141.801 59.013 141.801 57.8835 142.365C57.6012 141.236 56.4718 141.236 56.7541 139.542C55.6247 139.26 55.3423 139.824 54.7776 139.26C54.7776 138.695 55.3423 138.977 55.3423 138.695C54.4953 138.13 53.9305 137.565 53.3658 137.001C53.6482 136.718 53.6482 136.154 53.9305 135.871C53.9305 136.154 54.4952 136.154 55.06 136.154C55.06 133.612 53.3658 133.048 52.5187 131.354C51.1069 131.071 51.3893 132.483 50.8246 133.048C50.5422 131.353 47.7187 130.224 49.1304 128.248C50.2599 129.095 49.9775 131.354 51.954 131.071C52.2364 129.942 50.2598 129.659 51.3893 129.377C52.2364 129.377 52.5187 129.659 52.5187 130.506C53.3658 129.942 55.06 130.224 54.4952 128.53C53.3658 128.812 52.2364 129.095 51.3893 127.965C52.2364 127.965 52.8011 128.53 53.3658 127.965C53.3658 126.271 52.2364 125.424 51.3893 124.859C50.2598 125.706 48.5657 121.753 47.1539 120.624C47.4363 123.73 49.9775 124.577 51.1069 126.836C47.7186 127.4 48.001 124.012 45.1774 125.142C45.1774 124.577 45.1774 123.73 45.4598 123.73C46.0245 123.73 47.1539 124.577 47.4363 123.73C46.5892 122.318 44.6127 120.624 44.8951 119.212C45.7421 120.059 46.8716 120.906 47.4363 119.212C45.7421 118.647 47.1539 118.083 45.4598 117.518C45.7421 117.518 45.7421 117.236 45.4598 116.953C45.7421 116.953 46.3068 117.518 46.5892 116.953C44.895 114.977 45.7421 116.388 43.2009 116.388C43.7656 114.694 42.0715 112.435 40.3773 111.871C40.942 113 42.6362 113 42.9185 113.847ZM33.883 113.847C33.3183 114.13 32.4713 114.13 32.1889 114.412C32.7536 114.694 33.3183 115.541 33.883 114.694C33.883 114.694 33.883 114.412 33.883 113.847ZM30.7771 112.435C30.4948 113.565 31.9066 113 32.1889 113.565C32.1889 113 33.6007 112.153 32.4713 111.871C31.3418 112.153 32.1889 113.283 30.7771 112.435ZM193.133 126.271C193.98 126.836 195.392 125.424 195.957 124.577C194.545 124.577 193.698 125.424 193.133 126.271ZM48.2834 132.201C47.1539 131.918 46.8716 130.789 45.4598 130.789C45.1774 132.765 47.1539 132.483 48.2834 132.201ZM54.7776 132.201C54.7776 133.33 55.3423 133.895 56.1894 134.177C56.1894 133.33 56.7541 133.33 57.3188 132.765C55.907 133.612 56.1894 132.201 54.7776 132.201ZM48.8481 135.307C48.8481 134.459 47.1539 133.048 46.8716 133.612C47.7186 133.895 47.7186 135.024 48.8481 135.307ZM52.5187 142.93C53.6482 141.236 51.107 140.389 50.5422 139.542C50.2599 138.13 48.5657 136.436 47.4363 137.565C49.1304 139.26 51.1069 140.954 52.5187 142.93ZM51.6717 139.824C52.2364 140.389 53.0834 140.671 53.6482 139.824C52.5187 140.107 53.0834 138.695 52.2364 138.695C52.5187 139.542 51.954 139.542 51.6717 139.824ZM167.721 141.801C168.851 142.648 169.98 141.518 170.262 140.389C168.851 140.107 168.003 140.671 167.721 141.801ZM168.568 144.624C168.286 143.495 168.568 143.777 168.286 142.93C168.003 142.93 167.721 142.93 167.156 142.93C167.156 144.06 168.003 144.342 168.568 144.624ZM55.6247 146.318C53.9305 144.907 56.7541 144.624 55.06 143.213C54.7776 144.06 54.2129 144.342 53.6482 144.907C53.9305 145.471 55.0599 147.166 55.6247 146.318ZM60.9895 153.377C60.1424 151.966 58.7306 151.119 58.1659 149.142C58.7306 149.142 59.2953 149.142 59.5777 149.424C59.013 148.295 58.1659 147.448 59.2953 146.318C58.7306 145.754 57.3188 146.036 56.4717 145.754C56.1894 147.73 58.1659 146.883 58.1659 148.577C56.7541 148.577 56.7541 147.166 55.6247 146.883C55.6247 149.989 57.8835 150.836 58.7306 153.095C59.5777 153.095 60.7071 153.66 60.9895 153.377ZM68.0485 146.318C67.7661 146.036 67.4837 145.189 66.3543 145.754C66.0719 147.448 69.4602 147.166 68.3308 148.86C68.8955 148.86 69.1779 149.142 69.4603 149.142C69.4603 148.013 68.6132 148.013 68.8956 147.166C68.0485 147.448 66.6367 146.883 67.7661 146.601C67.7661 146.601 68.0485 146.883 68.0485 146.318ZM65.5072 148.577C64.0954 148.86 61.8366 147.448 60.9895 148.295C62.1189 149.142 64.3778 149.424 65.5072 148.577ZM62.966 153.095C62.4013 152.248 61.2719 150.554 60.4248 151.119C61.5542 151.401 61.5542 152.813 62.966 153.095ZM162.921 151.683C163.768 152.248 165.18 151.401 165.745 150.554C164.897 150.836 163.486 150.554 162.921 151.683ZM70.5897 155.919C70.5897 155.072 68.8956 153.942 68.8956 154.507C69.7426 154.789 68.0485 155.636 67.4838 155.636C67.2014 154.789 66.3543 153.942 65.5072 153.942C65.2249 154.789 66.072 154.507 66.072 155.354C65.2249 155.354 64.6601 155.636 64.0954 155.919C64.0954 156.766 64.6602 157.048 65.2249 157.33C65.5072 154.225 68.3308 156.766 70.5897 155.919ZM70.8721 157.613C69.7426 156.766 68.3308 158.178 67.4838 157.33C67.2014 158.46 70.5897 157.895 70.8721 157.613ZM143.438 158.742C144.003 158.742 144.003 158.178 144.568 158.178C144.85 159.025 146.262 158.46 145.979 157.613C145.415 157.613 144.85 157.613 144.285 157.613C144.568 158.178 143.438 157.895 143.438 158.742ZM65.5072 162.413C66.3543 161.566 64.9425 161.001 64.3778 160.719C64.6602 161.566 64.9425 162.131 65.5072 162.413ZM70.5897 164.107C70.872 162.978 70.025 162.978 70.3074 162.131C71.4368 162.131 70.872 163.542 72.0015 163.542C72.0015 161.848 68.0485 160.719 68.0485 161.566C69.4603 161.848 68.8955 164.107 70.5897 164.107ZM75.3898 163.542C75.9545 163.542 76.5192 163.542 76.8016 163.825C77.0839 162.695 76.2369 162.695 76.5192 161.848C76.2369 161.848 75.3898 161.848 75.3898 162.131C76.2368 162.131 75.3898 163.26 75.3898 163.542ZM74.2604 163.26C73.978 163.26 73.978 162.695 73.978 162.131C73.6956 162.131 73.4133 162.131 72.8486 162.131C72.5662 163.26 74.2604 163.825 74.2604 163.26ZM68.0485 163.825C67.4837 163.542 67.4837 162.413 66.6367 162.413C66.072 162.978 66.3543 164.107 66.919 164.389C66.919 163.825 66.919 163.542 67.4838 163.825C67.7661 164.107 68.0485 164.389 68.0485 163.825ZM72.0015 165.519C73.6956 164.954 73.6956 166.931 75.9545 166.084C76.2369 164.389 74.8251 164.672 74.2604 163.542C73.6956 164.672 71.4368 163.825 72.0015 165.519ZM83.8605 166.931C83.2958 166.366 82.7311 165.237 81.884 164.954C82.1664 166.084 80.7546 165.519 81.3193 166.648C82.1664 165.519 83.2958 167.495 83.8605 166.931ZM123.108 180.202C121.979 180.484 121.979 179.637 121.132 179.919C120.85 181.331 123.108 181.331 123.108 180.202ZM72.8486 182.46C73.4133 183.307 76.2368 185.002 76.8016 182.743C75.1074 182.46 73.978 180.484 72.8486 182.46ZM112.096 187.543C112.096 185.566 114.073 187.825 113.791 185.849C112.661 185.566 110.685 186.978 112.096 187.543ZM105.037 187.825C105.885 188.108 105.885 187.261 106.732 187.543C106.732 186.696 106.167 186.413 105.32 186.413C105.32 186.978 105.037 187.261 105.037 187.825ZM101.367 193.19C101.649 194.037 101.649 194.884 102.779 194.884C102.779 194.319 103.061 194.037 103.061 193.472C102.214 193.19 101.932 192.625 101.367 193.19ZM92.896 198.837C92.896 200.814 94.3078 199.402 94.3078 198.272C93.7431 198.272 94.0254 197.708 93.7431 197.708C92.896 198.273 94.0255 199.402 93.4608 199.402C93.1784 198.837 93.1784 198.837 92.896 198.837ZM92.6137 201.943C93.1784 201.943 93.1784 202.508 93.7431 202.508C94.3078 201.943 94.3078 200.249 93.1784 200.531C92.896 201.096 92.6137 201.378 92.6137 201.943Z" fill="white"/>
<path fill-rule="evenodd" clip-rule="evenodd" d="M95.4395 35.0696C95.7218 34.2225 96.5689 35.9167 97.1336 35.6343C97.1336 36.4814 96.2865 36.199 96.0042 37.0461C95.1571 37.3284 96.2865 35.0696 95.4395 35.0696Z" fill="white"/>
<path fill-rule="evenodd" clip-rule="evenodd" d="M135.816 164.954C135.533 165.237 135.533 165.801 135.533 166.366C134.686 165.801 134.969 166.648 134.122 166.084C135.533 165.519 133.839 164.672 132.992 164.39C132.428 163.543 135.251 164.39 135.816 164.954Z" fill="white"/>
<path fill-rule="evenodd" clip-rule="evenodd" d="M35.2963 3.72852C36.4257 5.14031 33.8845 3.72851 34.1669 5.42266C33.6021 5.70502 33.0374 4.29323 32.7551 5.42266C31.6256 4.29323 35.0139 4.57559 35.2963 3.72852Z" fill="white"/>
<path fill-rule="evenodd" clip-rule="evenodd" d="M68.8965 11.3518C68.8965 11.0695 69.4612 11.0695 69.4612 10.7871C70.3083 11.0695 70.3082 12.1989 71.1553 12.1989C70.5906 12.7636 69.7436 11.3518 68.8965 11.3518Z" fill="white"/>
<path fill-rule="evenodd" clip-rule="evenodd" d="M76.2361 18.9755C77.0832 18.6931 77.3656 20.3873 77.6479 19.5402C77.9303 19.5402 77.9303 19.5402 77.9303 19.8226C77.9303 20.1049 77.9303 20.3873 77.9303 20.3873C77.3656 20.1049 75.9538 20.1049 76.2361 18.9755Z" fill="white"/>
<path fill-rule="evenodd" clip-rule="evenodd" d="M38.6817 31.6819C40.9406 30.8348 39.8112 33.6584 41.5053 33.3761C42.3524 33.0937 41.7877 31.6819 40.9406 31.9643C44.0466 30.8348 46.5878 31.6819 49.6938 31.6819C48.282 33.9408 46.3055 31.3995 44.0466 32.2466C43.1995 32.529 44.6113 33.0937 43.7642 33.6584C41.7877 33.0937 40.9406 35.0702 39.8112 34.2231C40.0936 33.9408 40.3759 33.6584 40.9406 33.6584C40.3759 32.529 38.3994 33.376 38.6817 31.6819Z" fill="white"/>
<path fill-rule="evenodd" clip-rule="evenodd" d="M30.7758 40.1523C31.6229 40.7171 29.9287 41.2818 29.6463 41.8465C28.5169 41.2818 30.4934 40.7171 30.7758 40.1523Z" fill="white"/>
<path fill-rule="evenodd" clip-rule="evenodd" d="M17.2227 48.3418C17.505 48.9065 19.4815 50.3183 17.505 50.3183C17.7874 49.4712 17.2227 49.1889 17.2227 48.3418Z" fill="white"/>
<path fill-rule="evenodd" clip-rule="evenodd" d="M33.6017 104.813C34.1664 104.813 36.1429 105.378 35.2958 106.508C36.1429 106.508 36.4253 105.943 36.99 106.508C36.4253 107.919 33.884 105.943 33.6017 104.813Z" fill="white"/>
<path fill-rule="evenodd" clip-rule="evenodd" d="M213.181 106.507C214.029 105.942 214.311 106.789 214.876 106.225C215.723 106.225 215.158 107.354 215.158 107.919C213.746 108.766 213.464 107.354 212.617 107.919C212.052 107.636 214.029 107.636 213.181 106.507Z" fill="white"/>
<path fill-rule="evenodd" clip-rule="evenodd" d="M29.9314 122.036C29.9314 124.013 31.9079 124.295 32.4726 125.989C31.3432 126.554 28.802 122.318 29.9314 122.036Z" fill="white"/>
<path fill-rule="evenodd" clip-rule="evenodd" d="M44.6117 122.036C45.4588 122.601 45.7411 122.883 46.5882 122.318C46.5882 122.601 46.5882 122.883 46.8706 122.883C47.1529 123.166 44.3293 123.448 44.6117 122.036Z" fill="white"/>
<path fill-rule="evenodd" clip-rule="evenodd" d="M64.9434 126.555C66.3552 127.966 67.4846 129.661 68.3317 131.355C66.9199 131.072 67.2022 128.814 65.5081 128.814C66.0728 127.402 64.9434 127.684 64.9434 126.555Z" fill="white"/>
<path fill-rule="evenodd" clip-rule="evenodd" d="M33.6017 139.825C34.7311 140.108 34.1664 141.802 35.2958 141.802C35.0135 142.366 34.7311 141.802 33.884 142.084C34.4487 140.955 33.884 140.955 33.6017 139.825Z" fill="white"/>
<path fill-rule="evenodd" clip-rule="evenodd" d="M178.447 140.107C178.447 139.825 180.988 139.825 181.271 140.39C181.271 141.237 179.577 140.672 178.447 141.519C178.447 141.237 179.294 140.107 178.447 140.107Z" fill="white"/>
<path fill-rule="evenodd" clip-rule="evenodd" d="M46.308 152.249C46.308 152.814 46.5903 153.096 46.8727 153.378C46.0256 153.378 44.6138 152.814 43.4844 152.249C44.6138 151.684 45.1785 153.096 46.308 152.249Z" fill="white"/>
<path fill-rule="evenodd" clip-rule="evenodd" d="M58.7306 162.131C56.7541 159.025 53.9305 157.048 52.2363 153.66C54.4952 155.637 55.907 157.896 59.2953 157.896C59.5777 159.307 58.4482 159.025 58.7306 159.872C60.4247 160.437 60.7071 161.566 62.1189 161.566C60.9894 163.26 59.5777 160.437 58.7306 162.131Z" fill="white"/>
<path fill-rule="evenodd" clip-rule="evenodd" d="M49.1298 156.202C49.9769 156.767 50.2592 157.896 51.671 157.896C49.9768 157.614 49.1298 158.743 47.4356 159.308C47.1533 158.179 48.2827 158.461 48.565 157.896C48.0003 157.332 47.1533 157.332 46.8709 156.767C47.718 155.92 49.1298 157.049 49.4121 157.896C50.5416 157.332 48.0004 156.767 49.1298 156.202Z" fill="white"/>
<path fill-rule="evenodd" clip-rule="evenodd" d="M133.838 170.603C134.121 170.885 134.121 171.167 134.403 171.167C133.556 172.297 131.579 172.861 130.168 173.708C129.603 172.297 132.709 171.45 133.838 170.603Z" fill="white"/>
<path fill-rule="evenodd" clip-rule="evenodd" d="M66.3535 172.014C66.9182 171.731 67.7653 171.731 68.8948 172.014C68.6124 173.143 66.6359 172.578 66.3535 172.014Z" fill="white"/>
<path fill-rule="evenodd" clip-rule="evenodd" d="M49.6953 160.438C50.5424 160.156 54.4954 159.591 54.4954 162.132C52.5189 161.567 52.5189 162.697 50.5424 162.132C50.8248 161.003 50.26 160.72 49.6953 160.438Z" fill="white"/>
</svg>
