<svg width="250" height="164" viewBox="0 0 250 164" fill="none" xmlns="http://www.w3.org/2000/svg">
<mask id="mask0_54_12016" style="mask-type:luminance" maskUnits="userSpaceOnUse" x="0" y="0" width="250" height="164">
<path d="M0 0H249.537V163.622H0V0Z" fill="white"/>
</mask>
<g mask="url(#mask0_54_12016)">
<path d="M240.398 1.91115C233.221 -1.15237 224.967 1.40984 218.184 4.28854C211.629 7.07102 205.459 10.7118 199.828 15.0665C193.329 20.0973 187.46 26.1332 182.665 32.9033C181.004 31.5513 179.283 30.298 177.525 29.1638C164.036 20.4644 147.457 18.639 131.892 21.5835C105.459 26.5889 83.4325 44.3649 70.3151 67.3362C68.4542 67.0602 66.5831 66.8552 64.7071 66.726C48.4274 65.6019 32.1072 69.706 17.5492 76.8534C11.2348 79.9549 3.65446 83.6842 1.05427 90.7253C-0.811692 95.7763 0.677025 101.87 5.86981 103.772C6.72557 104.121 7.66995 104.324 8.67761 104.341C12.9032 104.592 17.458 102.372 18.4682 97.9992C19.6632 92.8267 15.3414 87.2085 10.1739 86.5579C6.30782 86.0692 3.26203 88.5226 1.82648 91.7912C2.0113 91.1835 2.2341 90.5961 2.49488 90.0366C5.49004 83.626 13.0324 80.1954 19.0758 77.3015C32.3958 70.9187 47.164 67.1615 61.9955 67.6578C64.5779 67.7438 67.1705 67.9793 69.7429 68.354C68.0719 71.3593 66.5502 74.4507 65.1957 77.6104C59.5396 90.781 56.076 105.291 56.709 119.682C57.2812 132.784 61.5043 146.266 71.5278 155.239C76.8624 160.016 83.7667 163.356 91.0178 163.495C97.95 163.627 104.515 160.629 109.688 156.15C120.435 146.848 124.798 131.992 123.425 118.148C122.023 103.972 114.88 91.1329 103.953 82.0537C94.7042 74.3696 83.3312 69.468 71.4898 67.516C80.2348 52.2794 92.7901 39.3595 108.561 30.9816C120.997 24.371 135.208 20.667 149.341 21.4113C161.36 22.0417 172.809 26.2623 182.05 33.7996C178.452 39.0278 175.5 44.6763 173.391 50.6312C170.915 57.614 169.474 65.4145 170.535 72.8151C171.388 78.7776 174.437 85.0261 180.657 86.8111C186.081 88.3681 192.058 86.0692 195.988 82.2639C201.074 77.3319 202.211 69.863 201.191 63.1156C199.459 51.6794 192.425 41.1672 183.534 33.6274C189.921 24.5609 198.18 16.811 207.616 10.9751C213.336 7.43814 219.607 4.32905 226.139 2.63019C231.886 1.13388 238.474 1.12375 243.12 4.81769C238.479 2.94414 232.492 4.84807 230.339 9.55981C228.063 14.5501 230.696 21.186 235.978 22.9355C241.181 24.6597 247.45 21.4063 248.69 16.0084C250.037 10.1244 245.657 4.15182 240.409 1.91115H240.398ZM3.5861 90.7101C7.18383 85.3704 14.3945 87.682 16.82 92.8773C17.22 93.7407 17.4504 94.5863 17.5314 95.4041C17.5314 95.4117 17.5314 95.4167 17.5314 95.4243C17.5238 99.8145 13.2197 103.248 8.96371 103.291C7.66994 103.235 6.37365 102.919 5.23179 102.321C1.41885 100.02 1.18845 94.2724 3.5861 90.7101ZM120.949 110.327C124.167 122.831 122.77 136.764 115.617 147.707C112.093 153.097 107.133 157.728 101.193 160.33C94.7042 163.179 87.4885 162.986 81.0222 160.153C69.3555 155.039 62.1626 143.56 59.3548 131.526C56.5166 119.375 57.542 106.592 60.5675 94.5863C62.8639 85.4818 66.3401 76.6888 70.8949 68.5363C93.6788 72.253 114.979 87.1579 120.944 110.327H120.949ZM186.055 37.4226C190.509 41.8685 194.198 47.0714 196.851 52.7756C199.889 59.3027 201.656 67.0223 199.58 74.0987C197.897 79.8333 193.354 84.3805 187.493 85.8135C181.417 87.3022 175.865 84.3375 173.28 78.7168C170.49 72.6455 170.943 65.2652 172.206 58.8824C173.621 51.7401 176.487 44.9422 180.207 38.7012C181.055 37.2783 181.951 35.8782 182.888 34.5085C183.974 35.4351 185.032 36.4023 186.05 37.4226H186.055ZM247.645 15.7223C246.979 18.7048 244.601 20.9404 241.745 21.8645C235.636 23.8368 229.937 18.7124 230.631 12.4588C231.317 6.28615 238.831 3.31378 243.918 6.41781C244.209 6.59504 244.49 6.46085 244.627 6.23552C244.943 6.57985 245.247 6.95202 245.538 7.34699C247.288 9.73198 248.303 12.7752 247.647 15.7248L247.645 15.7223Z" fill="#121212"/>
</g>
</svg>
