<svg width="146" height="57" viewBox="0 0 146 57" fill="none" xmlns="http://www.w3.org/2000/svg">
<path d="M1.88757 18.2075C3.12138 18.4187 4.29196 17.5853 4.50358 16.3455L4.5038 16.3442L4.50593 16.3325C4.50884 16.3166 4.51409 16.2885 4.52187 16.249C4.53744 16.1699 4.56311 16.0454 4.60039 15.8822C4.67507 15.5551 4.79564 15.0755 4.97392 14.4947C5.33304 13.3247 5.91312 11.7877 6.79573 10.2714C8.55951 7.24115 11.3384 4.55996 15.876 4.55996C20.5991 4.55996 24.2507 7.38537 28.6364 10.9023L28.8702 11.0898C31.1635 12.9299 33.684 14.9523 36.5905 16.3753C38.872 17.4923 41.3914 18.2398 44.2253 18.2398C47.0468 18.2398 49.5565 17.4988 51.83 16.39C54.7492 14.9663 57.2793 12.9363 59.5805 11.0898L59.8143 10.9023C64.1999 7.38537 67.8516 4.55996 72.5747 4.55996C77.2978 4.55996 80.9494 7.38537 85.3351 10.9023L85.5688 11.0898C87.8918 12.9538 90.448 15.0047 93.4022 16.4302C95.6539 17.5167 98.1368 18.2398 100.924 18.2398C103.699 18.2398 106.172 17.5232 108.416 16.4448C111.383 15.0187 113.948 12.9601 116.279 11.0898L116.513 10.9023C120.899 7.38537 124.55 4.55996 129.273 4.55996C133.846 4.55996 136.85 7.28179 138.833 10.3593C139.819 11.8909 140.5 13.44 140.934 14.6156C141.149 15.1997 141.301 15.6821 141.396 16.0112C141.444 16.1756 141.478 16.3009 141.498 16.3809C141.509 16.4208 141.516 16.4493 141.52 16.4656L141.523 16.4768L141.523 16.4792L141.523 16.4802L141.524 16.481C141.809 17.705 143.027 18.4656 144.246 18.1805C145.466 17.895 146.224 16.6693 145.94 15.4429L143.732 15.9599C145.94 15.4429 145.94 15.442 145.94 15.441L145.939 15.4389L145.938 15.4335L145.935 15.4192L145.924 15.3756C145.916 15.3401 145.904 15.2918 145.888 15.2316C145.857 15.1111 145.811 14.9426 145.75 14.7329C145.629 14.3139 145.444 13.7275 145.186 13.0292C144.674 11.6398 143.857 9.76894 142.64 7.88052C140.216 4.11811 135.991 0 129.273 0C122.829 0 118.012 3.86546 113.918 7.15L113.684 7.33754C109.299 10.8545 105.647 13.6799 100.924 13.6799C96.2009 13.6799 92.5493 10.8545 88.1636 7.33754L87.9299 7.15C83.8363 3.86546 79.0189 0 72.5747 0C66.1305 0 61.313 3.86545 57.2195 7.15L56.9857 7.33754C52.6001 10.8545 48.9484 13.6799 44.2253 13.6799C39.5022 13.6799 35.8506 10.8545 31.4649 7.33754L31.2312 7.15C27.1377 3.86545 22.3202 0 15.876 0C9.12323 0 5.09828 4.15875 2.88081 7.96844C1.77279 9.87207 1.0679 11.7551 0.63969 13.1501C0.424307 13.8518 0.27563 14.4409 0.179483 14.8619C0.131348 15.0727 0.0961992 15.2422 0.0723148 15.3635C0.0603679 15.4242 0.0512246 15.4729 0.0446716 15.5087L0.0367531 15.5528L0.0341977 15.5675L0.0332621 15.5729L0.0328786 15.5752C0.0327102 15.5762 0.032551 15.5771 2.26831 15.9599L0.0325509 15.5771C-0.177726 16.8184 0.652795 17.9961 1.88757 18.2075Z" fill="white"/>
<path d="M4.50357 35.7254C4.29196 36.9651 3.12138 37.7985 1.88757 37.5873C0.652795 37.3759 -0.177726 36.1983 0.0325509 34.9569L2.26831 35.3397C0.032551 34.9569 0.0327102 34.956 0.0328786 34.955L0.0332621 34.9528L0.0341977 34.9473L0.0367531 34.9327L0.0446716 34.8886C0.0512246 34.8527 0.0603679 34.804 0.0723148 34.7433C0.0961992 34.622 0.131348 34.4526 0.179483 34.2418C0.27563 33.8207 0.424307 33.2316 0.63969 32.5299C1.0679 31.1349 1.77279 29.2519 2.88081 27.3483C5.09828 23.5386 9.12323 19.3798 15.876 19.3798C22.3202 19.3798 27.1377 23.2453 31.2312 26.5298L31.4649 26.7174C35.8506 30.2343 39.5022 33.0597 44.2253 33.0597C48.9484 33.0597 52.6001 30.2343 56.9857 26.7174L57.2195 26.5298C61.313 23.2453 66.1305 19.3798 72.5747 19.3798C79.0189 19.3798 83.8363 23.2453 87.9299 26.5298L88.1636 26.7174C92.5493 30.2343 96.2009 33.0597 100.924 33.0597C105.647 33.0597 109.299 30.2343 113.684 26.7174L113.918 26.5298C118.012 23.2453 122.829 19.3798 129.273 19.3798C135.991 19.3798 140.216 23.4979 142.64 27.2603C143.857 29.1488 144.674 31.0196 145.186 32.409C145.444 33.1074 145.629 33.6937 145.75 34.1127C145.811 34.3224 145.857 34.4909 145.888 34.6114C145.904 34.6716 145.916 34.7199 145.924 34.7554L145.935 34.799L145.938 34.8134L145.939 34.8187L145.94 34.8209C145.94 34.8218 145.94 34.8227 143.732 35.3397L145.94 34.8227C146.224 36.0491 145.466 37.2748 144.246 37.5603C143.027 37.8455 141.809 37.0848 141.524 35.8609L141.523 35.8601L141.523 35.859L141.523 35.8566L141.52 35.8455C141.516 35.8292 141.509 35.8007 141.498 35.7607C141.478 35.6808 141.444 35.5554 141.396 35.3911C141.301 35.0619 141.149 34.5795 140.934 33.9954C140.5 32.8198 139.819 31.2707 138.833 29.7391C136.85 26.6616 133.846 23.9398 129.273 23.9398C124.55 23.9398 120.899 26.7652 116.513 30.2821L116.279 30.4697C113.948 32.3399 111.383 34.3985 108.416 35.8246C106.172 36.903 103.699 37.6197 100.924 37.6197C98.1368 37.6197 95.6539 36.8965 93.4022 35.8101C90.448 34.3846 87.8918 32.3336 85.5688 30.4697L85.3351 30.2821C80.9494 26.7652 77.2978 23.9398 72.5747 23.9398C67.8516 23.9398 64.1999 26.7652 59.8143 30.2821L59.5805 30.4697C57.2793 32.3161 54.7492 34.3462 51.83 35.7699C49.5565 36.8787 47.0468 37.6197 44.2253 37.6197C41.3914 37.6197 38.872 36.8721 36.5905 35.7551C33.684 34.3322 31.1635 32.3098 28.8702 30.4697L28.6364 30.2821C24.2507 26.7652 20.5991 23.9398 15.876 23.9398C11.3384 23.9398 8.55951 26.621 6.79573 29.6512C5.91312 31.1676 5.33304 32.7045 4.97392 33.8745C4.79564 34.4553 4.67507 34.9349 4.60039 35.262C4.56311 35.4253 4.53744 35.5497 4.52187 35.6288C4.51409 35.6683 4.50884 35.6964 4.50593 35.7123L4.5038 35.7241L4.50357 35.7254Z" fill="white"/>
<path d="M4.5038 55.1039L4.5037 55.1045C4.29241 56.3446 3.12162 57.1784 1.88757 56.9671C0.652795 56.7557 -0.177726 55.5781 0.0325509 54.3368L2.26831 54.7195C0.032551 54.3368 0.0327102 54.3358 0.0328786 54.3348L0.0332621 54.3326L0.0341977 54.3271L0.0367531 54.3125L0.0446716 54.2684C0.0512246 54.2325 0.0603679 54.1838 0.0723148 54.1231C0.0961992 54.0019 0.131348 53.8324 0.179483 53.6216C0.27563 53.2005 0.424307 52.6114 0.63969 51.9098C1.0679 50.5147 1.77279 48.6317 2.88081 46.7281C5.09828 42.9184 9.12323 38.7597 15.876 38.7597C22.3202 38.7597 27.1377 42.6251 31.2312 45.9096L31.4649 46.0972C35.8506 49.6141 39.5022 52.4395 44.2253 52.4395C48.9484 52.4395 52.6001 49.6141 56.9857 46.0972L57.2195 45.9096C61.313 42.6251 66.1305 38.7597 72.5747 38.7597C79.0189 38.7597 83.8363 42.6251 87.9299 45.9097L88.1636 46.0972C92.5493 49.6141 96.2009 52.4395 100.924 52.4395C105.647 52.4395 109.299 49.6141 113.684 46.0972L113.918 45.9097C118.012 42.6251 122.829 38.7597 129.273 38.7597C135.991 38.7597 140.216 42.8778 142.64 46.6402C143.857 48.5286 144.674 50.3995 145.186 51.7888C145.444 52.4872 145.629 53.0735 145.75 53.4925C145.811 53.7023 145.857 53.8708 145.888 53.9912C145.904 54.0515 145.916 54.0998 145.924 54.1353L145.935 54.1788L145.938 54.1932L145.939 54.1985L145.94 54.2007C145.94 54.2017 145.94 54.2026 143.732 54.7195L145.94 54.2026C146.224 55.429 145.466 56.6546 144.246 56.9401C143.027 57.2253 141.809 56.4646 141.524 55.2407L141.523 55.2399L141.523 55.2389L141.523 55.2365L141.52 55.2253C141.518 55.2179 141.516 55.2081 141.513 55.1958C141.509 55.1809 141.504 55.1624 141.498 55.1405C141.478 55.0606 141.444 54.9352 141.396 54.7709C141.301 54.4418 141.149 53.9594 140.934 53.3752C140.5 52.1996 139.819 50.6505 138.833 49.119C136.85 46.0414 133.846 43.3196 129.273 43.3196C124.55 43.3196 120.899 46.145 116.513 49.662L116.279 49.8495C113.948 51.7197 111.383 53.7784 108.416 55.2044C106.172 56.2828 103.699 56.9995 100.924 56.9995C98.1368 56.9995 95.6539 56.2764 93.4022 55.1899C90.448 53.7644 87.8918 51.7134 85.5688 49.8495L85.3351 49.662C80.9494 46.145 77.2978 43.3196 72.5747 43.3196C67.8516 43.3196 64.1999 46.145 59.8143 49.662L59.5805 49.8495C57.2793 51.696 54.7492 53.726 51.83 55.1497C49.5565 56.2585 47.0468 56.9995 44.2253 56.9995C41.3914 56.9995 38.872 56.2519 36.5905 55.1349C33.684 53.712 31.1635 51.6896 28.8702 49.8495L28.6364 49.662C24.2507 46.145 20.5991 43.3196 15.876 43.3196C11.3384 43.3196 8.55951 46.0008 6.79573 49.0311C5.91312 50.5474 5.33304 52.0844 4.97392 53.2543C4.79564 53.8351 4.67507 54.3148 4.60039 54.6418C4.56311 54.8051 4.53744 54.9295 4.52187 55.0086C4.51409 55.0481 4.50884 55.0763 4.50593 55.0922L4.5038 55.1039Z" fill="white"/>
</svg>
