<svg width="36" height="158" viewBox="0 0 36 158" fill="none" xmlns="http://www.w3.org/2000/svg">
<path fill-rule="evenodd" clip-rule="evenodd" d="M3 6.07692C4.65685 6.07692 6 4.71656 6 3.03846C6 1.36037 4.65685 0 3 0C1.34315 0 0 1.36037 0 3.03846C0 4.71656 1.34315 6.07692 3 6.07692ZM3 36.4615C4.65685 36.4615 6 35.1012 6 33.4231C6 31.745 4.65685 30.3846 3 30.3846C1.34315 30.3846 0 31.745 0 33.4231C0 35.1012 1.34315 36.4615 3 36.4615ZM6 63.8077C6 65.4858 4.65685 66.8462 3 66.8462C1.34315 66.8462 0 65.4858 0 63.8077C0 62.1296 1.34315 60.7692 3 60.7692C4.65685 60.7692 6 62.1296 6 63.8077ZM3 97.2308C4.65685 97.2308 6 95.8704 6 94.1923C6 92.5142 4.65685 91.1538 3 91.1538C1.34315 91.1538 0 92.5142 0 94.1923C0 95.8704 1.34315 97.2308 3 97.2308ZM6 124.577C6 126.255 4.65685 127.615 3 127.615C1.34315 127.615 0 126.255 0 124.577C0 122.899 1.34315 121.538 3 121.538C4.65685 121.538 6 122.899 6 124.577ZM3 158C4.65685 158 6 156.64 6 154.962C6 153.283 4.65685 151.923 3 151.923C1.34315 151.923 0 153.283 0 154.962C0 156.64 1.34315 158 3 158ZM36 3.03846C36 4.71656 34.6569 6.07692 33 6.07692C31.3431 6.07692 30 4.71656 30 3.03846C30 1.36037 31.3431 0 33 0C34.6569 0 36 1.36037 36 3.03846ZM33 36.4615C34.6569 36.4615 36 35.1012 36 33.4231C36 31.745 34.6569 30.3846 33 30.3846C31.3431 30.3846 30 31.745 30 33.4231C30 35.1012 31.3431 36.4615 33 36.4615ZM36 63.8077C36 65.4858 34.6569 66.8462 33 66.8462C31.3431 66.8462 30 65.4858 30 63.8077C30 62.1296 31.3431 60.7692 33 60.7692C34.6569 60.7692 36 62.1296 36 63.8077ZM33 97.2308C34.6569 97.2308 36 95.8704 36 94.1923C36 92.5142 34.6569 91.1538 33 91.1538C31.3431 91.1538 30 92.5142 30 94.1923C30 95.8704 31.3431 97.2308 33 97.2308ZM36 124.577C36 126.255 34.6569 127.615 33 127.615C31.3431 127.615 30 126.255 30 124.577C30 122.899 31.3431 121.538 33 121.538C34.6569 121.538 36 122.899 36 124.577ZM33 158C34.6569 158 36 156.64 36 154.962C36 153.283 34.6569 151.923 33 151.923C31.3431 151.923 30 153.283 30 154.962C30 156.64 31.3431 158 33 158Z" fill="white"/>
</svg>
