<svg width="143" height="143" viewBox="0 0 143 143" fill="none" xmlns="http://www.w3.org/2000/svg">
<path d="M85.242 90.1557C92.7644 82.4035 100.759 75.1284 107.73 66.8184C112.462 61.177 117.793 56.0379 122.854 50.677C126.697 46.6076 130.547 42.5461 134.393 38.4815C133.834 37.4118 133.249 36.358 132.638 35.3232C126.058 42.337 119.475 49.3523 112.951 56.4183C107.838 61.9551 102.886 67.6377 97.8131 73.2141C96.0526 75.1521 94.2365 77.0537 92.3017 78.8127C85.2642 85.2132 78.6641 92.0462 72.1701 98.9886C67.9185 103.537 63.6716 108.091 59.3692 112.591C54.162 118.043 48.8566 123.399 43.6795 128.879C41.8381 130.829 40.1124 132.891 38.3867 134.951C39.3629 135.456 40.3533 135.94 41.3548 136.401C45.8204 131.446 50.2764 126.478 54.8815 121.654C64.9488 111.105 75.0859 100.619 85.242 90.1557Z" fill="#121212"/>
<mask id="mask0_54_12187" style="mask-type:luminance" maskUnits="userSpaceOnUse" x="63" y="61" width="80" height="82">
<path d="M63.0352 61.5957H142.392V143H63.0352V61.5957Z" fill="white"/>
</mask>
<g mask="url(#mask0_54_12187)">
<path d="M104.166 103.995C116.937 92.6742 128.839 80.4929 140.396 67.955C141.022 67.2768 141.645 66.5986 142.269 65.9188C142.157 64.4862 142 63.0664 141.805 61.6592C141.724 61.7479 141.643 61.8351 141.564 61.9238C129.556 75.1557 117.26 88.1088 103.838 99.9351C94.8515 107.858 86.4576 116.376 78.4439 125.272C73.308 130.974 68.2197 136.718 63.125 142.455C64.4656 142.607 65.8189 142.721 67.1833 142.795C69.5033 140.231 71.8042 137.647 74.0639 135.027C83.4911 124.09 93.3556 113.576 104.166 103.995Z" fill="#121212"/>
</g>
<path d="M103.802 89.086C115.843 76.5798 127.497 63.7028 139.555 51.2125C139.204 50.0304 138.826 48.8593 138.415 47.7041C131.78 54.6227 125.34 61.7252 118.723 68.6581C107.749 80.158 96.7768 91.6626 85.7935 103.155C77.0762 112.276 68.3685 121.41 59.6006 130.485C56.6373 133.552 54.0479 136.965 51.0957 140.044C52.2382 140.377 53.3919 140.684 54.5566 140.961C67.2371 126.679 80.534 112.979 93.9656 99.4069C97.3076 96.03 100.504 92.5088 103.802 89.086Z" fill="#121212"/>
<path d="M50.2364 109.862C56.293 102.951 62.7695 96.4791 69.5281 90.2688C75.1933 85.0632 80.7649 79.7545 86.3715 74.4808C89.1129 71.9025 91.8306 69.2974 94.5705 66.7144C96.5957 64.808 98.7144 62.992 100.664 61.0112C108.238 53.3002 115.832 45.6082 123.278 37.7753C125.462 35.4775 127.611 33.1465 129.733 30.7917C129.11 29.8947 128.465 29.0137 127.804 28.1484C127.376 28.6238 126.944 29.0976 126.508 29.5651C119.248 37.349 111.851 45.0077 104.457 52.6632C101.272 55.9608 98.0045 59.1825 94.6783 62.3375C87.6757 68.9868 80.6097 75.5695 73.5658 82.1775C71.2982 84.3041 68.9814 86.3864 66.7502 88.5542C62.0517 93.118 57.2327 97.5693 52.7624 102.347C44.9278 110.717 37.3119 119.289 29.62 127.787C29.2967 128.145 28.9782 128.51 28.666 128.877C29.5043 129.5 30.3568 130.107 31.2237 130.695C31.4915 130.405 31.7593 130.117 32.0239 129.825C38.109 123.181 44.3019 116.634 50.2364 109.862Z" fill="#121212"/>
<mask id="mask1_54_12187" style="mask-type:luminance" maskUnits="userSpaceOnUse" x="76" y="75" width="67" height="68">
<path d="M76.4219 75.3887H142.391V142.73H76.4219V75.3887Z" fill="white"/>
</mask>
<g mask="url(#mask1_54_12187)">
<path d="M114.859 105.966C123.814 97.4009 132.948 89.0292 141.928 80.491C142.126 78.9111 142.271 77.3137 142.363 75.7021C141.39 76.6704 140.41 77.6323 139.414 78.5751C130.365 87.1212 121.241 95.5865 112.167 104.106C99.3754 116.117 87.8835 129.324 76.5801 142.702C78.1188 142.586 79.6401 142.416 81.1518 142.202C83.0471 139.993 84.9978 137.827 86.8756 135.599C95.6515 125.197 105.028 115.369 114.859 105.966Z" fill="#121212"/>
</g>
<path d="M58.8629 84.8741C69.2536 75.3597 79.5111 65.7202 89.3138 55.599C94.0979 50.6596 98.8123 45.6299 103.891 41.0074C110.466 35.0206 116.69 28.7105 122.685 22.1706C121.937 21.3893 121.172 20.6239 120.391 19.876C115.698 25.015 110.894 30.0685 105.823 34.8209C100.562 39.7492 95.4449 44.8106 90.3581 49.9117C87.9304 52.3457 85.5455 54.8241 83.1463 57.2898C75.0344 65.6268 66.5105 73.5295 57.9423 81.3894C46.4693 91.9131 35.3672 102.806 25.7657 115.124C24.3601 116.929 22.7358 118.562 21.205 120.267C20.8532 120.657 20.5014 121.047 20.1465 121.435C20.8659 122.174 21.6044 122.896 22.3555 123.602C24.6612 121.168 26.9653 118.73 29.0428 116.114C38.0389 104.789 48.2283 94.6086 58.8629 84.8741Z" fill="#121212"/>
<path d="M31.9466 95.3282C37.2964 89.5664 42.8966 84.0359 48.4651 78.4849C52.7579 74.2063 57.2124 70.0909 61.5274 65.8361C67.0104 60.4308 72.4315 54.9637 77.8637 49.5077C79.5973 47.7662 81.2359 45.9296 82.9917 44.2086C92.9339 34.455 102.878 24.6998 112.866 14.9922C113.135 14.7323 113.406 14.4708 113.674 14.2094C112.812 13.5676 111.934 12.9416 111.042 12.3379C110.641 12.7214 110.238 13.1033 109.839 13.4868C103.225 19.846 96.6467 26.2449 90.1037 32.6786C85.3148 37.3898 80.5909 42.1692 75.8718 46.9485C71.6138 51.2604 67.5555 55.7846 63.1295 59.9158C55.9399 66.6268 48.923 73.5074 41.9283 80.415C32.9449 89.2922 24.4131 98.5799 16.1174 108.094C14.9368 109.451 13.8592 110.901 12.8086 112.363C12.7801 112.408 12.7531 112.455 12.7246 112.5C13.3109 113.336 13.9179 114.162 14.5406 114.972C14.8211 114.699 15.0762 114.385 15.3345 114.091C20.865 107.831 26.2671 101.45 31.9466 95.3282Z" fill="#121212"/>
<path d="M16.215 97.322C25.4884 86.2531 35.4607 75.8704 46.3299 66.3228C53.342 60.1632 59.8724 53.4585 65.6628 46.0819C66.8719 44.5432 68.2378 43.0996 69.6846 41.7796C74.044 37.8084 78.508 33.9482 82.8801 29.9897C88.5881 24.8221 94.296 19.6497 99.9105 14.3792C101.831 12.5758 103.747 10.7756 105.775 9.10858C104.836 8.58405 103.883 8.08172 102.92 7.60156C101.069 9.16404 99.2322 10.7424 97.4321 12.3587C91.4626 17.726 85.5756 23.1835 79.6268 28.5761C75.3767 32.4253 71.0569 36.2015 66.8211 40.0665C65.6168 41.1663 64.5139 42.4007 63.4997 43.6811C56.8631 52.0656 49.2663 59.504 41.3255 66.6318C34.372 72.8675 27.6198 79.3107 21.4903 86.4005C16.7474 91.8897 12.1757 97.5565 6.84961 102.501C7.31075 103.458 7.79565 104.402 8.29799 105.336C11.0949 102.835 13.7841 100.223 16.215 97.322Z" fill="#121212"/>
<path d="M25.129 70.757C29.425 66.0316 33.7812 61.379 38.4116 56.9816C42.8011 52.8139 47.0765 48.5211 51.5374 44.4311C56.4784 39.8989 61.5477 35.5015 66.6123 31.104C71.0572 27.2454 75.6385 23.542 80.0407 19.6327C85.4713 14.809 90.2 9.24205 95.7035 4.48647C94.6354 4.09348 93.5547 3.72584 92.4629 3.38672C90.2919 5.29307 88.1367 7.22319 86.0307 9.20084C82.573 12.4446 79.3403 15.9325 75.8207 19.1018C71.8131 22.7117 67.552 26.0379 63.4746 29.5717C48.75 42.3314 34.45 55.5316 21.489 70.1216C19.9693 71.833 18.3482 73.4557 16.7525 75.099C12.4184 79.5567 8.05108 83.9842 3.74397 88.4672C3.23212 89.0013 2.73771 89.5511 2.24805 90.1074C2.58558 91.3656 2.95798 92.6111 3.36206 93.8424C5.08776 91.9487 6.79286 90.0424 8.55342 88.1852C14.0649 82.3631 19.7364 76.6869 25.129 70.757Z" fill="#121212"/>
<path d="M113.491 124.195C120.299 117.801 127.004 111.297 132.721 103.854C134.077 102.089 135.57 100.423 137.093 98.7909C138.104 96.3474 138.985 93.8373 139.722 91.2686C136.557 94.6328 133.453 98.0462 130.495 101.585C123.955 109.407 116.851 116.628 109.426 123.567C104.219 128.438 99.2831 133.562 94.6289 138.945C96.9853 138.122 99.2862 137.179 101.522 136.127C105.365 132.013 109.376 128.058 113.491 124.195Z" fill="#121212"/>
<mask id="mask2_54_12187" style="mask-type:luminance" maskUnits="userSpaceOnUse" x="0" y="0" width="82" height="83">
<path d="M0 0.338867H81.6957V82.2849H0V0.338867Z" fill="white"/>
</mask>
<g mask="url(#mask2_54_12187)">
<path d="M14.8524 66.2759C17.7603 62.9354 20.8377 59.7899 24.1544 56.8535C30.8939 50.8888 37.4798 44.7815 43.4001 37.9532C48.7547 31.7778 54.2455 25.6975 60.3211 20.1908C65.1686 15.7949 69.9907 11.3721 74.8239 6.96041C77.0678 4.90986 79.2087 2.73253 81.6459 0.914927C80.1991 0.700997 78.7396 0.533023 77.2675 0.40625C76.884 0.721598 76.5037 1.03853 76.1329 1.36656C73.0729 4.0795 70.2474 7.06183 67.132 9.70505C58.1232 17.3447 49.837 25.7085 42.1007 34.6096C35.8555 41.7929 29.0272 48.3486 21.9137 54.6492C19.1041 57.1387 16.4957 59.8675 13.9095 62.5931C10.3076 66.3916 6.79757 70.2756 3.27487 74.1469C2.1973 75.3322 1.12607 76.5223 0.0722656 77.7298C0.202208 79.2495 0.378105 80.7565 0.601543 82.2493C2.37161 80.1829 4.1084 78.0896 5.91808 76.0628C8.85922 72.7667 11.9541 69.6053 14.8524 66.2759Z" fill="#121212"/>
</g>
<mask id="mask3_54_12187" style="mask-type:luminance" maskUnits="userSpaceOnUse" x="0" y="0" width="71" height="67">
<path d="M0 0H70.3368V66.4639H0V0Z" fill="white"/>
</mask>
<g mask="url(#mask3_54_12187)">
<path d="M40.4226 26.9158C42.6554 24.7591 45.1703 22.8971 47.5663 20.9084C50.5898 18.3951 53.6625 15.9389 56.6448 13.3796C60.6223 9.96787 64.5444 6.48478 68.4696 3.01279C69.0717 2.48034 69.6628 1.88926 70.0796 1.21261C70.227 0.973327 70.1984 0.493175 70.0637 0.157227C69.0543 0.171489 68.0465 0.204766 67.045 0.261814C66.7138 0.455143 66.3921 0.661149 66.1037 0.902018C62.9565 3.52305 59.8775 6.2249 56.7605 8.88079C52.8955 12.1753 49.0131 15.4445 45.1481 18.7358C42.405 21.0716 39.5764 23.3202 36.9649 25.7939C30.4234 31.9947 23.958 38.2763 17.5116 44.5753C11.8226 50.1327 6.16699 55.7218 0.525593 61.3299C0.284724 63.016 0.102488 64.7243 -0.0195312 66.4468C0.871049 65.4754 1.77431 64.5151 2.7156 63.5928C15.2408 51.3228 27.8087 39.094 40.4226 26.9158Z" fill="#121212"/>
</g>
<path d="M30.9784 24.1272C39.0428 16.1928 47.6364 8.87479 56.3441 1.68359C53.8086 2.21921 51.3239 2.88952 48.8962 3.68661C47.3385 5.01138 45.7918 6.34725 44.2563 7.69422C40.3152 11.1488 36.3156 14.5526 32.59 18.2275C28.6093 22.1574 24.3815 25.7308 19.7685 28.8812C15.4979 31.8001 11.5917 35.1548 7.80749 38.6458C6.5144 41.1338 5.36552 43.7088 4.36719 46.3584C10.278 40.5205 16.4629 35.0075 23.3087 30.2424C25.9899 28.3756 28.6585 26.4091 30.9784 24.1272Z" fill="#121212"/>
</svg>
