<svg width="249" height="244" viewBox="0 0 249 244" fill="none" xmlns="http://www.w3.org/2000/svg">
<path d="M101.857 240.42C102.896 239.381 103.934 238.689 104.973 237.65C129.555 216.53 152.751 194.026 174.563 169.791C192.913 149.364 208.493 126.859 219.918 101.931C225.458 89.8135 229.959 77.6958 231.69 64.5394C232.729 55.8839 232.729 46.8821 229.959 38.5728C223.727 17.7996 210.916 9.14405 192.567 7.41295C179.064 6.02807 167.293 10.1827 156.214 18.1458C148.25 23.6854 141.326 30.6098 135.094 38.2266C128.516 46.1897 122.63 54.499 117.437 63.1545C116.398 65.2319 116.052 66.6167 117.091 69.0403C123.323 81.8505 123.669 95.3531 121.245 109.202C120.207 114.741 117.783 119.935 113.975 124.436C106.358 133.784 95.2788 132.745 88.0082 128.244C84.8922 126.167 82.8147 123.397 81.776 119.589C79.6987 111.972 79.6988 104.701 81.4299 97.0842C84.1997 84.9665 89.3929 74.2336 95.6249 63.5007C96.6635 62.1158 97.3561 60.3848 98.3948 58.9999C91.1242 45.1511 77.6215 38.5728 62.734 42.035C50.9625 44.8048 40.2296 50.3444 31.2279 58.6537C21.8799 67.6554 17.7253 78.7345 16.3404 91.1984C14.9555 102.624 16.6865 113.703 20.1487 124.782C27.0732 147.286 40.2296 165.29 55.8096 181.908C66.8886 193.334 78.314 204.413 89.7393 215.492C91.1242 216.877 92.8553 218.262 93.2015 220.685C90.4317 222.416 88.008 221.724 85.9307 219.993C70.3508 208.567 54.7709 196.796 41.2682 182.601C30.5354 171.175 20.8412 159.058 13.2243 145.555C5.60746 132.053 0.414186 117.857 0.0679647 102.278C-0.624477 83.2354 3.87644 65.2319 18.0715 51.7292C36.075 34.7644 57.5407 28.1862 82.1224 35.4569C89.393 37.5342 95.625 41.3426 101.165 46.1897C102.203 47.2283 103.242 47.9208 104.627 48.9595C105.665 47.5746 106.704 46.5359 107.396 45.4972C116.398 33.7257 126.439 23.6853 138.556 15.0298C164.523 -3.66613 192.221 -4.35857 219.572 9.83649C240.692 20.5693 249.693 39.2653 248.308 63.1545C247.616 75.2723 243.807 86.6976 239.307 97.7766C230.651 118.55 218.533 136.9 204.338 153.864C179.41 183.986 151.02 210.298 118.822 233.149C115.013 235.919 110.512 238.342 106.358 240.766C105.319 241.805 103.588 242.497 101.857 240.42ZM108.089 80.1193C103.242 88.0824 99.4334 96.0455 97.0098 105.047C95.625 109.894 95.625 114.741 95.9712 119.935C95.9712 120.627 96.6636 121.666 97.0098 122.358C100.818 119.935 103.588 116.819 105.665 111.625C109.82 101.585 110.166 91.1984 108.089 80.1193Z" fill="#F8F8F8"/>
<path d="M220.958 71.8092C214.726 72.1555 212.649 70.0781 212.649 64.8848C212.649 54.8444 209.533 45.4964 205.032 36.8409C199.839 26.4543 191.183 22.9921 180.104 26.1081C174.911 27.493 170.41 29.5703 166.256 32.34C164.871 33.3787 163.14 34.4174 161.755 35.1098C160.024 35.8022 158.639 35.8022 157.254 34.0711C157.6 31.6476 159.331 30.2627 161.408 28.5316C173.526 18.145 189.799 17.1063 203.301 25.7619C215.073 33.3787 221.997 44.1115 221.997 58.3066C221.997 62.8075 221.997 67.3084 220.958 71.8092Z" fill="#F8F8F8"/>
<path d="M72.4254 57.6161C71.0405 57.6161 70.3479 57.9624 69.6554 57.9624C63.0772 56.9237 57.1916 59.3472 51.9983 63.1557C42.3041 70.4263 36.0721 79.7743 32.9561 91.5458C32.2637 93.6231 31.5712 95.7004 30.8788 97.7778C30.8788 98.124 30.1864 98.4702 29.8401 98.8164C26.7242 98.8164 25.6854 96.7391 25.6854 94.6617C25.3392 91.892 25.3392 89.1222 25.6854 86.3525C29.8401 65.5792 43.6889 53.8077 65.1546 53.1152C68.963 53.4615 70.0018 54.1539 72.4254 57.6161Z" fill="#F8F8F8"/>
<path d="M116.743 241.112C119.166 239.38 121.59 237.649 124.013 235.918C128.168 232.802 132.323 229.686 136.824 226.57C139.247 224.839 139.247 224.839 142.017 227.263C137.17 232.802 130.938 236.957 124.36 240.765C122.975 241.458 121.59 242.15 120.205 242.496C119.166 242.843 117.781 242.15 116.396 242.15C116.743 242.15 116.743 241.458 116.743 241.112Z" fill="#F8F8F8"/>
<path d="M142.711 237.997C140.634 239.728 138.556 241.459 136.133 243.19C134.402 244.575 132.67 244.229 131.632 241.805C134.055 240.074 136.479 237.997 139.249 236.266C140.98 235.227 141.672 236.266 142.711 237.997Z" fill="#F8F8F8"/>
</svg>
