<svg width="64" height="64" viewBox="0 0 64 64" fill="none" xmlns="http://www.w3.org/2000/svg">
<path d="M29.0615 50.2985L20.9742 49.3094C20.9257 48.5627 20.5863 47.8451 19.9463 47.3603L16.8336 44.9554C16.6299 44.8003 16.4457 44.6063 16.2905 44.4027L14.9815 42.6282C14.7487 42.3082 14.4675 42.0269 14.1572 41.7845L13.7984 41.513C13.0712 40.9506 12.1596 40.6306 11.2287 40.6306L9.98752 40.6209C9.62873 40.6209 9.26994 40.5336 8.94025 40.3979L9.21176 40.0488C9.45418 39.7288 9.396 39.273 9.076 39.0306L2.3657 33.8524C2.0457 33.61 1.58994 33.6682 1.34752 33.9882C1.10509 34.3082 1.16327 34.7639 1.48328 35.0063L7.61176 39.7385L2.83115 45.9348L2.38509 45.576C2.06509 45.3336 1.60934 45.3918 1.36691 45.7021C1.12449 46.0221 1.18267 46.4779 1.49297 46.7203L2.54024 47.5251C2.66631 47.6221 2.82146 47.6803 2.98631 47.6803C3.0154 47.6803 3.04449 47.6803 3.07358 47.6706C3.26752 47.6415 3.44206 47.5445 3.55843 47.3894L4.2954 46.4391L4.57661 47.4379C4.81903 48.3106 5.35237 49.1057 6.06994 49.6585L11.6069 53.9251C12.3536 54.5069 13.2651 54.8076 14.1669 54.8076C14.2833 54.8076 14.3996 54.8076 14.516 54.7882L28.9936 54.6912C29.5948 54.6427 30.1378 54.3518 30.5257 53.8766C30.9039 53.4112 31.0784 52.8197 31.0106 52.2185C30.8748 51.2197 30.0796 50.4245 29.0615 50.2985ZM29.3815 52.9845C29.2457 53.1494 29.0615 53.2463 28.916 53.2657L14.4287 53.3627C13.7305 53.4209 13.0421 53.2172 12.4893 52.7906L6.95237 48.5239C6.46752 48.1554 6.12812 47.6512 5.97297 47.0597L5.40085 45.0136L8.03843 41.6003C8.63964 41.9106 9.30873 42.0851 9.98752 42.0948L11.2287 42.1045C11.8396 42.1045 12.4312 42.3179 12.916 42.6863L13.2748 42.9579C13.4784 43.113 13.6627 43.2972 13.8178 43.5106L15.1269 45.2851C15.3596 45.6051 15.6409 45.8863 15.9512 46.1288L19.0639 48.5336C19.5972 48.9506 19.6942 49.7166 19.2869 50.25C19.0833 50.5118 18.8021 50.6766 18.4724 50.7154C18.1427 50.7542 17.8227 50.6669 17.5706 50.473L14.5451 48.136C14.2251 47.8936 13.7693 47.9518 13.5269 48.2718C13.2845 48.5918 13.3427 49.0476 13.6627 49.29L16.6784 51.6172C17.1633 51.9954 17.7451 52.17 18.3172 52.17C19.1221 52.17 19.9172 51.8112 20.4409 51.1324C20.5378 51.0063 20.6057 50.8803 20.6736 50.7542L28.8869 51.753C29.236 51.7918 29.5075 52.073 29.556 52.4221C29.5754 52.616 29.5172 52.8197 29.3815 52.9845Z" fill="#196A5C"/>
<path d="M61.614 45.5858L61.1583 45.9349L56.3777 39.7385L62.4965 35.0161C62.8165 34.7737 62.8746 34.3179 62.6322 33.9979C62.3898 33.6779 61.934 33.6197 61.614 33.8622L54.9134 39.0307C54.5934 39.2731 54.5352 39.7288 54.7777 40.0488L55.0492 40.3979C54.7195 40.5337 54.3607 40.621 54.0019 40.621L52.7607 40.6307C51.8395 40.6403 50.928 40.9507 50.191 41.5131L49.8419 41.7846C49.5316 42.027 49.2504 42.3082 49.0177 42.6282L47.7086 44.4028C47.5534 44.6064 47.3692 44.8003 47.1656 44.9555L44.0528 47.3603C43.4904 47.7967 43.1219 48.427 43.0346 49.1349C43.0249 49.1931 43.0346 49.2513 43.0249 49.3094L34.9377 50.2888C33.9195 50.4149 33.1243 51.21 32.9983 52.2282C32.9304 52.8294 33.0952 53.421 33.4831 53.8864C33.8613 54.3616 34.414 54.6428 35.0734 54.701L49.4346 54.7979C49.5607 54.8076 49.6868 54.8173 49.8031 54.8173C50.734 54.8173 51.6455 54.507 52.3922 53.9349L57.9292 49.6682C58.6565 49.1058 59.1801 48.3397 59.4225 47.4476L59.7037 46.4488L60.4407 47.4088C60.5571 47.564 60.7316 47.661 60.9256 47.69C60.9546 47.69 60.9837 47.6997 61.0225 47.6997C61.1874 47.6997 61.3425 47.6513 61.4686 47.5446L62.5062 46.7494C62.8262 46.507 62.8843 46.0513 62.6322 45.7313C62.3898 45.4016 61.934 45.3434 61.614 45.5858ZM58.0359 47.0597C57.871 47.6416 57.5316 48.1458 57.0565 48.524L51.5195 52.7906C50.9668 53.2173 50.288 53.421 49.5219 53.3531L35.1607 53.2561C34.9571 53.2367 34.7631 53.1397 34.6371 52.9749C34.511 52.81 34.4431 52.6064 34.4722 52.4028C34.511 52.0537 34.7922 51.7822 35.1413 51.7337L43.3546 50.7349C43.4225 50.8706 43.5001 50.9967 43.5971 51.1131C44.0334 51.6755 44.6637 52.044 45.3716 52.1313C45.488 52.1506 45.6043 52.1506 45.7207 52.1506C46.3122 52.1506 46.8746 51.9567 47.3498 51.5882L50.3752 49.261C50.6952 49.0185 50.7534 48.5628 50.511 48.2428C50.2686 47.9228 49.8128 47.8646 49.4928 48.107L46.4674 50.4343C46.2055 50.6379 45.8856 50.7155 45.5656 50.6767C45.2456 50.6379 44.9546 50.4731 44.751 50.2113C44.5474 49.9494 44.4601 49.6294 44.5086 49.3094C44.5474 48.9894 44.7122 48.6985 44.974 48.4949L48.0868 46.09C48.3971 45.8476 48.6783 45.5664 48.911 45.2464L50.2201 43.4719C50.3752 43.2585 50.5595 43.0743 50.7631 42.9191L51.1219 42.6476C51.6068 42.2791 52.1983 42.0755 52.8092 42.0658L54.0504 42.0561C54.7292 42.0561 55.408 41.8816 55.9995 41.5616L58.6371 44.9749L58.0359 47.0597Z" fill="#196A5C"/>
<path d="M10.5693 27.724C10.5693 29.3434 11.8784 30.6719 13.4978 30.6913L15.0881 40.4659C15.1463 40.8246 15.4566 41.0768 15.8057 41.0768C15.8445 41.0768 15.8833 41.0768 15.9221 41.0671C16.3196 40.9992 16.5912 40.6307 16.5233 40.2331L14.9718 30.6913H18.5887C18.9863 30.6913 19.316 30.3616 19.316 29.964C19.316 29.5665 18.9863 29.2368 18.5887 29.2368H13.5463C12.7124 29.2368 12.0239 28.558 12.0239 27.7143C12.0239 26.8707 12.7027 26.1919 13.5463 26.1919H50.4627C51.2966 26.1919 51.9851 26.8707 51.9851 27.7143C51.9851 28.558 51.3063 29.2368 50.4627 29.2368H21.3912C20.9936 29.2368 20.6639 29.5665 20.6639 29.964C20.6639 30.3616 20.9936 30.6913 21.3912 30.6913H49.0275L47.476 40.2428C47.4081 40.6404 47.6796 41.0089 48.0772 41.0768C48.116 41.0865 48.1548 41.0865 48.1936 41.0865C48.5427 41.0865 48.853 40.8343 48.9112 40.4756L50.5015 30.6913C52.1209 30.6622 53.4299 29.3434 53.4299 27.724C53.4299 26.0853 52.0918 24.7471 50.453 24.7471H13.5463C11.9075 24.7471 10.5693 26.0853 10.5693 27.724Z" fill="#196A5C"/>
<path d="M21.779 43.2005C21.3815 43.2005 21.0518 43.5302 21.0518 43.9278V45.4599C21.0518 46.895 22.2251 48.0684 23.6602 48.0684C25.0954 48.0684 26.2687 46.895 26.2687 45.4599V35.7823C26.2687 34.3472 25.0954 33.1738 23.6602 33.1738C22.2251 33.1738 21.0518 34.3472 21.0518 35.7823V42.1629C21.0518 42.5605 21.3815 42.8902 21.779 42.8902C22.1766 42.8902 22.5063 42.5605 22.5063 42.1629V35.7823C22.5063 35.1423 23.0202 34.6284 23.6602 34.6284C24.3002 34.6284 24.8142 35.1423 24.8142 35.7823V45.4599C24.8142 46.0999 24.3002 46.6138 23.6602 46.6138C23.0202 46.6138 22.5063 46.0999 22.5063 45.4599V43.9278C22.5063 43.5302 22.1766 43.2005 21.779 43.2005Z" fill="#196A5C"/>
<path d="M34.6076 45.4599V35.7823C34.6076 34.3472 33.4343 33.1738 31.9991 33.1738C30.564 33.1738 29.3906 34.3472 29.3906 35.7823V37.5859C29.3906 37.9835 29.7203 38.3132 30.1179 38.3132C30.5155 38.3132 30.8452 37.9835 30.8452 37.5859V35.7823C30.8452 35.1423 31.3591 34.6284 31.9991 34.6284C32.6391 34.6284 33.153 35.1423 33.153 35.7823V45.4599C33.153 46.0999 32.6391 46.6138 31.9991 46.6138C31.3591 46.6138 30.8452 46.0999 30.8452 45.4599V39.6708C30.8452 39.2732 30.5155 38.9435 30.1179 38.9435C29.7203 38.9435 29.3906 39.2732 29.3906 39.6708V45.4599C29.3906 46.895 30.564 48.0684 31.9991 48.0684C33.4343 48.0684 34.6076 46.9047 34.6076 45.4599Z" fill="#196A5C"/>
<path d="M42.2202 42.095C42.6177 42.095 42.9474 41.7653 42.9474 41.3678V35.7823C42.9474 34.3472 41.7741 33.1738 40.339 33.1738C38.9038 33.1738 37.7305 34.3472 37.7305 35.7823V45.4599C37.7305 46.895 38.9038 48.0684 40.339 48.0684C41.7741 48.0684 42.9474 46.895 42.9474 45.4599V43.6078C42.9474 43.2102 42.6177 42.8805 42.2202 42.8805C41.8226 42.8805 41.4929 43.2102 41.4929 43.6078V45.4599C41.4929 46.0999 40.979 46.6138 40.339 46.6138C39.699 46.6138 39.185 46.0999 39.185 45.4599V35.7823C39.185 35.1423 39.699 34.6284 40.339 34.6284C40.979 34.6284 41.4929 35.1423 41.4929 35.7823V41.3581C41.4929 41.7653 41.8226 42.095 42.2202 42.095Z" fill="#196A5C"/>
<path d="M9.18223 20.2769L13.5847 23.1763C13.7107 23.2539 13.8465 23.2927 13.9822 23.2927C14.215 23.2927 14.4477 23.1763 14.5931 22.963C14.8162 22.6236 14.7192 22.1775 14.3895 21.9545L9.98708 19.0551C9.04647 18.4345 8.85253 17.426 8.99799 16.6987C9.13375 15.9811 9.66708 15.1278 10.7434 14.8951C12.5859 14.5072 14.6804 14.672 16.775 15.2926C17.0077 16.4078 16.581 17.5617 15.6598 18.2599C15.3398 18.5023 15.2816 18.9581 15.524 19.2781C15.6695 19.4623 15.8828 19.569 16.1059 19.569C16.261 19.569 16.4162 19.5205 16.5422 19.4236C17.6865 18.5508 18.3168 17.2126 18.2974 15.826C18.9083 16.0781 19.5095 16.3593 20.1107 16.689C21.0416 17.9981 20.7701 19.8114 19.4901 20.7811C19.1701 21.0236 19.1119 21.4793 19.3544 21.7993C19.4998 21.9836 19.7131 22.0902 19.9362 22.0902C20.0913 22.0902 20.2465 22.0417 20.3725 21.9448C21.6428 20.9751 22.2344 19.4527 22.0889 17.969C22.4089 18.2114 22.8647 18.1339 23.1071 17.8139C23.3495 17.4939 23.2719 17.0381 22.9519 16.7957L22.758 16.6502C22.5447 16.4951 22.3313 16.3302 22.1083 16.1848C18.375 13.7217 14.0113 12.7036 10.4428 13.4599C8.9495 13.7799 7.85375 14.9048 7.56284 16.4078C7.27193 17.9496 7.89253 19.4236 9.18223 20.2769Z" fill="#196A5C"/>
<path d="M38.9908 17.2417C37.6817 17.9496 36.8574 19.3169 36.8574 20.8005V22.5653C36.8574 22.9629 37.1871 23.2926 37.5847 23.2926C37.9823 23.2926 38.312 22.9629 38.312 22.5653V20.8005C38.312 19.8502 38.8356 18.9678 39.6792 18.5217C40.9883 17.8138 41.8126 16.4466 41.8126 14.9629V14.255H45.3326V14.9532C45.3326 16.4466 46.1471 17.8138 47.4659 18.512C48.3095 18.9678 48.8332 19.8405 48.8332 20.7908V22.5556C48.8332 22.9532 49.1629 23.2829 49.5605 23.2829C49.958 23.2829 50.2877 22.9532 50.2877 22.5556V20.7908C50.2877 19.2975 49.4732 17.9302 48.1544 17.232C47.3108 16.7763 46.7871 15.9035 46.7871 14.9532V14.2259C47.592 14.1096 48.2223 13.4211 48.2223 12.5872V10.8417C48.2223 9.9205 47.4756 9.17383 46.5544 9.17383H40.5908C39.6695 9.17383 38.9229 9.9205 38.9229 10.8417V12.5872C38.9229 13.4211 39.5532 14.1193 40.358 14.2259V14.9532C40.3483 15.9132 39.8247 16.786 38.9908 17.2417ZM40.3677 10.8417C40.3677 10.7253 40.4647 10.6284 40.5811 10.6284H46.5447C46.6611 10.6284 46.758 10.7253 46.758 10.8417V12.5872C46.758 12.7035 46.6611 12.8005 46.5447 12.8005H46.0599H41.0853H40.6005C40.4841 12.8005 40.3871 12.7035 40.3871 12.5872V10.8417H40.3677Z" fill="#196A5C"/>
<path d="M24.6202 23.2927H24.6687C25.0663 23.2636 25.3766 22.9145 25.3475 22.517C25.1535 19.6758 26.1426 17.3194 27.6554 17.0382C28.5281 16.8733 29.3135 17.4067 29.8178 17.8818C30.4869 18.5024 31.3305 18.8224 32.1838 18.8321C32.2032 18.8321 32.2226 18.8418 32.2517 18.8418C32.2711 18.8418 32.2905 18.8321 32.3196 18.8321C33.1729 18.8127 34.0166 18.5024 34.6857 17.8818C35.2966 17.3097 35.956 16.9994 36.5766 17.0285C36.9838 17.0479 37.3135 16.7279 37.3232 16.3206C37.3329 15.9133 37.0226 15.5836 36.6154 15.5739C35.5875 15.5352 34.579 15.9715 33.6772 16.8152C33.4638 17.0188 33.2117 17.1642 32.9596 17.2612C32.8917 15.4964 31.8348 13.8964 30.2251 13.1594C29.8566 12.9945 29.4299 13.1497 29.2651 13.5182C29.1002 13.8867 29.2554 14.3133 29.6238 14.4879C30.7196 14.9921 31.4372 16.0685 31.5148 17.2612C31.2626 17.1642 31.0299 17.0188 30.8263 16.8248C29.7596 15.8261 28.5378 15.3994 27.3935 15.6127C25.0857 16.0491 23.6505 18.9291 23.9026 22.6236C23.922 23.0018 24.242 23.2927 24.6202 23.2927Z" fill="#196A5C"/>
</svg>
