<svg width="64" height="64" viewBox="0 0 64 64" fill="none" xmlns="http://www.w3.org/2000/svg">
<path d="M50.1433 44.3921L40.5239 50.1036C39.913 49.3085 38.9627 48.7945 37.8863 48.7945H32.5918C32.2233 48.7945 31.8451 48.746 31.4863 48.6394L28.6354 47.8248C28.1505 47.6891 27.6366 47.6115 27.1324 47.6115H26.5311C25.3384 47.6115 24.1651 48.0091 23.2148 48.7267L21.8863 49.7351C21.3821 50.1133 20.8002 50.3654 20.1796 50.4818V49.5606C20.1796 49.163 19.8499 48.8333 19.4524 48.8333H1.7263C1.32872 48.8333 0.999023 49.163 0.999023 49.5606C0.999023 49.9582 1.32872 50.2879 1.7263 50.2879H18.7445V51.2867V58.4818V61.323H1.7263C1.32872 61.323 0.999023 61.6527 0.999023 62.0503C0.999023 62.4479 1.32872 62.7776 1.7263 62.7776H19.4718C19.8693 62.7776 20.199 62.4479 20.199 62.0503V59.9267L21.7214 61.0612C22.6621 61.7594 23.816 62.1473 24.9893 62.1473H34.3954C35.7724 62.1473 37.0815 61.6333 38.0511 60.7412L46.0124 54.5157C46.3324 54.2733 46.3808 53.8079 46.1384 53.4976C45.896 53.1776 45.4305 53.1194 45.1202 53.3715L37.1105 59.6357C36.3736 60.3145 35.4039 60.6927 34.3954 60.6927H24.9893C24.1263 60.6927 23.273 60.4115 22.5942 59.8976L20.199 58.1133V51.9751C21.1299 51.8491 22.0318 51.4806 22.7881 50.9085L24.1166 49.9C24.8051 49.3667 25.6681 49.0757 26.5408 49.0757H27.1421C27.5105 49.0757 27.8887 49.1242 28.2475 49.2309L31.0984 50.0454C31.5833 50.1812 32.0875 50.2588 32.6014 50.2588H37.896C38.9433 50.2588 39.7966 51.1121 39.7966 52.1594C39.7966 53.2067 38.9433 54.06 37.896 54.06H32.7566C32.359 54.06 32.0293 54.3897 32.0293 54.7873C32.0293 55.1848 32.359 55.5145 32.7566 55.5145H37.896C39.7481 55.5145 41.2511 54.0115 41.2511 52.1594C41.2511 51.9073 41.2221 51.6648 41.1639 51.4321L50.8899 45.6527C51.4039 45.3521 52.0439 45.4297 52.4608 45.8563C52.7033 46.1085 52.839 46.4382 52.8293 46.7873C52.8196 47.1363 52.6742 47.4563 52.4608 47.66L47.1857 51.7909C46.8657 52.0333 46.8172 52.4988 47.0596 52.8091C47.2051 52.9933 47.4184 53.0903 47.6318 53.0903C47.7869 53.0903 47.9421 53.0418 48.0778 52.9351L53.4015 48.7751C53.9542 48.2709 54.2645 47.5824 54.2839 46.8357C54.3033 46.0891 54.0221 45.3812 53.4984 44.8479C52.6063 43.9267 51.2293 43.7521 50.1433 44.3921Z" fill="#196A5C"/>
<path d="M62.2746 13.7012H57.0964C56.6988 13.7012 56.3691 14.0309 56.3691 14.4284C56.3691 14.826 56.6988 15.1557 57.0964 15.1557H62.2746C62.6722 15.1557 63.0019 14.826 63.0019 14.4284C63.0019 14.0309 62.6819 13.7012 62.2746 13.7012Z" fill="#196A5C"/>
<path d="M53.9739 13.7016H45.266V12.7028V5.50767V2.66646H62.2842C62.6817 2.66646 63.0114 2.33676 63.0114 1.93919C63.0114 1.54161 62.6817 1.21191 62.2842 1.21191H44.5387C44.1411 1.21191 43.8114 1.54161 43.8114 1.93919V4.06282L42.2793 2.91858C41.3387 2.2204 40.1848 1.83252 39.0114 1.83252H29.6054C28.2284 1.83252 26.9193 2.34646 25.9496 3.23858L20.3642 7.61191C20.0442 7.85434 19.9957 8.31979 20.2381 8.6301C20.4805 8.9501 20.946 9.00828 21.2563 8.75616L26.8902 4.34404C27.6272 3.66525 28.5969 3.28707 29.6054 3.28707H39.0114C39.8745 3.28707 40.7278 3.56828 41.4066 4.08222L43.8017 5.86646V12.0143C42.8708 12.1404 41.969 12.5089 41.2223 13.081L39.8939 14.0895C39.2054 14.6228 38.3424 14.9137 37.4696 14.9137H36.8684C36.4999 14.9137 36.1314 14.8652 35.7727 14.7586L32.9217 13.944C32.4369 13.8083 31.9327 13.7307 31.4187 13.7307H26.1242C25.0769 13.7307 24.2236 12.8774 24.2236 11.8301C24.2236 10.7828 25.0769 9.92949 26.1242 9.92949H31.2636C31.6611 9.92949 31.9908 9.59979 31.9908 9.20222C31.9908 8.80464 31.6611 8.47494 31.2636 8.47494H26.1242C24.272 8.47494 22.769 9.97797 22.769 11.8301C22.769 12.0822 22.7981 12.3246 22.8563 12.5574L13.1302 18.3368C12.626 18.6374 11.9763 18.5598 11.5593 18.1331C11.3169 17.881 11.1811 17.5513 11.1908 17.2022C11.2005 16.8531 11.346 16.5331 11.5593 16.3295L18.8708 10.6083C19.1908 10.3659 19.2393 9.9004 18.9969 9.5901C18.7545 9.2701 18.289 9.21191 17.9787 9.46404L10.6187 15.224C10.066 15.7283 9.75569 16.4168 9.73629 17.1634C9.7169 17.9101 9.99811 18.618 10.5217 19.1513C11.0551 19.6943 11.7533 19.9756 12.4708 19.9756C12.946 19.9756 13.4308 19.8495 13.8672 19.5877L23.4866 13.8762C24.0975 14.6713 25.0478 15.1852 26.1242 15.1852H31.4187C31.7872 15.1852 32.1654 15.2337 32.5242 15.3404L35.3751 16.1549C35.8599 16.2907 36.3739 16.3683 36.8781 16.3683H37.4793C38.6721 16.3683 39.8454 15.9707 40.786 15.2531L42.1145 14.2446C42.609 13.8665 43.2005 13.6143 43.8211 13.498V14.4192C43.8211 14.8168 44.1508 15.1465 44.5484 15.1465H53.9836C54.3811 15.1465 54.7108 14.8168 54.7108 14.4192C54.7108 14.0216 54.3714 13.7016 53.9739 13.7016Z" fill="#196A5C"/>
<path d="M31.5739 41.8521C31.6999 41.9394 31.8454 41.9879 32.0005 41.9879C32.1557 41.9879 32.3012 41.9394 32.4272 41.8521C33.2612 41.2509 37.4405 38.1382 37.4405 35.8691C37.4405 34.0364 35.9569 32.5527 34.1242 32.5527C33.2224 32.5527 32.4951 33.0473 32.0005 33.5224C31.506 33.0376 30.7787 32.5527 29.8769 32.5527C28.0442 32.5527 26.5605 34.0364 26.5605 35.8691C26.5605 38.1382 30.7399 41.2509 31.5739 41.8521ZM29.8769 34.0073C30.4587 34.0073 31.0502 34.5503 31.3993 35.0642C31.5351 35.2582 31.7581 35.3746 31.9909 35.3746C32.2236 35.3746 32.4466 35.2582 32.5824 35.0642C32.9412 34.5503 33.5327 34.0073 34.1048 34.0073C35.1327 34.0073 35.9666 34.8412 35.9666 35.8691C35.9666 36.9067 33.7654 39.0109 31.9812 40.3588C30.2066 39.0109 27.9957 36.9164 27.9957 35.8691C28.0151 34.8412 28.849 34.0073 29.8769 34.0073Z" fill="#196A5C"/>
<path d="M23.05 45.5561H40.9603C41.3579 45.5561 41.6876 45.2264 41.6876 44.8288V30.4385H43.5106C43.8112 30.4385 44.0828 30.2543 44.1894 29.9731C44.2961 29.6919 44.2282 29.3719 44.0052 29.1779L32.4949 18.6373C32.2137 18.3852 31.787 18.3852 31.5155 18.6373L20.0052 29.1779C19.7822 29.3816 19.7143 29.7016 19.8209 29.9731C19.9276 30.2543 20.1991 30.4385 20.4997 30.4385H22.3228V44.8192C22.3228 45.2264 22.6428 45.5561 23.05 45.5561ZM40.2234 44.1016H23.7773V30.4385H40.2331V44.1016H40.2234ZM32.0003 20.1598L41.6391 28.984H40.9506H23.05H22.3615L32.0003 20.1598Z" fill="#196A5C"/>
</svg>
