<svg width="64" height="64" viewBox="0 0 64 64" fill="none" xmlns="http://www.w3.org/2000/svg">
<path d="M29.0615 55.4479L20.9742 54.4588C20.9257 53.7121 20.5863 52.9945 19.9463 52.5097L16.8336 50.1048C16.6299 49.9497 16.4457 49.7558 16.2905 49.5521L14.9815 47.7776C14.7487 47.4576 14.4675 47.1764 14.1572 46.9339L13.7984 46.6624C13.0712 46.1 12.1596 45.78 11.2287 45.78L9.98752 45.7703C9.62873 45.7703 9.26994 45.683 8.94025 45.5473L9.21176 45.1982C9.45418 44.8782 9.396 44.4224 9.076 44.18L2.3657 39.0018C2.0457 38.7594 1.58994 38.8176 1.34752 39.1376C1.10509 39.4576 1.16327 39.9133 1.48328 40.1558L7.61176 44.8879L2.84085 51.0842L2.3754 50.7255C2.0554 50.483 1.59964 50.5412 1.35721 50.8515C1.11479 51.1715 1.17297 51.6273 1.48328 51.8697L2.53055 52.6745C2.65661 52.7715 2.81176 52.8297 2.97661 52.8297C3.0057 52.8297 3.03479 52.8297 3.06388 52.82C3.25782 52.7909 3.43237 52.6939 3.54873 52.5388L4.2857 51.5885L4.56691 52.5873C4.80934 53.46 5.34267 54.2551 6.06025 54.8079L11.5972 59.0745C12.3439 59.6564 13.2554 59.957 14.1572 59.957C14.2736 59.957 14.3899 59.957 14.5063 59.9376L28.9839 59.8406C29.5851 59.7921 30.1281 59.5012 30.516 59.0261C30.8942 58.5509 31.0687 57.9691 31.0009 57.3679C30.8748 56.3691 30.0796 55.5739 29.0615 55.4479ZM29.3815 58.1339C29.2457 58.2988 29.0615 58.3958 28.916 58.4151L14.4287 58.5121C13.7402 58.5703 13.0421 58.3667 12.4893 57.94L6.95237 53.6733C6.46752 53.3048 6.12812 52.8006 5.97297 52.2091L5.40085 50.163L8.03843 46.7497C8.63964 47.06 9.30873 47.2345 9.98752 47.2442L11.2287 47.2539C11.8396 47.2539 12.4312 47.4673 12.916 47.8358L13.2748 48.1073C13.4784 48.2624 13.6627 48.4467 13.8178 48.66L15.1269 50.4248C15.3596 50.7448 15.6409 51.0261 15.9512 51.2685L19.0639 53.6733C19.5972 54.0903 19.6942 54.8564 19.2869 55.3897C19.0833 55.6515 18.8021 55.8164 18.4724 55.8551C18.1427 55.8939 17.8227 55.8067 17.5706 55.6127L14.5451 53.2854C14.2251 53.043 13.7693 53.1012 13.5269 53.4212C13.2845 53.7412 13.3427 54.197 13.6627 54.4394L16.6784 56.7667C17.1536 57.1351 17.7257 57.3291 18.3075 57.3291C18.4239 57.3291 18.5402 57.3194 18.6566 57.3097C19.3645 57.2224 19.9948 56.8539 20.4312 56.2915C20.5281 56.1654 20.596 56.0394 20.6639 55.9133L28.8772 56.9121C29.2263 56.9509 29.4978 57.2321 29.5463 57.5812C29.5754 57.7654 29.5172 57.9691 29.3815 58.1339Z" fill="#196A5C"/>
<path d="M62.6322 50.8701C62.3898 50.5501 61.934 50.492 61.614 50.7441L61.1583 51.1029L56.3777 44.9065L62.4965 40.1841C62.8165 39.9416 62.8746 39.4859 62.6322 39.1659C62.3898 38.8459 61.934 38.7877 61.614 39.0301L54.9134 44.1986C54.5934 44.441 54.5352 44.8968 54.7777 45.2168L55.0492 45.5659C54.7195 45.7017 54.3607 45.7889 54.0019 45.7889L52.7607 45.7986C51.8395 45.8083 50.928 46.1186 50.191 46.681L49.8419 46.9526C49.5316 47.195 49.2504 47.4762 49.0177 47.7962L47.7086 49.5707C47.5534 49.7841 47.3692 49.9683 47.1656 50.1235L44.0528 52.5283C43.4225 53.0132 43.0734 53.7404 43.0249 54.4774L34.9377 55.4665C33.9195 55.5926 33.1243 56.3877 32.9983 57.4059C32.9304 58.0071 33.0952 58.5986 33.4831 59.0641C33.8613 59.5392 34.4043 59.8204 35.0734 59.8786L49.4346 59.9756C49.5607 59.9853 49.6868 59.995 49.8031 59.995C50.734 59.995 51.6455 59.6847 52.3922 59.1126L57.9292 54.8459C58.6565 54.2835 59.1801 53.5174 59.4225 52.6253L59.7037 51.6265L60.4407 52.5865C60.5571 52.7417 60.7316 52.8386 60.9256 52.8677C60.9546 52.8677 60.9837 52.8774 61.0225 52.8774C61.1874 52.8774 61.3425 52.8289 61.4686 52.7223L62.5062 51.9271C62.8262 51.6459 62.8843 51.1901 62.6322 50.8701ZM58.0359 52.2083C57.871 52.7901 57.5316 53.2944 57.0565 53.6726L51.5195 57.9392C50.9668 58.3659 50.2783 58.5695 49.5219 58.5017L35.1607 58.4047C34.9571 58.3853 34.7631 58.2883 34.6371 58.1235C34.511 57.9586 34.4431 57.755 34.4722 57.5513C34.511 57.2023 34.7922 56.9307 35.1413 56.8823L43.3546 55.8835C43.4225 56.0192 43.5001 56.1453 43.5874 56.2617C44.0237 56.8241 44.654 57.1926 45.3619 57.2798C45.4783 57.2992 45.5946 57.2992 45.711 57.2992C46.3025 57.2992 46.8649 57.1053 47.3401 56.7368L50.3655 54.4095C50.6855 54.1671 50.7437 53.7113 50.5013 53.3913C50.2589 53.0713 49.8031 53.0132 49.4831 53.2556L46.4577 55.5829C46.1959 55.7865 45.8759 55.8641 45.5559 55.8253C45.2359 55.7865 44.9449 55.6217 44.7413 55.3598C44.3243 54.8265 44.431 54.0507 44.9643 53.6435L48.0771 51.2386C48.3874 50.9962 48.6686 50.715 48.9013 50.395L50.2104 48.6204C50.3655 48.4071 50.5498 48.2229 50.7534 48.0677L51.1025 47.7962C51.5874 47.4277 52.1886 47.2144 52.7898 47.2144L54.031 47.2047C54.7098 47.2047 55.3886 47.0301 55.9801 46.7101L58.6177 50.1235L58.0359 52.2083Z" fill="#196A5C"/>
<path d="M18.957 13.6536C18.957 14.0512 19.2867 14.3809 19.6843 14.3809C20.0819 14.3809 20.4116 14.0512 20.4116 13.6536C20.4116 11.2876 22.3413 9.35787 24.7073 9.35787C25.1049 9.35787 25.4346 9.02817 25.4346 8.63059C25.4346 8.23302 25.1049 7.90332 24.7073 7.90332C21.5364 7.90332 18.957 10.4827 18.957 13.6536Z" fill="#196A5C"/>
<path d="M9.75435 39.3988H14.0598V44.7224C14.0598 45.12 14.3895 45.4497 14.7871 45.4497C15.1847 45.4497 15.5143 45.12 15.5143 44.7224V39.3988H31.2719C31.5531 39.3988 31.8053 39.2436 31.9216 38.9915L35.5774 31.4764V52.577H29.4101C29.0125 52.577 28.6828 52.9067 28.6828 53.3043C28.6828 53.7018 29.0125 54.0315 29.4101 54.0315H36.3047C36.3434 54.0315 36.3822 54.0315 36.421 54.0218L41.4537 53.1976C41.8513 53.1297 42.1228 52.7612 42.055 52.3636C41.9871 51.9661 41.6186 51.6946 41.221 51.7624L37.0319 52.4509V31.4764L40.6877 38.9915C40.8137 39.2436 41.0659 39.3988 41.3374 39.3988H48.484V44.7224C48.484 45.12 48.8137 45.4497 49.2113 45.4497C49.6089 45.4497 49.9386 45.12 49.9386 44.7224V39.3988H54.244C54.4962 39.3988 54.7289 39.2727 54.8647 39.0594C55.0004 38.8461 55.0101 38.5843 54.9034 38.3515L49.8707 27.9952C49.7447 27.743 49.4925 27.5879 49.221 27.5879H36.324H14.7871C14.5059 27.5879 14.2537 27.743 14.1374 27.9952L9.10465 38.3515C8.99799 38.5746 9.00768 38.8461 9.14344 39.0594C9.2792 39.2727 9.51192 39.3988 9.75435 39.3988ZM48.7556 29.0424L53.0804 37.9443H41.7931L37.4683 29.0424H48.7556ZM15.2428 29.0424H35.141L30.8162 37.9443H10.918L15.2428 29.0424Z" fill="#196A5C"/>
<path d="M23.3012 25.9396C23.5921 26.2111 24.0575 26.2014 24.329 25.9008C24.6005 25.6099 24.5909 25.1444 24.2999 24.8729C19.2187 20.1214 16.5327 16.2426 16.5327 13.6438C16.5327 9.13472 20.1981 5.46926 24.7072 5.46926C28.0721 5.46926 30.6806 8.82441 31.4078 9.85229C31.6793 10.2402 32.329 10.2402 32.6005 9.85229C33.3181 8.82441 35.9363 5.46926 39.3012 5.46926C43.8102 5.46926 47.4854 9.13472 47.4854 13.6438C47.4854 16.2426 44.7993 20.1214 39.7181 24.8729C39.4272 25.1444 39.4078 25.6099 39.6793 25.9008C39.8248 26.0559 40.0187 26.1335 40.2127 26.1335C40.3872 26.1335 40.5715 26.0656 40.7072 25.9396C46.1666 20.839 48.9302 16.7081 48.9302 13.6535C48.9302 8.33957 44.6054 4.02441 39.2915 4.02441C35.9072 4.02441 33.2696 6.67169 31.9993 8.2426C30.729 6.67169 28.0915 4.02441 24.7072 4.02441C19.3933 4.02441 15.0781 8.33957 15.0781 13.6535C15.0781 16.6984 17.8418 20.8293 23.3012 25.9396Z" fill="#196A5C"/>
</svg>
