<svg width="64" height="64" viewBox="0 0 64 64" fill="none" xmlns="http://www.w3.org/2000/svg">
<path d="M52.6835 33.3191C52.5478 33.1252 52.3247 33.0088 52.0823 33.0088H45.9538C45.5563 33.0088 45.2266 33.3385 45.2266 33.7361V42.0367C45.2266 42.4342 45.5563 42.7639 45.9538 42.7639H57.8423C58.1138 42.7639 58.366 42.6088 58.4823 42.3761C58.6084 42.1336 58.589 41.8427 58.4338 41.6197L52.6835 33.3191ZM46.6811 41.3094V34.4633H51.7041L56.4557 41.3094H46.6811Z" fill="#196A5C"/>
<path d="M14.9422 50.5605C11.7325 50.5605 9.12402 53.169 9.12402 56.3787C9.12402 59.5884 11.7325 62.1969 14.9422 62.1969C18.1519 62.1969 20.7604 59.5884 20.7604 56.3787C20.7604 53.169 18.1519 50.5605 14.9422 50.5605ZM14.9422 60.7424C12.5374 60.7424 10.5786 58.7836 10.5786 56.3787C10.5786 53.9739 12.5374 52.0151 14.9422 52.0151C17.3471 52.0151 19.3058 53.9739 19.3058 56.3787C19.3058 58.7836 17.3471 60.7424 14.9422 60.7424Z" fill="#196A5C"/>
<path d="M14.9433 53.4688C13.3433 53.4688 12.0342 54.7778 12.0342 56.3778C12.0342 57.9778 13.3433 59.2869 14.9433 59.2869C16.5433 59.2869 17.8524 57.9778 17.8524 56.3778C17.8524 54.7778 16.5433 53.4688 14.9433 53.4688ZM14.9433 57.8324C14.1384 57.8324 13.4887 57.1827 13.4887 56.3778C13.4887 55.573 14.1384 54.9233 14.9433 54.9233C15.7481 54.9233 16.3978 55.573 16.3978 56.3778C16.3978 57.1827 15.7481 57.8324 14.9433 57.8324Z" fill="#196A5C"/>
<path d="M52.0633 50.5596C48.8536 50.5596 46.2451 53.1681 46.2451 56.3778C46.2451 59.5874 48.8536 62.1959 52.0633 62.1959C55.273 62.1959 57.8815 59.5874 57.8815 56.3778C57.8815 53.1681 55.273 50.5596 52.0633 50.5596ZM52.0633 60.7414C49.6585 60.7414 47.6997 58.7826 47.6997 56.3778C47.6997 53.9729 49.6585 52.0141 52.0633 52.0141C54.4681 52.0141 56.4269 53.9729 56.4269 56.3778C56.4269 58.7826 54.4778 60.7414 52.0633 60.7414Z" fill="#196A5C"/>
<path d="M52.0624 53.4688C50.4624 53.4688 49.1533 54.7778 49.1533 56.3778C49.1533 57.9778 50.4624 59.2869 52.0624 59.2869C53.6624 59.2869 54.9715 57.9778 54.9715 56.3778C54.9715 54.7778 53.6721 53.4688 52.0624 53.4688ZM52.0624 57.8324C51.2576 57.8324 50.6079 57.1827 50.6079 56.3778C50.6079 55.573 51.2576 54.9233 52.0624 54.9233C52.8673 54.9233 53.517 55.573 53.517 56.3778C53.517 57.1827 52.8673 57.8324 52.0624 57.8324Z" fill="#196A5C"/>
<path d="M48.7568 45.7312C48.7568 45.3336 48.4271 45.0039 48.0296 45.0039H45.7605C45.3629 45.0039 45.0332 45.3336 45.0332 45.7312C45.0332 46.1288 45.3629 46.4585 45.7605 46.4585H48.0296C48.4368 46.4585 48.7568 46.1385 48.7568 45.7312Z" fill="#196A5C"/>
<path d="M15.2149 46.0804H22.0124H28.81C29.2076 46.0804 29.5373 45.7507 29.5373 45.3531V40.8246H32.6888C32.9797 40.8246 33.2415 40.6598 33.3579 40.3882C33.4743 40.1167 33.4258 39.8161 33.2318 39.6028L29.353 35.3167C29.3046 35.2585 29.2367 35.2198 29.1785 35.1907L31.1955 33.6488C31.9615 33.0573 32.2912 32.107 32.0391 31.1664C31.7967 30.2355 31.05 29.5761 30.0997 29.4404C28.0633 29.1494 25.6488 29.8864 23.6609 31.4185C23.4767 31.5543 23.3215 31.7094 23.147 31.8646C23.1276 31.884 23.1082 31.8937 23.0888 31.9131C22.0415 32.8343 21.2173 33.9301 20.6839 35.0937H15.2149C15.0112 35.0937 14.8173 35.181 14.6718 35.3361L10.793 39.6222C10.5991 39.8355 10.5506 40.1458 10.667 40.4076C10.7833 40.6694 11.0452 40.844 11.3361 40.844H14.4876V45.3725C14.4876 45.7507 14.8076 46.0804 15.2149 46.0804ZM15.9421 40.8246H18.1336C18.3373 40.8246 18.5312 40.7373 18.6767 40.5822L21.2852 37.6925V44.6161H15.9421V40.8246ZM28.073 44.6258H22.73V37.7022L25.3385 40.5919C25.4742 40.747 25.6682 40.8343 25.8815 40.8343H28.073V44.6258ZM31.0403 39.3701H28.8003H26.2015L23.6415 36.5385H28.4803L31.0403 39.3701ZM23.8936 33.1058C24.1942 33.0282 24.5046 33.0476 24.7858 33.1931C25.0864 33.3482 25.3094 33.6101 25.4161 33.9301C25.513 34.2404 25.8039 34.4343 26.1046 34.4343C26.1821 34.4343 26.25 34.4246 26.3276 34.3955C26.7058 34.2694 26.9191 33.8622 26.793 33.484C26.57 32.8149 26.1143 32.2622 25.4936 31.9325C25.61 31.8646 25.7361 31.787 25.8621 31.7191C26.5312 31.5058 27.2488 31.8743 27.4621 32.5337C27.5591 32.844 27.85 33.0379 28.1506 33.0379C28.2282 33.0379 28.2961 33.0282 28.3736 32.9991C28.7518 32.8731 28.9652 32.4658 28.8391 32.0876C28.6936 31.6319 28.4221 31.244 28.0827 30.9337C28.7033 30.8173 29.3046 30.7882 29.8767 30.8755C30.4197 30.9531 30.5749 31.3991 30.6136 31.5349C30.6524 31.6707 30.73 32.1555 30.2839 32.4949L26.8997 35.084H22.2742C22.7009 34.3664 23.2439 33.6973 23.8936 33.1058ZM15.5349 36.5385H20.3639L17.8039 39.3701H15.2052H12.9652L15.5349 36.5385Z" fill="#196A5C"/>
<path d="M47.0106 27.8788C47.1172 27.937 47.2433 27.9758 47.3694 27.9758C47.4954 27.9758 47.6118 27.9467 47.7281 27.8788C47.9318 27.7624 52.819 25.0085 56.9984 21.0424C57.2894 20.7612 57.2991 20.3055 57.0275 20.0145C56.7463 19.7236 56.2906 19.7139 55.9997 19.9855C52.5863 23.2242 48.5718 25.6873 47.3791 26.3952C45.1681 25.0861 33.4251 17.8133 33.4251 10.7346C33.4251 6.61334 36.7803 3.24849 40.9112 3.24849C43.2384 3.24849 45.3912 4.30546 46.8069 6.14788C46.9427 6.32243 47.156 6.4291 47.3791 6.4291C47.5924 6.40001 47.8154 6.32243 47.9512 6.14788C49.3766 4.30546 51.5294 3.24849 53.8566 3.24849C57.9778 3.24849 61.3427 6.60364 61.3427 10.7346C61.3427 13.0424 60.0821 15.6024 57.5803 18.3661C57.3087 18.6667 57.3378 19.1224 57.6287 19.3939C57.9294 19.6655 58.3851 19.6364 58.6566 19.3455C61.4009 16.3103 62.7972 13.4206 62.7972 10.7346C62.7972 5.80849 58.7924 1.79395 53.8566 1.79395C51.3742 1.79395 49.0566 2.80243 47.3694 4.58667C45.6918 2.80243 43.3839 1.79395 40.8918 1.79395C35.9657 1.79395 31.9512 5.79879 31.9512 10.7346C31.9512 19.3649 46.3997 27.5394 47.0106 27.8788Z" fill="#196A5C"/>
<path d="M45.6044 21.6436H49.1341C49.5316 21.6436 49.8613 21.3139 49.8613 20.9163V17.3867H53.391C53.7886 17.3867 54.1183 17.057 54.1183 16.6594V13.1297C54.1183 12.7321 53.7886 12.4024 53.391 12.4024H49.8613V8.86301C49.8613 8.46544 49.5316 8.13574 49.1341 8.13574H45.6044C45.2068 8.13574 44.8771 8.46544 44.8771 8.86301V12.3927H41.3474C40.9498 12.3927 40.6201 12.7224 40.6201 13.12V16.6497C40.6201 17.0473 40.9498 17.377 41.3474 17.377H44.8771V20.9067C44.8771 21.3139 45.2068 21.6436 45.6044 21.6436ZM42.0747 15.9321V13.857H45.6044C46.0019 13.857 46.3316 13.5273 46.3316 13.1297V9.59029H48.4068V13.12C48.4068 13.5176 48.7365 13.8473 49.1341 13.8473H52.6638V15.9224H49.1341C48.7365 15.9224 48.4068 16.2521 48.4068 16.6497V20.1794H46.3316V16.6497C46.3316 16.2521 46.0019 15.9224 45.6044 15.9224H42.0747V15.9321Z" fill="#196A5C"/>
<path d="M54.7101 29.44C54.5743 29.246 54.3513 29.1297 54.1089 29.1297H42.8022V27.3454C42.8022 26.9479 42.4725 26.6182 42.0749 26.6182C41.6774 26.6182 41.3477 26.9479 41.3477 27.3454V47.5345H2.66646V27.7721C2.66646 27.3745 2.33676 27.0448 1.93919 27.0448C1.54161 27.0448 1.21191 27.3745 1.21191 27.7721V48.2521V53.9733C1.21191 55.4473 2.40464 56.64 3.87858 56.64H6.97191C7.36949 56.64 7.69919 56.3103 7.69919 55.9127C7.69919 55.5151 7.36949 55.1854 6.97191 55.1854H3.87858C3.20949 55.1854 2.66646 54.6424 2.66646 53.9733V48.9794H41.3477V55.1854H22.9234C22.5259 55.1854 22.1962 55.5151 22.1962 55.9127C22.1962 56.3103 22.5259 56.64 22.9234 56.64H42.0749H42.0846H44.0919C44.4895 56.64 44.8192 56.3103 44.8192 55.9127C44.8192 55.5151 44.4895 55.1854 44.0919 55.1854H42.8022V30.5842H53.7307L61.3331 41.5321V55.1951H60.0434C59.6459 55.1951 59.3162 55.5248 59.3162 55.9224C59.3162 56.32 59.6459 56.6497 60.0434 56.6497H62.0604C62.458 56.6497 62.7877 56.32 62.7877 55.9224V41.2994C62.7877 41.1539 62.7392 41.0085 62.6616 40.8824L54.7101 29.44Z" fill="#196A5C"/>
<path d="M18.9667 33.629C19.3642 33.629 19.6939 33.2993 19.6939 32.9018V32.2133H21.7012C22.0988 32.2133 22.4285 31.8836 22.4285 31.486V30.0799C22.4285 27.7139 20.4988 25.7842 18.1327 25.7842C17.7351 25.7842 17.4055 26.1139 17.4055 26.5115C17.4055 27.5975 16.523 28.4702 15.4467 28.4702C14.3703 28.4702 13.4879 27.5878 13.4879 26.5115C13.4879 26.1139 13.1582 25.7842 12.7606 25.7842C10.3945 25.7842 8.46484 27.7139 8.46484 30.0799V31.486C8.46484 31.8836 8.79454 32.2133 9.19212 32.2133H11.1897V35.0157C11.1897 35.4133 11.5194 35.743 11.917 35.743C12.3145 35.743 12.6442 35.4133 12.6442 35.0157V31.486V30.4581C12.6442 30.0605 12.3145 29.7308 11.917 29.7308C11.5194 29.7308 11.1897 30.0605 11.1897 30.4581V30.7587H9.91939V30.0799C9.91939 28.7321 10.8697 27.5975 12.1303 27.3066C12.4891 28.8096 13.8467 29.9248 15.4564 29.9248C17.0661 29.9248 18.4139 28.8096 18.7824 27.3066C20.043 27.5975 20.9933 28.7321 20.9933 30.0799V30.7587H19.6842V30.4581C19.6842 30.0605 19.3545 29.7308 18.957 29.7308C18.5594 29.7308 18.2297 30.0605 18.2297 30.4581V31.486V31.5054V32.8921C18.2394 33.2993 18.5594 33.629 18.9667 33.629Z" fill="#196A5C"/>
<path d="M1.93919 25.4647C2.33676 25.4647 2.66646 25.135 2.66646 24.7374V22.4489C2.66646 21.7798 3.20949 21.2368 3.87858 21.2368H34.2107C34.6083 21.2368 34.938 20.9071 34.938 20.5095C34.938 20.1119 34.6083 19.7822 34.2107 19.7822H3.87858C2.40464 19.7822 1.21191 20.975 1.21191 22.4489V24.7374C1.21191 25.1447 1.54161 25.4647 1.93919 25.4647Z" fill="#196A5C"/>
</svg>
