<svg width="64" height="64" viewBox="0 0 64 64" fill="none" xmlns="http://www.w3.org/2000/svg">
<path d="M59.9661 26.6955L61.7212 12.2567C61.76 12.0531 61.7891 11.8495 61.7891 11.6361C61.7891 10.2495 60.8873 9.08582 59.4812 8.68824L34.3952 1.54158C32.834 1.09552 31.1758 1.09552 29.6049 1.54158L4.51882 8.68824C3.12245 9.08582 2.21094 10.2495 2.21094 11.6361C2.21094 13.0228 3.11276 14.1864 4.51882 14.584L29.6049 21.7307C30.3903 21.9537 31.1952 22.0701 32 22.0701C32.8049 22.0701 33.6097 21.9537 34.3952 21.7307L53.9055 16.1743L55.1855 26.7052C54.3419 27.4034 53.7988 28.4313 53.7988 29.6046C53.7988 31.6895 55.4958 33.3864 57.5806 33.3864C59.6655 33.3864 61.3625 31.6895 61.3625 29.6046C61.3528 28.4313 60.8097 27.3937 59.9661 26.6955ZM33.9976 20.3246C32.6885 20.6931 31.3115 20.6931 30.0025 20.3246L4.91639 13.1876C3.99518 12.9258 3.66548 12.2179 3.66548 11.6361C3.66548 11.0543 3.99518 10.3464 4.91639 10.0846L30.0025 2.93794C30.6522 2.7537 31.3309 2.65673 32 2.65673C32.6691 2.65673 33.3479 2.7537 33.9976 2.93794L59.0837 10.0846C60.0049 10.3464 60.3346 11.0543 60.3346 11.6361C60.3346 12.2179 60.0049 12.9258 59.0837 13.1876L33.9976 20.3246ZM55.3212 15.767L59.4812 14.584C59.6655 14.5355 59.8303 14.4676 59.9952 14.3901L58.5891 25.9682C58.2594 25.881 57.9297 25.8131 57.5709 25.8131C57.2218 25.8131 56.8825 25.881 56.5528 25.9682L55.3212 15.767ZM57.5709 31.9222C56.2909 31.9222 55.2437 30.8749 55.2437 29.5949C55.2437 28.3149 56.2909 27.2676 57.5709 27.2676C58.8509 27.2676 59.8982 28.3149 59.8982 29.5949C59.8982 30.8749 58.8509 31.9222 57.5709 31.9222Z" fill="#196A5C"/>
<path d="M50.6275 29.3039C50.2784 29.4979 50.1523 29.9439 50.3463 30.293C52.0432 33.3767 52.9451 36.8676 52.9451 40.3876C52.9451 51.9367 43.5487 61.333 31.9996 61.333C20.4505 61.333 11.0542 51.9367 11.0542 40.3876C11.0542 36.8676 11.956 33.3767 13.6529 30.293C13.8469 29.9439 13.7208 29.4979 13.3717 29.3039C13.0226 29.11 12.5766 29.2361 12.3826 29.5852C10.5596 32.8821 9.59961 36.6155 9.59961 40.3779C9.59961 52.7318 19.6457 62.7779 31.9996 62.7779C44.3535 62.7779 54.3996 52.7318 54.3996 40.3779C54.3996 36.6155 53.4396 32.8821 51.6166 29.5852C51.4226 29.2361 50.9863 29.11 50.6275 29.3039Z" fill="#196A5C"/>
<path d="M18.9961 31.3209C18.6567 31.1076 18.2106 31.2046 17.9876 31.544C16.3003 34.2009 15.4082 37.2555 15.4082 40.3876C15.4082 49.5318 22.8458 56.9694 31.99 56.9694C41.1343 56.9694 48.5718 49.5318 48.5718 40.3876C48.5718 37.2555 47.6797 34.2009 45.9925 31.544C45.7791 31.2046 45.3234 31.1076 44.984 31.3209C44.6446 31.5343 44.5476 31.99 44.7609 32.3294C46.2931 34.7537 47.1076 37.5367 47.1076 40.3973C47.1076 48.7367 40.3197 55.5246 31.9803 55.5246C23.6409 55.5246 16.8531 48.7367 16.8531 40.3973C16.8531 37.5464 17.6676 34.7537 19.1997 32.3294C19.4324 31.9803 19.3355 31.5343 18.9961 31.3209Z" fill="#196A5C"/>
<path d="M14.7097 19.0254C14.3121 19.0254 13.9824 19.3551 13.9824 19.7527V27.4908C13.9824 27.7818 14.157 28.0533 14.4285 28.1599C20.0915 30.5066 26.0455 31.6799 31.9897 31.6799C37.9436 31.6799 43.8879 30.5066 49.5509 28.1599C49.8224 28.0436 49.997 27.7818 49.997 27.4908V19.7527C49.997 19.3551 49.6673 19.0254 49.2697 19.0254C48.8721 19.0254 48.5424 19.3551 48.5424 19.7527V27.006C37.8467 31.3018 26.123 31.3018 15.4176 27.006V19.7527C15.437 19.3551 15.117 19.0254 14.7097 19.0254Z" fill="#196A5C"/>
</svg>
