<svg width="75" height="29" viewBox="0 0 75 29" fill="none" xmlns="http://www.w3.org/2000/svg">
<path d="M0.969643 9.26345C1.60345 9.37092 2.20477 8.94688 2.31348 8.31615L2.31359 8.31549L2.31469 8.30952C2.31618 8.30143 2.31888 8.28712 2.32288 8.26702C2.33088 8.22678 2.34406 8.16347 2.36321 8.0804C2.40158 7.914 2.46351 7.66997 2.5551 7.37447C2.73957 6.77923 3.03756 5.99727 3.49096 5.2258C4.39701 3.68409 5.82452 2.31998 8.15548 2.31998C10.5817 2.31998 12.4576 3.75747 14.7105 5.54678L14.8306 5.6422C16.0086 6.57839 17.3034 7.60734 18.7965 8.33128C19.9685 8.89957 21.2627 9.27992 22.7185 9.27992C24.1679 9.27992 25.4571 8.90292 26.625 8.33878C28.1246 7.61446 29.4243 6.58163 30.6064 5.6422L30.7265 5.54678C32.9794 3.75747 34.8553 2.31998 37.2815 2.31998C39.7078 2.31998 41.5836 3.75747 43.8365 5.54678L43.9566 5.6422C45.1499 6.59051 46.463 7.63399 47.9806 8.35925C49.1373 8.91201 50.4127 9.27992 51.8445 9.27992C53.2699 9.27992 54.5404 8.91529 55.693 8.36664C57.2171 7.6411 58.5351 6.59373 59.7325 5.6422L59.8526 5.54678C62.1054 3.75747 63.9813 2.31998 66.4075 2.31998C68.7565 2.31998 70.2997 3.70477 71.3182 5.27053C71.825 6.04974 72.1746 6.83788 72.3975 7.436C72.5083 7.73318 72.586 7.97862 72.6351 8.14607C72.6596 8.22967 72.6769 8.29346 72.6876 8.33413C72.6929 8.35445 72.6965 8.36897 72.6986 8.37725L72.7 8.38293L72.7003 8.38416L72.7004 8.38468L72.7005 8.38509C72.8473 9.00779 73.4729 9.39479 74.0988 9.24971C74.7255 9.10445 75.1153 8.48088 74.9694 7.85692L73.8347 8.11993C74.9694 7.85692 74.9693 7.85646 74.9692 7.85597L74.9689 7.85486L74.9683 7.85215L74.9665 7.84483L74.9611 7.82268C74.9566 7.80462 74.9504 7.78005 74.9424 7.7494C74.9264 7.68811 74.9031 7.60237 74.8718 7.49567C74.8092 7.2825 74.7145 6.98419 74.5821 6.62888C74.3186 5.92201 73.8989 4.97016 73.2739 4.00939C72.0288 2.09518 69.8585 0 66.4075 0C63.0972 0 60.6224 1.96664 58.5196 3.63772L58.3995 3.73314C56.1466 5.52245 54.2708 6.95994 51.8445 6.95994C49.4183 6.95994 47.5424 5.52245 45.2895 3.73314L45.1694 3.63772C43.0666 1.96664 40.5919 0 37.2815 0C33.9711 0 31.4964 1.96663 29.3936 3.63772L29.2735 3.73314C27.0206 5.52245 25.1447 6.95994 22.7185 6.95994C20.2922 6.95994 18.4164 5.52245 16.1635 3.73314L16.0434 3.63772C13.9406 1.96663 11.4658 0 8.15548 0C4.68659 0 2.61898 2.11585 1.47987 4.05412C0.910679 5.02263 0.548576 5.98065 0.328608 6.6904C0.217966 7.0474 0.141591 7.34711 0.0922001 7.56133C0.0674732 7.66858 0.0494174 7.7548 0.037148 7.81651C0.0310109 7.84738 0.026314 7.87216 0.0229477 7.8904L0.01888 7.91284L0.0175673 7.9203L0.0170867 7.92306L0.0168897 7.92421C0.0168032 7.92471 0.0167214 7.92519 1.16523 8.11993L0.0167214 7.92519C-0.0912975 8.55674 0.33534 9.1559 0.969643 9.26345Z" fill="#121212"/>
<path d="M2.31348 18.1761C2.20477 18.8068 1.60345 19.2308 0.969643 19.1234C0.33534 19.0158 -0.0912975 18.4167 0.0167214 17.7851L1.16523 17.9798C0.0167214 17.7851 0.0168032 17.7846 0.0168897 17.7841L0.0170867 17.783L0.0175673 17.7802L0.01888 17.7728L0.0229477 17.7503C0.026314 17.7321 0.0310109 17.7073 0.037148 17.6764C0.0494174 17.6147 0.0674732 17.5285 0.0922001 17.4212C0.141591 17.207 0.217966 16.9073 0.328608 16.5503C0.548576 15.8406 0.910679 14.8825 1.47987 13.914C2.61898 11.9758 4.68659 9.85991 8.15548 9.85991C11.4658 9.85991 13.9406 11.8265 16.0434 13.4976L16.1635 13.593C18.4164 15.3824 20.2922 16.8198 22.7185 16.8198C25.1447 16.8198 27.0206 15.3824 29.2735 13.593L29.3936 13.4976C31.4964 11.8265 33.9711 9.85991 37.2815 9.85991C40.5919 9.85991 43.0666 11.8265 45.1694 13.4976L45.2895 13.593C47.5424 15.3824 49.4183 16.8198 51.8445 16.8198C54.2708 16.8198 56.1466 15.3824 58.3995 13.593L58.5196 13.4976C60.6224 11.8265 63.0972 9.85991 66.4075 9.85991C69.8585 9.85991 72.0288 11.9551 73.2739 13.8693C73.8989 14.8301 74.3186 15.7819 74.5821 16.4888C74.7145 16.8441 74.8092 17.1424 74.8718 17.3556C74.9031 17.4623 74.9264 17.548 74.9424 17.6093C74.9504 17.64 74.9566 17.6645 74.9611 17.6826L74.9665 17.7047L74.9683 17.7121L74.9689 17.7148L74.9692 17.7159C74.9693 17.7164 74.9694 17.7168 73.8347 17.9798L74.9694 17.7168C75.1153 18.3408 74.7255 18.9644 74.0988 19.1096C73.4729 19.2547 72.8473 18.8677 72.7005 18.245L72.7004 18.2446L72.7003 18.2441L72.7 18.2428L72.6986 18.2372C72.6965 18.2289 72.6929 18.2144 72.6876 18.194C72.6769 18.1534 72.6596 18.0896 72.6351 18.006C72.586 17.8385 72.5083 17.5931 72.3975 17.2959C72.1746 16.6978 71.825 15.9096 71.3182 15.1304C70.2997 13.5647 68.7565 12.1799 66.4075 12.1799C63.9813 12.1799 62.1054 13.6174 59.8526 15.4067L59.7325 15.5021C58.5351 16.4536 57.2171 17.501 55.693 18.2265C54.5404 18.7752 53.2699 19.1398 51.8445 19.1398C50.4127 19.1398 49.1373 18.7719 47.9806 18.2192C46.463 17.4939 45.1499 16.4504 43.9566 15.5021L43.8365 15.4067C41.5836 13.6174 39.7078 12.1799 37.2815 12.1799C34.8553 12.1799 32.9794 13.6174 30.7265 15.4067L30.6064 15.5021C29.4243 16.4415 28.1246 17.4744 26.625 18.1987C25.4571 18.7628 24.1679 19.1398 22.7185 19.1398C21.2627 19.1398 19.9685 18.7595 18.7965 18.1912C17.3034 17.4672 16.0086 16.4383 14.8306 15.5021L14.7105 15.4067C12.4576 13.6174 10.5817 12.1799 8.15548 12.1799C5.82452 12.1799 4.39701 13.544 3.49096 15.0857C3.03756 15.8572 2.73957 16.6391 2.5551 17.2344C2.46351 17.5299 2.40158 17.7739 2.36321 17.9403C2.34406 18.0234 2.33088 18.0867 2.32288 18.1269C2.31888 18.147 2.31618 18.1613 2.31469 18.1694L2.31359 18.1754L2.31348 18.1761Z" fill="#121212"/>
<path d="M2.31359 28.0353L2.31354 28.0356C2.205 28.6665 1.60357 29.0908 0.969643 28.9833C0.33534 28.8757 -0.0912975 28.2766 0.0167214 27.645L1.16523 27.8398C0.0167214 27.645 0.0168032 27.6445 0.0168897 27.644L0.0170867 27.6429L0.0175673 27.6401L0.01888 27.6327L0.0229477 27.6102C0.026314 27.592 0.0310109 27.5672 0.037148 27.5363C0.0494174 27.4746 0.0674732 27.3884 0.0922001 27.2812C0.141591 27.0669 0.217966 26.7672 0.328608 26.4102C0.548576 25.7005 0.910679 24.7425 1.47987 23.7739C2.61898 21.8357 4.68659 19.7198 8.15548 19.7198C11.4658 19.7198 13.9406 21.6865 16.0434 23.3575L16.1635 23.453C18.4164 25.2423 20.2922 26.6798 22.7185 26.6798C25.1447 26.6798 27.0206 25.2423 29.2735 23.453L29.3936 23.3575C31.4964 21.6865 33.9711 19.7198 37.2815 19.7198C40.5919 19.7198 43.0666 21.6865 45.1694 23.3575L45.2895 23.453C47.5424 25.2423 49.4183 26.6798 51.8445 26.6798C54.2708 26.6798 56.1466 25.2423 58.3995 23.453L58.5196 23.3575C60.6224 21.6865 63.0972 19.7198 66.4075 19.7198C69.8585 19.7198 72.0288 21.815 73.2739 23.7292C73.8989 24.69 74.3186 25.6418 74.5821 26.3487C74.7145 26.704 74.8092 27.0023 74.8718 27.2155C74.9031 27.3222 74.9264 27.4079 74.9424 27.4692C74.9504 27.4999 74.9566 27.5244 74.9611 27.5425L74.9665 27.5647L74.9683 27.572L74.9689 27.5747L74.9692 27.5758C74.9693 27.5763 74.9694 27.5767 73.8347 27.8398L74.9694 27.5767C75.1153 28.2007 74.7255 28.8243 74.0988 28.9695C73.4729 29.1146 72.8473 28.7276 72.7005 28.1049L72.7004 28.1045L72.7003 28.104L72.7 28.1028L72.6986 28.0971C72.6976 28.0933 72.6964 28.0883 72.6948 28.0821C72.6929 28.0745 72.6905 28.0651 72.6876 28.054C72.6769 28.0133 72.6596 27.9495 72.6351 27.8659C72.586 27.6984 72.5083 27.453 72.3975 27.1558C72.1746 26.5577 71.825 25.7696 71.3182 24.9904C70.2997 23.4246 68.7565 22.0398 66.4075 22.0398C63.9813 22.0398 62.1054 23.4773 59.8526 25.2666L59.7325 25.362C58.5351 26.3136 57.2171 27.3609 55.693 28.0865C54.5404 28.6351 53.2699 28.9997 51.8445 28.9997C50.4127 28.9997 49.1373 28.6318 47.9806 28.0791C46.463 27.3538 45.1499 26.3103 43.9566 25.362L43.8365 25.2666C41.5836 23.4773 39.7078 22.0398 37.2815 22.0398C34.8553 22.0398 32.9794 23.4773 30.7265 25.2666L30.6064 25.362C29.4243 26.3014 28.1246 27.3343 26.625 28.0586C25.4571 28.6227 24.1679 28.9997 22.7185 28.9997C21.2627 28.9997 19.9685 28.6194 18.7965 28.0511C17.3034 27.3272 16.0086 26.2982 14.8306 25.362L14.7105 25.2666C12.4576 23.4773 10.5817 22.0398 8.15548 22.0398C5.82452 22.0398 4.39701 23.4039 3.49096 24.9456C3.03756 25.7171 2.73957 26.4991 2.5551 27.0943C2.46351 27.3898 2.40158 27.6338 2.36321 27.8002C2.34406 27.8833 2.33088 27.9466 2.32288 27.9868C2.31888 28.0069 2.31618 28.0213 2.31469 28.0293L2.31359 28.0353Z" fill="#121212"/>
</svg>
