<svg width="169" height="169" viewBox="0 0 169 169" fill="none" xmlns="http://www.w3.org/2000/svg">
<path d="M100.742 106.548C109.632 97.3865 119.08 88.7885 127.318 78.9676C132.91 72.3005 139.21 66.2271 145.192 59.8915C149.734 55.0822 154.284 50.2822 158.83 45.4785C158.169 44.2144 157.478 42.969 156.755 41.7461C148.979 50.035 141.199 58.3258 133.489 66.6766C127.446 73.2201 121.593 79.9359 115.598 86.5262C113.518 88.8166 111.372 91.0639 109.085 93.1427C100.768 100.707 92.9677 108.782 85.293 116.987C80.2684 122.362 75.2493 127.744 70.1647 133.063C64.0107 139.505 57.7407 145.835 51.6223 152.311C49.4461 154.617 47.4066 157.053 45.3672 159.488C46.5208 160.085 47.6913 160.657 48.8749 161.202C54.1524 155.345 59.4187 149.474 64.861 143.773C76.7588 131.306 88.739 118.914 100.742 106.548Z" fill="#121212"/>
<mask id="mask0_54_12473" style="mask-type:luminance" maskUnits="userSpaceOnUse" x="74" y="72" width="95" height="97">
<path d="M74.4961 72.7949H168.281V169H74.4961V72.7949Z" fill="white"/>
</mask>
<g mask="url(#mask0_54_12473)">
<path d="M123.107 122.902C138.199 109.523 152.266 95.1272 165.924 80.3097C166.664 79.5082 167.4 78.7066 168.138 77.9032C168.005 76.2102 167.819 74.5322 167.589 72.8691C167.494 72.974 167.398 73.077 167.304 73.1819C153.112 88.8196 138.582 104.128 122.719 118.104C112.098 127.468 102.178 137.534 92.7077 148.048C86.638 154.787 80.6245 161.575 74.6035 168.355C76.1879 168.535 77.7872 168.669 79.3997 168.757C82.1415 165.727 84.8607 162.673 87.5313 159.577C98.6725 146.651 110.331 134.225 123.107 122.902Z" fill="#121212"/>
</g>
<path d="M122.674 105.285C136.905 90.5047 150.677 75.2865 164.927 60.5252C164.513 59.1282 164.066 57.7442 163.581 56.3789C155.739 64.5555 148.128 72.9493 140.308 81.1427C127.339 94.7335 114.371 108.33 101.391 121.911C91.089 132.691 80.7981 143.486 70.436 154.211C66.9339 157.835 63.8738 161.869 60.3848 165.508C61.735 165.901 63.0984 166.264 64.4749 166.592C79.4609 149.713 95.1754 133.523 111.049 117.482C114.999 113.491 118.776 109.33 122.674 105.285Z" fill="#121212"/>
<path d="M59.3712 129.836C66.529 121.668 74.1831 114.02 82.1705 106.681C88.8657 100.528 95.4504 94.2547 102.076 88.022C105.316 84.975 108.528 81.8962 111.766 78.8435C114.159 76.5906 116.663 74.4444 118.967 72.1034C127.919 62.9904 136.893 53.8999 145.693 44.6428C148.274 41.9272 150.814 39.1724 153.321 36.3894C152.585 35.3294 151.823 34.2882 151.042 33.2656C150.536 33.8275 150.025 34.3874 149.51 34.9399C140.931 44.139 132.189 53.1902 123.45 62.2376C119.686 66.1348 115.824 69.9422 111.893 73.6709C103.618 81.5291 95.2668 89.3086 86.9423 97.1181C84.2624 99.6314 81.5244 102.092 78.8875 104.654C73.3347 110.048 67.6396 115.308 62.3564 120.955C53.0974 130.847 44.0968 140.977 35.0063 151.021C34.6243 151.444 34.2478 151.875 33.8789 152.309C34.8696 153.045 35.8772 153.762 36.9016 154.457C37.2181 154.114 37.5346 153.774 37.8473 153.429C45.0388 145.576 52.3577 137.84 59.3712 129.836Z" fill="#121212"/>
<mask id="mask1_54_12473" style="mask-type:luminance" maskUnits="userSpaceOnUse" x="90" y="89" width="79" height="80">
<path d="M90.3184 89.0957H168.282V168.681H90.3184V89.0957Z" fill="white"/>
</mask>
<g mask="url(#mask1_54_12473)">
<path d="M135.745 125.233C146.328 115.111 157.123 105.217 167.736 95.1263C167.97 93.2592 168.14 91.3714 168.249 89.4668C167.099 90.6111 165.942 91.7478 164.764 92.8622C154.07 102.962 143.286 112.966 132.563 123.035C117.446 137.23 103.864 152.838 90.5059 168.648C92.3243 168.511 94.1222 168.311 95.9088 168.058C98.1487 165.447 100.454 162.887 102.673 160.254C113.045 147.961 124.126 136.346 135.745 125.233Z" fill="#121212"/>
</g>
<path d="M69.5664 100.306C81.8462 89.062 93.9687 77.6698 105.554 65.7084C111.208 59.8709 116.779 53.9267 122.781 48.4638C130.552 41.3884 137.908 33.931 144.993 26.202C144.109 25.2787 143.204 24.3742 142.281 23.4902C136.736 29.5637 131.057 35.536 125.064 41.1524C118.847 46.9768 112.8 52.9585 106.788 58.987C103.919 61.8635 101.1 64.7926 98.2649 67.7066C88.6781 77.5593 78.6044 86.8989 68.4783 96.1879C54.9193 108.625 41.7986 121.499 30.4514 136.056C28.7903 138.189 26.8707 140.12 25.0616 142.135C24.6458 142.595 24.2301 143.056 23.8105 143.515C24.6608 144.388 25.5335 145.242 26.4212 146.075C29.1461 143.198 31.8691 140.318 34.3243 137.226C44.9561 123.841 56.9981 111.811 69.5664 100.306Z" fill="#121212"/>
<path d="M37.754 112.662C44.0765 105.852 50.6949 99.3161 57.2758 92.7557C62.3492 87.6992 67.6136 82.8356 72.7132 77.8072C79.193 71.4191 85.5998 64.958 92.0197 58.51C94.0685 56.4518 96.005 54.2813 98.08 52.2474C109.83 40.7205 121.582 29.1916 133.386 17.7189C133.704 17.4118 134.024 17.1028 134.341 16.7938C133.322 16.0353 132.285 15.2956 131.23 14.582C130.756 15.0352 130.281 15.4866 129.809 15.9398C121.992 23.4553 114.218 31.0176 106.485 38.6211C100.826 44.1888 95.2428 49.8372 89.6656 55.4855C84.6335 60.5813 79.8373 65.9281 74.6066 70.8104C66.1098 78.7417 57.8171 86.8733 49.5506 95.0368C38.9338 105.528 28.8508 116.504 19.0467 127.749C17.6515 129.352 16.378 131.065 15.1364 132.794C15.1027 132.846 15.0708 132.903 15.0371 132.955C15.73 133.944 16.4473 134.92 17.1833 135.877C17.5148 135.554 17.8163 135.184 18.1216 134.835C24.6576 127.438 31.0419 119.896 37.754 112.662Z" fill="#121212"/>
<path d="M19.1638 115.018C30.1234 101.936 41.9088 89.6657 54.7542 78.3822C63.0413 71.1027 70.759 63.179 77.6021 54.4611C79.0311 52.6427 80.6454 50.9366 82.3553 49.3765C87.5073 44.6834 92.7829 40.1213 97.9499 35.443C104.696 29.3359 111.441 23.2231 118.077 16.9943C120.347 14.863 122.611 12.7356 125.008 10.7654C123.897 10.1455 122.772 9.55183 121.633 8.98438C119.446 10.8309 117.275 12.6962 115.148 14.6065C108.093 20.9496 101.136 27.3994 94.1051 33.7725C89.0823 38.3215 83.9771 42.7844 78.9712 47.3521C77.5478 48.6518 76.2444 50.1107 75.0458 51.6239C67.2026 61.5328 58.2245 70.3236 48.84 78.7474C40.6222 86.1168 32.6423 93.7315 25.3983 102.11C19.7931 108.598 14.3901 115.295 8.0957 121.138C8.64068 122.269 9.21375 123.385 9.80743 124.488C13.1129 121.533 16.291 118.447 19.1638 115.018Z" fill="#121212"/>
<path d="M29.6974 83.6214C34.7745 78.0368 39.9227 72.5383 45.395 67.3413C50.5826 62.4159 55.6354 57.3425 60.9073 52.5089C66.7466 47.1527 72.7376 41.9558 78.7231 36.7588C83.9762 32.1986 89.3904 27.8219 94.593 23.2017C101.011 17.501 106.599 10.9219 113.104 5.30166C111.841 4.83721 110.564 4.40273 109.274 4.00195C106.708 6.25491 104.161 8.53596 101.672 10.8732C97.5857 14.7068 93.7652 18.8288 89.6058 22.5743C84.8695 26.8405 79.8336 30.7715 75.0149 34.9478C57.613 50.0275 40.7131 65.6277 25.3956 82.8704C23.5996 84.893 21.6837 86.8108 19.7978 88.7529C14.6758 94.021 9.51438 99.2535 4.42416 104.552C3.81925 105.183 3.23494 105.833 2.65625 106.49C3.05515 107.977 3.49526 109.449 3.97282 110.904C6.01228 108.666 8.02739 106.413 10.1081 104.218C16.6216 97.3377 23.3243 90.6294 29.6974 83.6214Z" fill="#121212"/>
<path d="M134.126 146.776C142.171 139.219 150.095 131.533 156.852 122.737C158.455 120.651 160.219 118.682 162.019 116.753C163.214 113.866 164.255 110.899 165.126 107.863C161.386 111.839 157.717 115.873 154.221 120.055C146.492 129.299 138.096 137.833 129.322 146.034C123.168 151.791 117.334 157.846 111.834 164.208C114.619 163.236 117.338 162.122 119.981 160.878C124.522 156.016 129.262 151.342 134.126 146.776Z" fill="#121212"/>
<mask id="mask2_54_12473" style="mask-type:luminance" maskUnits="userSpaceOnUse" x="0" y="0" width="97" height="98">
<path d="M0 0.400391H96.5494V97.2457H0V0.400391Z" fill="white"/>
</mask>
<g mask="url(#mask2_54_12473)">
<path d="M17.5514 78.3245C20.988 74.3766 24.6249 70.6592 28.5447 67.1889C36.5096 60.1397 44.2929 52.922 51.2896 44.8522C57.6177 37.554 64.1069 30.3681 71.2872 23.8602C77.016 18.6651 82.7149 13.4382 88.4269 8.22434C91.0787 5.80096 93.6089 3.22776 96.4892 1.07968C94.7794 0.826853 93.0545 0.628338 91.3147 0.478516C90.8615 0.851199 90.412 1.22576 89.9738 1.61342C86.3575 4.81963 83.0183 8.3442 79.3364 11.468C68.6896 20.4967 58.8968 30.3812 49.7539 40.9007C42.3733 49.39 34.3035 57.1377 25.8965 64.5839C22.5761 67.526 19.4935 70.7509 16.4371 73.9721C12.1803 78.4612 8.03207 83.0514 3.86888 87.6266C2.59539 89.0274 1.32938 90.4339 0.0839844 91.8609C0.237552 93.6569 0.445431 95.438 0.709494 97.2021C2.80139 94.76 4.85396 92.2861 6.99268 89.8908C10.4686 85.9954 14.1261 82.2592 17.5514 78.3245Z" fill="#121212"/>
</g>
<mask id="mask3_54_12473" style="mask-type:luminance" maskUnits="userSpaceOnUse" x="0" y="0" width="84" height="79">
<path d="M0 0H83.1253V78.5482H0V0Z" fill="white"/>
</mask>
<g mask="url(#mask3_54_12473)">
<path d="M47.7738 31.8093C50.4125 29.2605 53.3847 27.06 56.2163 24.7096C59.7896 21.7394 63.4209 18.8366 66.9455 15.812C71.6461 11.7799 76.2813 7.66357 80.9202 3.5603C81.6318 2.93105 82.3304 2.2325 82.8229 1.43282C82.9971 1.15003 82.9634 0.582577 82.8042 0.185547C81.6112 0.202402 80.4201 0.24173 79.2365 0.309151C78.8451 0.53763 78.465 0.781092 78.1241 1.06575C74.4048 4.16334 70.7659 7.35643 67.0822 10.4952C62.5145 14.3887 57.9261 18.2523 53.3584 22.142C50.1166 24.9025 46.7737 27.56 43.6874 30.4834C35.9565 37.8116 28.3156 45.2353 20.6971 52.6796C13.9738 59.2475 7.28986 65.8528 0.622753 72.4806C0.33809 74.4732 0.12272 76.4921 -0.0214844 78.5278C1.03102 77.3798 2.09851 76.2449 3.21094 75.1549C18.0134 60.6539 32.8664 46.2017 47.7738 31.8093Z" fill="#121212"/>
</g>
<path d="M36.6098 28.5145C46.1404 19.1374 56.2965 10.4889 66.5874 1.99023C63.591 2.62324 60.6544 3.41542 57.7853 4.35743C55.9444 5.92308 54.1166 7.50183 52.3018 9.0937C47.6442 13.1764 42.9173 17.1991 38.5144 21.5421C33.81 26.1866 28.8134 30.4097 23.3617 34.1328C18.3146 37.5825 13.6982 41.5471 9.22597 45.6729C7.69778 48.6132 6.34001 51.6564 5.16016 54.7877C12.1456 47.8884 19.4551 41.373 27.5455 35.7415C30.7143 33.5354 33.868 31.2113 36.6098 28.5145Z" fill="#121212"/>
</svg>
