<svg width="250" height="164" viewBox="0 0 250 164" fill="none" xmlns="http://www.w3.org/2000/svg">
<mask id="mask0_54_12503" style="mask-type:luminance" maskUnits="userSpaceOnUse" x="0" y="0" width="250" height="164">
<path d="M0 0H249.537V163.622H0V0Z" fill="white"/>
</mask>
<g mask="url(#mask0_54_12503)">
<path d="M240.398 1.91017C233.221 -1.15335 224.967 1.40887 218.184 4.28756C211.629 7.07004 205.459 10.7108 199.828 15.0656C193.329 20.0963 187.46 26.1322 182.665 32.9023C181.004 31.5503 179.283 30.2971 177.525 29.1628C164.036 20.4634 147.457 18.638 131.892 21.5825C105.459 26.5879 83.4325 44.3639 70.3151 67.3352C68.4542 67.0593 66.5831 66.8542 64.7071 66.7251C48.4274 65.6009 32.1072 69.705 17.5492 76.8524C11.2348 79.9539 3.65446 83.6833 1.05427 90.7243C-0.811692 95.7753 0.677025 101.869 5.86981 103.771C6.72557 104.12 7.66995 104.323 8.67761 104.34C12.9032 104.591 17.458 102.371 18.4682 97.9982C19.6632 92.8257 15.3414 87.2076 10.1739 86.5569C6.30782 86.0683 3.26203 88.5216 1.82648 91.7902C2.0113 91.1825 2.2341 90.5952 2.49488 90.0356C5.49004 83.625 13.0324 80.1944 19.0758 77.3005C32.3958 70.9178 47.164 67.1605 61.9955 67.6568C64.5779 67.7429 67.1705 67.9783 69.7429 68.353C68.0719 71.3583 66.5502 74.4497 65.1957 77.6094C59.5396 90.78 56.076 105.29 56.709 119.681C57.2812 132.783 61.5043 146.265 71.5278 155.238C76.8624 160.015 83.7667 163.355 91.0178 163.494C97.95 163.626 104.515 160.628 109.688 156.149C120.435 146.847 124.798 131.991 123.425 118.147C122.023 103.971 114.88 91.1319 103.953 82.0528C94.7042 74.3687 83.3312 69.467 71.4898 67.515C80.2348 52.2784 92.7901 39.3585 108.561 30.9807C120.997 24.3701 135.208 20.666 149.341 21.4103C161.36 22.0408 172.809 26.2613 182.05 33.7986C178.452 39.0268 175.5 44.6753 173.391 50.6302C170.915 57.613 169.474 65.4136 170.535 72.8141C171.388 78.7766 174.437 85.0251 180.657 86.8101C186.081 88.3672 192.058 86.0683 195.988 82.2629C201.074 77.3309 202.211 69.862 201.191 63.1147C199.459 51.6784 192.425 41.1662 183.534 33.6264C189.921 24.5599 198.18 16.81 207.616 10.9741C213.336 7.43716 219.607 4.32807 226.139 2.62921C231.886 1.1329 238.474 1.12277 243.12 4.81671C238.479 2.94316 232.492 4.8471 230.339 9.55884C228.063 14.5491 230.696 21.185 235.978 22.9345C241.181 24.6587 247.45 21.4053 248.69 16.0074C250.037 10.1234 245.657 4.15084 240.409 1.91017H240.398ZM3.5861 90.7091C7.18383 85.3695 14.3945 87.681 16.82 92.8764C17.22 93.7397 17.4504 94.5853 17.5314 95.4031C17.5314 95.4107 17.5314 95.4158 17.5314 95.4234C17.5238 99.8136 13.2197 103.247 8.96371 103.29C7.66994 103.234 6.37365 102.918 5.23179 102.32C1.41885 100.019 1.18845 94.2714 3.5861 90.7091ZM120.949 110.326C124.167 122.83 122.77 136.763 115.617 147.706C112.093 153.096 107.133 157.727 101.193 160.329C94.7042 163.178 87.4885 162.985 81.0222 160.152C69.3555 155.038 62.1626 143.559 59.3548 131.525C56.5166 119.374 57.542 106.591 60.5675 94.5853C62.8639 85.4809 66.3401 76.6878 70.8949 68.5353C93.6788 72.252 114.979 87.1569 120.944 110.326H120.949ZM186.055 37.4216C190.509 41.8675 194.198 47.0704 196.851 52.7747C199.889 59.3017 201.656 67.0213 199.58 74.0978C197.897 79.8324 193.354 84.3795 187.493 85.8125C181.417 87.3013 175.865 84.3365 173.28 78.7158C170.49 72.6445 170.943 65.2642 172.206 58.8814C173.621 51.7391 176.487 44.9412 180.207 38.7002C181.055 37.2773 181.951 35.8772 182.888 34.5075C183.974 35.4342 185.032 36.4013 186.05 37.4216H186.055ZM247.645 15.7213C246.979 18.7038 244.601 20.9394 241.745 21.8635C235.636 23.8358 229.937 18.7114 230.631 12.4578C231.317 6.28518 238.831 3.31281 243.918 6.41683C244.209 6.59406 244.49 6.45987 244.627 6.23454C244.943 6.57887 245.247 6.95105 245.538 7.34601C247.288 9.731 248.303 12.7743 247.647 15.7238L247.645 15.7213Z" fill="#121212"/>
</g>
</svg>
