<svg width="130" height="52" viewBox="0 0 130 52" fill="none" xmlns="http://www.w3.org/2000/svg">
<mask id="mask0_54_12420" style="mask-type:luminance" maskUnits="userSpaceOnUse" x="-1" y="0" width="131" height="52">
<path d="M-0.000244141 0H130V51.1634H-0.000244141V0Z" fill="white"/>
</mask>
<g mask="url(#mask0_54_12420)">
<path d="M-0.000244141 0.660998C-0.000244141 0.5772 0.0165152 0.495079 0.0483584 0.416309C0.0802015 0.339215 0.127128 0.268826 0.185786 0.210167C0.24612 0.149833 0.314834 0.102907 0.393604 0.0710635C0.470697 0.0392208 0.552819 0.0224609 0.636616 0.0224609C4.98906 0.0224609 7.13427 3.08274 9.20407 6.04415C11.1733 8.86309 13.0353 11.5245 16.7274 11.5245C20.4212 11.5245 22.2781 8.86309 24.2507 6.04415C26.3222 3.08274 28.4624 0.0224609 32.8182 0.0224609C37.174 0.0224609 39.3125 3.08274 41.3823 6.04415C43.3549 8.86309 45.2068 11.5245 48.9056 11.5245C52.6044 11.5245 54.4597 8.86309 56.4323 6.04415C58.5021 3.08274 60.644 0.0224609 64.9998 0.0224609C69.3555 0.0224609 71.4957 3.08274 73.5672 6.04415C75.5364 8.86309 77.3917 11.5245 81.0905 11.5245C84.7894 11.5245 86.6446 8.86309 88.6139 6.04415C90.6803 3.08274 92.8222 0.0224609 97.1813 0.0224609C101.54 0.0224609 103.677 3.08274 105.749 6.04415C107.721 8.86309 109.573 11.5245 113.275 11.5245C116.978 11.5245 118.826 8.86309 120.797 6.04415C122.865 3.08274 125.007 0.0224609 129.363 0.0224609C129.447 0.0224609 129.529 0.0392208 129.606 0.0710635C129.685 0.102907 129.753 0.149833 129.814 0.210167C129.872 0.268826 129.919 0.339215 129.951 0.416309C129.983 0.495079 130 0.5772 130 0.660998C130 0.746471 129.983 0.826916 129.951 0.905686C129.919 0.984456 129.872 1.05317 129.814 1.1135C129.753 1.17216 129.685 1.21909 129.606 1.25093C129.529 1.28445 129.447 1.29953 129.363 1.29953C125.669 1.29953 123.809 3.96094 121.836 6.77989C119.765 9.74129 117.625 12.8016 113.272 12.8016C108.92 12.8016 106.774 9.74129 104.701 6.77989C102.732 3.96094 100.87 1.29953 97.1813 1.29953C93.4909 1.29953 91.6272 3.96094 89.658 6.77989C87.5848 9.74129 85.443 12.8016 81.0872 12.8016C76.7314 12.8016 74.5912 9.74129 72.5197 6.77989C70.5505 3.96094 68.6902 1.29953 64.9998 1.29953C61.3093 1.29953 59.4457 3.96094 57.4764 6.77989C55.4033 9.74129 53.2614 12.8016 48.9056 12.8016C44.5498 12.8016 42.413 9.74129 40.3415 6.77989C38.3689 3.96094 36.5086 1.29953 32.8182 1.29953C29.1294 1.29953 27.2641 3.96094 25.2932 6.77989C23.2217 9.74129 21.0798 12.8016 16.7274 12.8016C12.375 12.8016 10.2314 9.74129 8.15995 6.77989C6.19071 3.96094 4.32706 1.29953 0.636616 1.29953C0.552819 1.29953 0.470697 1.28445 0.393604 1.25093C0.314834 1.21909 0.24612 1.17216 0.185786 1.1135C0.127128 1.05317 0.0802015 0.984456 0.0483584 0.905686C0.0165152 0.826916 -0.000244141 0.746471 -0.000244141 0.660998ZM129.363 19.192C125.007 19.192 122.865 22.2539 120.794 25.2153C118.823 28.046 116.961 30.694 113.272 30.694C109.582 30.694 107.718 28.0326 105.745 25.2153C103.674 22.2657 101.534 19.192 97.1813 19.192C92.8289 19.192 90.6803 22.2657 88.6105 25.2271C86.6413 28.046 84.786 30.7074 81.0872 30.7074C77.3884 30.7074 75.5331 28.046 73.5639 25.2271C71.4941 22.2657 69.3522 19.192 64.9998 19.192C60.6473 19.192 58.5055 22.2539 56.4357 25.2153C54.4631 28.0326 52.6111 30.694 48.909 30.694C45.2068 30.694 43.3582 28.0326 41.3856 25.2153C39.3125 22.2657 37.1706 19.192 32.8182 19.192C28.4657 19.192 26.3222 22.2657 24.2507 25.2271C22.2781 28.046 20.4178 30.694 16.7274 30.694C13.0386 30.694 11.1733 28.046 9.20407 25.2271C7.13427 22.2657 4.98906 19.192 0.636616 19.192C0.552819 19.192 0.470697 19.2087 0.393604 19.2406C0.314834 19.2741 0.24612 19.3193 0.185786 19.3797C0.127128 19.44 0.0802015 19.5087 0.0483584 19.5875C0.0165152 19.6646 -0.000244141 19.7467 -0.000244141 19.8305C-0.000244141 19.916 0.0165152 19.9981 0.0483584 20.0752C0.0802015 20.154 0.127128 20.2227 0.185786 20.283C0.24612 20.3433 0.314834 20.3886 0.393604 20.4221C0.470697 20.454 0.552819 20.4707 0.636616 20.4707C4.32706 20.4707 6.19071 23.1321 8.15995 25.946C10.2314 28.9208 12.3716 31.9728 16.7274 31.9728C21.0832 31.9728 23.2217 28.9091 25.2932 25.946C27.2641 23.1439 29.1261 20.4707 32.8182 20.4707C36.512 20.4707 38.3689 23.1321 40.3415 25.946C42.413 28.9091 44.5532 31.9728 48.9056 31.9728C53.2581 31.9728 55.4033 28.9091 57.4731 25.946C59.4423 23.1439 61.3076 20.4707 64.9998 20.4707C68.6919 20.4707 70.5538 23.1321 72.5231 25.946C74.5929 28.9091 76.7381 31.9728 81.0905 31.9728C85.443 31.9728 87.5865 28.9091 89.658 25.946C91.6239 23.1439 93.4875 20.4707 97.1813 20.4707C100.873 20.4707 102.735 23.1321 104.705 25.946C106.778 28.9091 108.92 31.9728 113.275 31.9728C117.631 31.9728 119.768 28.9091 121.84 25.946C123.809 23.1439 125.669 20.4707 129.363 20.4707C129.447 20.4707 129.529 20.454 129.606 20.4221C129.685 20.3886 129.753 20.3433 129.814 20.283C129.872 20.2227 129.919 20.154 129.951 20.0752C129.983 19.9981 130 19.916 130 19.8305C130 19.7467 129.983 19.6646 129.951 19.5875C129.919 19.5087 129.872 19.44 129.814 19.3797C129.753 19.3193 129.685 19.2741 129.606 19.2406C129.529 19.2087 129.447 19.192 129.363 19.192ZM129.363 38.3631C125.007 38.3631 122.865 41.4268 120.794 44.3848C118.823 47.2038 116.971 49.8652 113.272 49.8652C109.573 49.8652 107.718 47.2038 105.745 44.3848C103.674 41.4268 101.534 38.3631 97.178 38.3631C92.8222 38.3631 90.6803 41.4268 88.6105 44.3848C86.6413 47.2038 84.786 49.8652 81.0872 49.8652C77.3884 49.8652 75.5331 47.2038 73.5639 44.3848C71.4941 41.4268 69.3522 38.3631 64.9964 38.3631C60.6406 38.3631 58.5021 41.4268 56.4323 44.3848C54.4597 47.2038 52.6078 49.8652 48.9056 49.8652C45.2034 49.8652 43.3549 47.2038 41.3823 44.3848C39.3125 41.4268 37.1706 38.3631 32.8182 38.3631C28.4657 38.3631 26.3222 41.4268 24.2507 44.3848C22.2781 47.2038 20.4262 49.8652 16.7274 49.8652C13.0286 49.8652 11.1733 47.2038 9.20407 44.3848C7.13427 41.4268 4.98906 38.3631 0.636616 38.3631C0.552819 38.3631 0.470697 38.3782 0.393604 38.4117C0.314834 38.4436 0.24612 38.4888 0.185786 38.5492C0.127128 38.6095 0.0802015 38.6782 0.0483584 38.757C0.0165152 38.8358 -0.000244141 38.9162 -0.000244141 39.0017C-0.000244141 39.0855 0.0165152 39.1676 0.0483584 39.2464C0.0802015 39.3235 0.127128 39.3939 0.185786 39.4525C0.24612 39.5128 0.314834 39.5598 0.393604 39.5916C0.470697 39.6235 0.552819 39.6402 0.636616 39.6402C4.32706 39.6402 6.19071 42.3016 8.15995 45.1206C10.2314 48.082 12.3716 51.1423 16.7274 51.1423C21.0832 51.1423 23.2217 48.082 25.2932 45.1206C27.2641 42.3016 29.116 39.6402 32.8182 39.6402C36.5204 39.6402 38.3689 42.3016 40.3415 45.1206C42.413 48.082 44.5532 51.1423 48.9056 51.1423C53.2581 51.1423 55.4033 48.082 57.4731 45.1206C59.4423 42.3016 61.2976 39.6402 64.9964 39.6402C68.6952 39.6402 70.5505 42.3016 72.5197 45.1206C74.5912 48.082 76.7347 51.1423 81.0872 51.1423C85.4396 51.1423 87.5848 48.082 89.6546 45.1206C91.6239 42.3016 93.4792 39.6402 97.178 39.6402C100.877 39.6402 102.732 42.3016 104.701 45.1206C106.774 48.082 108.916 51.1423 113.272 51.1423C117.628 51.1423 119.765 48.082 121.836 45.1206C123.809 42.3016 125.661 39.6402 129.363 39.6402C129.447 39.6402 129.529 39.6235 129.606 39.5916C129.685 39.5598 129.753 39.5128 129.814 39.4525C129.872 39.3939 129.919 39.3235 129.951 39.2464C129.983 39.1676 130 39.0855 130 39.0017C130 38.9162 129.983 38.8358 129.951 38.757C129.919 38.6782 129.872 38.6095 129.814 38.5492C129.753 38.4888 129.685 38.4436 129.606 38.4117C129.529 38.3782 129.447 38.3631 129.363 38.3631Z" fill="white"/>
</g>
</svg>
