<svg width="458" height="317" viewBox="0 0 458 317" fill="none" xmlns="http://www.w3.org/2000/svg">
<path d="M375.153 211.624C329.95 269.279 246.566 279.373 188.911 234.169C131.256 188.966 209.494 165.231 254.697 107.576C299.901 49.9214 294.953 -19.8216 352.608 25.3819C410.263 70.5854 420.357 153.969 375.153 211.624Z" fill="#FFE144" fill-opacity="0.5"/>
<path d="M61.4526 147.627C95.3916 181.566 150.418 181.566 184.357 147.627C218.296 113.688 165.543 104.411 131.604 70.4724C97.6645 36.5333 95.3916 -9.21615 61.4526 24.7229C27.5135 58.662 27.5135 113.688 61.4526 147.627Z" fill="#E2264A"/>
<path d="M78.8022 195.298C78.3715 194.93 77.9673 194.583 77.5723 194.23C77.1821 193.879 76.7918 193.526 76.4015 193.173C75.2292 192.11 74.0195 191.014 72.7803 189.985C71.1228 188.605 68.8356 187.103 65.8426 187.747C64.4525 188.044 63.0298 188.731 61.4921 189.851C57.7449 192.574 55.5774 196.225 55.5479 199.869C55.5432 200.419 55.5868 200.98 55.6801 201.543C55.9475 203.172 56.6363 204.863 57.6749 206.44C59.7133 209.538 62.9132 211.939 66.4583 213.026C67.9743 213.489 69.5726 213.721 71.1726 213.721C73.3152 213.721 75.4624 213.309 77.4231 212.493C79.6247 211.575 81.4159 210.228 82.5992 208.597C83.9752 206.705 84.5318 204.344 84.0887 202.285C83.4403 199.264 80.9759 197.157 78.8022 195.298ZM81.9477 208.118C80.8499 209.628 79.1769 210.881 77.1121 211.741C73.8609 213.097 70.064 213.283 66.6946 212.25C63.3268 211.217 60.2824 208.938 58.3466 205.992C57.3717 204.51 56.7249 202.926 56.4762 201.408C56.3906 200.892 56.3487 200.374 56.3549 199.87C56.3829 196.536 58.4819 193.033 61.9663 190.498C63.4139 189.448 64.7371 188.804 66.012 188.531C66.4303 188.44 66.8439 188.395 67.2544 188.395C68.8761 188.395 70.4682 189.104 72.2656 190.6C73.4909 191.621 74.6959 192.712 75.862 193.768C76.2523 194.121 76.6441 194.476 77.0343 194.826C77.4355 195.188 77.8646 195.553 78.2798 195.909C80.4566 197.771 82.708 199.698 83.2988 202.448C83.6953 204.29 83.19 206.408 81.9477 208.118ZM86.0447 190.938L85.3435 190.302C83.19 188.349 80.6416 186.055 78.0637 183.853C77.8258 183.649 77.5863 183.45 77.3469 183.253C74.4875 180.9 71.5706 179.658 68.1717 179.35C63.0594 178.885 57.8693 180.796 53.934 184.593C48.8092 189.537 45.9001 195.659 45.9514 201.393C45.9592 202.271 46.0322 203.164 46.1691 204.045C46.3168 205.005 46.5453 205.969 46.8439 206.911C47.3927 208.642 48.195 210.323 49.2321 211.908C50.8974 214.461 53.1021 216.52 55.6054 217.861C58.7462 219.542 62.2353 219.711 65.6109 219.876C67.1051 219.949 68.6506 220.024 70.1526 220.229C71.2876 220.384 72.4615 220.461 73.665 220.461C77.3889 220.461 81.3786 219.73 85.2129 218.321C87.9634 217.309 90.5258 215.802 92.8285 213.842C94.486 212.43 96.2445 210.672 96.7141 208.336C97.1541 206.142 96.3704 203.994 95.5448 202.184C93.4815 197.665 89.7001 194.246 86.0447 190.938ZM95.9226 208.176C95.5044 210.27 93.8578 211.905 92.3045 213.228C90.0764 215.125 87.598 216.584 84.9345 217.562C79.9855 219.383 74.7736 220.045 70.2614 219.43C68.7252 219.22 67.1626 219.142 65.6513 219.07C62.2151 218.902 58.967 218.745 55.9879 217.148C53.6028 215.873 51.5022 213.908 49.9085 211.466C48.9134 209.942 48.1406 208.327 47.6151 206.667C47.329 205.762 47.1097 204.84 46.9667 203.923C46.8345 203.08 46.7646 202.226 46.7568 201.386C46.7086 195.875 49.526 189.966 54.4922 185.176C57.888 181.9 62.2509 180.09 66.6495 180.09C67.1315 180.09 67.6151 180.112 68.0971 180.157C71.3296 180.451 74.105 181.634 76.8322 183.88C77.0686 184.074 77.3049 184.271 77.5381 184.472C80.1098 186.666 82.652 188.955 84.7993 190.905L85.5021 191.54C89.0984 194.791 92.8145 198.155 94.8063 202.523C95.5806 204.21 96.3176 206.209 95.9226 208.176ZM93.0711 186.053C90.1355 183.374 86.9387 180.545 83.2988 177.403C82.9832 177.131 82.666 176.858 82.3504 176.589C78.5052 173.328 74.699 171.439 70.3703 170.644C61.8404 169.078 52.8642 172.199 46.3619 178.99C39.8377 185.809 36.1729 194.41 36.3098 202.593C36.33 203.808 36.4326 205.028 36.6145 206.23C36.8151 207.558 37.1183 208.888 37.5148 210.175C38.2518 212.578 39.3417 214.895 40.7504 217.058C43.3361 221.036 46.819 224.079 50.8196 225.86C54.3989 227.454 58.188 227.934 62.027 227.934C64.9812 227.934 67.9634 227.65 70.9005 227.37C71.8614 227.28 72.8565 227.185 73.8298 227.102C80.7707 226.513 87.0009 225.86 92.9684 223.826C96.4948 222.624 99.8875 220.907 103.047 218.724C105.626 216.942 108.674 214.439 109.349 210.875C109.955 207.683 108.56 204.633 106.965 201.817C103.622 195.913 98.6949 191.185 93.0711 186.053ZM108.554 210.721C107.934 213.998 105.04 216.363 102.588 218.058C99.4879 220.199 96.1652 221.882 92.7057 223.062C86.8252 225.065 80.6463 225.712 73.7583 226.297C72.7818 226.379 71.7852 226.474 70.8227 226.567C64.1664 227.202 57.2862 227.858 51.1461 225.124C47.2886 223.406 43.927 220.465 41.4252 216.618C40.057 214.519 38.9997 212.27 38.2844 209.938C37.8988 208.687 37.6081 207.4 37.4122 206.109C37.2349 204.944 37.1354 203.759 37.1167 202.582C36.983 194.611 40.5638 186.217 46.9434 179.552C53.2592 172.955 61.9617 169.923 70.2257 171.439C74.4098 172.207 78.0979 174.039 81.8311 177.207C82.1451 177.474 82.4608 177.743 82.7748 178.015C86.4085 181.153 89.5991 183.979 92.53 186.652C98.1025 191.736 102.983 196.416 106.267 202.215C107.781 204.896 109.111 207.785 108.554 210.721ZM100.791 181.517C96.6456 177.725 92.3325 173.974 88.5278 170.663C88.1329 170.321 87.741 169.977 87.3461 169.638C82.3721 165.346 77.8071 162.883 72.5455 161.653C66.5158 160.244 60.1487 160.633 54.133 162.781C48.4252 164.819 43.1185 168.386 38.7882 173.1C30.8538 181.735 26.4334 192.818 26.6619 203.509C26.693 205.058 26.8268 206.611 27.0522 208.129C27.3057 209.829 27.685 211.519 28.1764 213.153C29.1031 216.229 30.476 219.179 32.2594 221.922C35.7127 227.239 40.5965 231.374 46.012 233.565C50.0904 235.217 54.3445 235.792 58.6654 235.792C63.7715 235.792 68.9709 234.986 74.0755 234.196C75.1996 234.022 76.3191 233.847 77.4324 233.683C78.0559 233.592 78.6778 233.5 79.3044 233.41C86.4194 232.369 93.7738 231.293 100.716 229.045C105.165 227.606 109.389 225.675 113.27 223.306C116.574 221.291 121.069 218.044 121.974 213.129C122.762 208.857 120.603 204.691 118.387 201.176C113.492 193.415 106.738 186.959 100.791 181.517ZM121.183 212.979C120.337 217.578 116.022 220.681 112.852 222.614C109.022 224.949 104.857 226.853 100.469 228.275C93.5904 230.503 86.2686 231.573 79.1878 232.609C78.5612 232.7 77.9393 232.792 77.3158 232.884C76.1978 233.049 75.0768 233.221 73.9526 233.397C64.6376 234.84 55.0068 236.335 46.3152 232.817C41.0521 230.687 36.3004 226.662 32.9358 221.484C31.1959 218.805 29.854 215.923 28.9491 212.922C28.4687 211.325 28.1002 209.673 27.8514 208.012C27.6306 206.529 27.5016 205.006 27.4689 203.493C27.245 193.009 31.5893 182.132 39.3837 173.647C48.3412 163.897 60.6711 159.708 72.3651 162.44C77.493 163.639 81.9539 166.049 86.8221 170.253C87.2155 170.59 87.6089 170.934 88.0022 171.274C91.8054 174.58 96.1139 178.328 100.251 182.113C106.16 187.52 112.867 193.931 117.708 201.606C119.838 204.985 121.918 208.98 121.183 212.979ZM108.514 176.96C104.409 173.193 100.139 169.467 96.0097 165.867C95.2587 165.213 94.5093 164.556 93.7598 163.902L92.3434 162.664C86.2624 157.352 80.8251 154.259 74.7176 152.638C66.99 150.586 58.7758 150.967 50.9611 153.741C43.5756 156.361 36.7498 161.009 31.2208 167.181C26.7521 172.167 23.0936 178.138 20.64 184.446C18.1103 190.95 16.8571 197.85 17.0141 204.398C17.0608 206.283 17.2209 208.169 17.493 210.006C17.7978 212.077 18.2518 214.132 18.8395 216.108C19.9543 219.856 21.6134 223.44 23.7684 226.763C28.1235 233.473 34.3134 238.614 41.1998 241.244C45.911 243.042 50.7947 243.709 55.7547 243.709C63.0205 243.709 70.4496 242.275 77.7294 240.871C78.8333 240.656 79.9341 240.445 81.0303 240.239C82.5338 239.955 84.0436 239.68 85.5596 239.401C93.155 238.008 101.012 236.566 108.47 234.238C113.939 232.531 118.997 230.385 123.503 227.86C130.122 224.151 133.752 220.063 134.604 215.36C135.574 209.994 132.729 204.845 129.814 200.519C123.563 191.24 115.54 183.402 108.514 176.96ZM133.811 215.215C133.004 219.664 129.506 223.569 123.111 227.154C118.653 229.653 113.646 231.777 108.231 233.469C100.819 235.783 92.9871 237.218 85.4134 238.608C83.8974 238.886 82.3861 239.165 80.881 239.448C79.7833 239.655 78.684 239.866 77.5785 240.081C65.4414 242.423 52.8907 244.844 41.489 240.49C34.7627 237.924 28.7128 232.892 24.4478 226.323C22.3332 223.068 20.7069 219.552 19.6154 215.879C19.037 213.937 18.5923 211.922 18.2922 209.888C18.0263 208.082 17.8662 206.23 17.8226 204.378C17.5117 191.552 22.7453 177.847 31.8225 167.718C40.8111 157.686 52.8254 152.153 64.779 152.153C68.0489 152.153 71.3141 152.565 74.5124 153.416C80.4954 155.005 85.8301 158.045 91.8132 163.27L93.2296 164.508C93.9791 165.163 94.7301 165.819 95.4811 166.474C99.6076 170.072 103.873 173.793 107.973 177.554C114.965 183.965 122.947 191.761 129.147 200.97C131.967 205.162 134.732 210.134 133.811 215.215ZM141.242 199.862C130.596 184.735 116.515 172.444 102.898 160.555C101.074 158.96 99.1847 157.313 97.3376 155.686C92.1817 151.147 85.7197 146.163 76.8835 143.619C67.472 140.91 57.4122 141.279 47.7877 144.683C38.7229 147.891 30.3765 153.623 23.6518 161.258C9.45911 177.375 3.90519 200.063 9.50575 219.06C10.8087 223.479 12.7523 227.698 15.282 231.6C20.5405 239.703 28.0349 245.852 36.3875 248.917C41.7813 250.896 47.3507 251.654 53.0057 251.654C62.4841 251.654 72.1972 249.522 81.7051 247.433C82.68 247.218 83.6533 247.005 84.622 246.794C87.0818 246.259 89.596 245.735 92.0277 245.226C106.174 242.275 120.802 239.224 133.74 232.405C141.682 228.219 146.224 223.235 147.233 217.588C148.396 211.077 144.642 204.694 141.242 199.862ZM146.438 217.447C145.476 222.835 141.077 227.628 133.363 231.691C120.527 238.457 105.955 241.497 91.8614 244.44C89.428 244.947 86.9139 245.471 84.451 246.007C83.4823 246.217 82.5074 246.433 81.5325 246.646C66.4645 249.957 50.8834 253.378 36.6627 248.161C28.4749 245.156 21.1205 239.118 15.9568 231.163C13.4691 227.328 11.5582 223.179 10.277 218.834C4.75414 200.096 10.2412 177.704 24.2566 161.793C38.3326 145.81 58.4119 139.144 76.6596 144.395C83.5663 146.382 89.5913 149.94 96.8058 156.293C98.6545 157.923 100.542 159.569 102.369 161.163C115.949 173.019 129.994 185.281 140.583 200.327C143.893 205.031 147.55 211.228 146.438 217.447Z" fill="white"/>
</svg>
